<mxfile host="app.diagrams.net" modified="2022-07-25T15:22:57.826Z" agent="5.0 (Windows NT 10.0; Win64; x64) AppleWebKit/537.36 (KHTML, like Gecko) Chrome/103.0.0.0 Safari/537.36" etag="4o2JSVrhjInCWgte1X22" version="14.9.8" type="github">
  <diagram id="vkhSwAMcKKbzTvX5ldfo" name="Page-1">
    <mxGraphModel dx="1422" dy="762" grid="1" gridSize="10" guides="1" tooltips="1" connect="1" arrows="1" fold="1" page="1" pageScale="1" pageWidth="827" pageHeight="1169" math="0" shadow="0">
      <root>
        <mxCell id="0" />
        <mxCell id="1" parent="0" />
        <mxCell id="Hab7gQNjuxkPKOEClwCh-17" value="" style="group;fontColor=#3333FF;" vertex="1" connectable="0" parent="1">
          <mxGeometry x="810" y="210" width="280" height="630" as="geometry" />
        </mxCell>
        <mxCell id="Hab7gQNjuxkPKOEClwCh-6" value="target assembly" style="text;html=1;strokeColor=none;fillColor=none;align=center;verticalAlign=middle;whiteSpace=wrap;rounded=0;fontStyle=1;fontSize=14;fontColor=#3333FF;" vertex="1" parent="Hab7gQNjuxkPKOEClwCh-17">
          <mxGeometry x="80" width="130" height="20" as="geometry" />
        </mxCell>
        <mxCell id="Hab7gQNjuxkPKOEClwCh-9" value="" style="rounded=0;whiteSpace=wrap;html=1;" vertex="1" parent="Hab7gQNjuxkPKOEClwCh-17">
          <mxGeometry y="40" width="280" height="550" as="geometry" />
        </mxCell>
        <mxCell id="Hab7gQNjuxkPKOEClwCh-13" value="" style="shape=image;verticalLabelPosition=bottom;labelBackgroundColor=#ffffff;verticalAlign=top;aspect=fixed;imageAspect=0;image=data:image/png,iVBORw0KGgoAAAANSUhEUgAAASIAAAFOCAYAAAAiiBCXAAAgAElEQVR4nO29f3hbV5nv+9l24jZJf1B6G0duYNpQGePLHHvGEhcGznQoNPVIDbQGZo59ynUTqaUXbj09MkMS6IxJzwyOz1TqjA9zZjhIGXxg7MsvhyEj1RTyPAOc0hnsFOskx0mltlDa2rjQNpA2ie3I+/4hbWnr95YtWdvW+3kePYn3XnuttX+9+33fvdZ3K6qqqgiCIFSRump3QBAEYdM3xv+52n0QBKHGUSQ0EwSh2uQMzU6dOrXW/RAEoYaRHJEgCFVHDJEgCFVnTQzRhQsXCv5WRwi34iZUlp4aIOrDrtjxRQGi+OwK7jVrXBA2JnUA4adn+dyXj3PwCyEOfiHEPz7+8+T//2Lkezx+8qcFKzFiYJxOZ86fcUK4FQVF+1X87l8vRiZ+XOxxy1iQqM+ecdyMbKs/7poBXotyefcCnz3PtiE3it1HNK2c/hd/YIXcmctzXVPVud4q304JhNxZxy5HoZznM+Q2dk1q1AEEnzjN/p73MvgxB395z218tvcP+HT3O/nTrt/hnt3NTPzbU0UrWrmBMUDIjaI4Iaiiqolf13hJO1o2rB4m1Uk81rVvOh3tRhsHl5HiPnrGuon4HSVsG8VndxL2RuLHPNhGf3OuC7Lc5YrjcrXR36MZnQLl9NeM6scBOPza30FcuAhq6/2O+EbVuN6ixxjDhi0wvnbefSFCbpSBViIZxy6d/OfT4Y/QPdZj+EFTB3Du/AL19XUsL8dYWlxgcfEiSwvxfxcvvM6l2PKK9qVsoZczgCuo4tcfCYefyepbgypixTMZv0C6DJQODfXTdsiDtZRto8cYm3JxSDvOjv14bQHGM++UcpczQtd+vPTTU3bjUJ3rLXpsDLpHOeRa4fEob2/wDYTxjmrXS75ihc6nFc+hNvqHjO1MMkeUywgtLVxkcfHiinenLN5RaJyAzcv+bHOcm6gPu86l1nu6UZ89p6uZb3n++jPLpLvxqTa18C6xXgsb8vYxs7wbtz3DxU0LP4wS5UzYRmup91F0hilXl+5JaKWlDcJnopUtZwgrnlEv9DeXN3w2dL1lhG1p10Oec56xTbp3FeXYGHTvseLochEY0J/fjPqKXTM5rvvcxLfT9yPqs8f7Gz3GGN0wlK+/2gZFzqe1FVv4jKFrNWmIlhYXuHzLNq66+lqu3d6EZecu3vyW1qQhOnXqVNbvpZdeKlh5MBgkGAwa6Ea5iOIbglHNnQy6CDgTF0nUR09/W8oN11zNfMtLIOAcpytXm5nrJz1YC/Uxq7wf/yEXU2PHkiczNB7AdajIkyrHcZmZaqOlREMUPROuSjnDWD2Mem1Zx09PwFnuPE8It6ILR1QVNQhOpdA5D+FWBmiNaNdYhO4xnQENDdFPN3usgKML19QYxzLuXsPXWJ712VjxpF1bUY6NTcWvregMU1P9zHQl6ot4oT87zCp6Pq0ttE3NlGaIFhcv8vJLs8y98Cw/f2aGp08/yUz4RywtxA3R29/+9qzf9u3bC1a+ZcsWtmzZYqAb5cKKx+8BzcNxBnSrWmgjgDMzyZlveQm4gjrjlSPcSFtfqI8569NfmCHGAy66SrWU0TOEba0lGi+wtrRVpVwpWD2jeG0BnHmMTFqOyF/qgctBwmMa1Ydpxc55aJwAU/Q3a0axmf6plOcQGg9g696TOD8OulxTjGVYopKuMaMhr/7aSoRZyWtL7xVaPRzK0afi59NKqy2MEYc35RFlhGOlhmaa91N2LyjPEyIniZCnh9GkJbelKsKvqqjqKPToM/z5lleIgn3MhYP9Xhg7FiXqGyCQ5gobpIQnUxZprnWUM2Foy+ValbucYeIhmi3gxD2+imo0Srne0igS+tq8usRv/BfPOYUYD8BUf3PSc3MGYKp/aA2S1imjFz02Bt798WvL2lrkmtRR8Hwa98TrALZctpmlS4s5jZCqqtTVKQUr0TyfzJ+eTENl3GDFb8T+5gwDEXJnx63RGaZ0T6vosTGmkut8+LQk2mQEr22KmWiB5SUQ0D16or4e+qcKeC2F+pgH655uGBtiaAy8hpNlmRh7MqWNk3LEE8JDaSFE4klZ7nJG+5QLLUQLZHuXpVPkenN04ZrKSJLrQ6ucVca30edtQ+5E6BQaJ6B/c5d8m5fu0RS7xkq6BvVd2+9NXlvd2g5Y99CtfxEQ9TEQsMXXl3I+o2cwGoxvAnhfx018Png659uxujqF9/z2jQary81qwzOrZxK1xY3SrNCvLXQFUf1W0D/nHfvxDjTTrMRL2VyulGW3emgZUlCcuu0dAPmWxwk4FZKXt81LZDS7fy7G4697E38FC+WZCvUx/wHgUJuCM+wlsiLnwUGXy8l4FEqLz+Lehr1ZIf4ochFUc+WnylAu6sPePMOhFeToIBGijTWnro8EaecPG95I8aEXha83K341iFtpRkmtzLO/Gg78Ef1+x0NGP/GwDFcwY58ddLnAOR7C77AmWih8jeVdX+y4JoxOf1sQNbkDVjyTQWZ0++gKqvHjlvYwKHLes5LZBVBzcPLkyVyLhSoSdKHavJGVVxDxqjabV11FDZUl6FJxBavdCxMSUb021PyHpsj6qh3XiOq12VSjl+wmI8ZKqDJRHwMBF4fUVeRSrB5Gu+00u1vKk7QtM9EzYVxd/mp3Y8NRreMacjcz1h1h0uAlK4bI5ITc8eSlK6iuKGTRY/VMYlbxKatnEjFD5adax9XhL+16zSmMdurUKd7+9reXsVuCIAj5qfjsexFZEwShGOsiNMs3X21tB0sKglApTGeI8hmdzDlrwWAwZ1kxToKw/jCdIYLcRgfg6Pi3ALiz646C5dYFmszCZKnzxgRh41F2QxR+epbgE6c5d34htfDxnwOw7fIG3vu7b+HdBgZIZhqdzP8XKpefKD57M/1T+Qa2xSc0BmxeMRCCsIaU3RBpImu59I2WLi3x+eCMIUNUSWy2+NwtT4YlivoGMD5JIG7UZg5l6NaUnbVqRxCqR9nfmmWKrF2+ZduKRNbu7LrDkJdjtJyetu5uyJpUGNeE8XqNyB0KglBOKvL6Xu8JAWURWSsrLR4OuQIM5Jq42JJZOJegVQh3Qsoh4DQieJZdT5b8R85tV9KOIKw/KpKs1jwhDcvOXQDMhH8E5B5btH379qL6RuXE0eXC6Rwi5PHjIIpvIIDrkIoVt66UTtAqPjMTn70Zd4uKX43QmhYypQTPrBBPRjvddKl+HIncE0E1OaE25FZwJqcm59+2tHYEYX1SEUOkiawtLl7EsnMXT59+MukVAeYYte3Yj9fWzIBvP46WuHxBxAFp8VpC0Ar9LGzAdiZK9l0fFzyL+uwo/ZqwhytVjy1Rv9Z8l4uURkKBbbMopawgrA8qEprpRdZgZaHZ0fFvJd+IlbrMGCmpTF+aQl4GeQWtMihZ8GyF266mHUEwKWX3iDJF1jS5WaMiaxq5EtBGlxnG0YXL6aR/ykUw18z2xPqhkIfUl2bc4M8RBiUEzyJpgmdteeqJh4LgLb5tKe0Iwjql7B6RJrL23777U/zfn+N/PPEqY09e4JunVL512rjIWuU9Ioir8dkgr3hTXNAqrBNgH+/SjJCVPd22VBI5oVbXnCjXM9OWLlMbdOmE3HugWxdOFdy2lHYEYX1S8dn3pdZ14cKFnCOmjS6TKR6CsP4wpSFaDWKIBGH9Ybq5ZmJIBKH2qLgekSAIQjHEEAmCUHVMF5rlQoTRBGFjYzpDJMJoglB7mM4QgZmF0WpUkkNE3KpIsWsuhFsZX/dzDcueIwo/Pcvnvnycg18IcfALIf7x8Z8n//8XI9/j8ZM/NVRProGKuSQ/ShvQGMVn182AVxQUxb0G3xhfCVpf831qOTGbX5uRv0GI+uwo7hA5z9UG29fqkn18UyoOxu6TkDv/+Qm5lexPwheg7IZIE0Yb/JiDv7znNj7b+wd8uvud/GnX73DP7mYm/u2pcjdZMq6gbu5YEJwmltLQRNwyKV3EbS32cZXtRH30jHUT0T36087VhvHI1up8FMOGN6Im5yyGnekPPSP3ic0bSZYJtvXTnCjg8EfoHuvJ8xDNpiaF0dJw+BMnwZyeUS2JuIWG+mk7tFGMzTrD6uGQayrnQw8wdJ9YW/WTjax4DrXRP2TsrqpNYbRMrHvotgUYTx6zXGJoetLXJ58SUR92vQub+XfadnZ8PnfxcKNmRNyinAnbaC1qhTRvIjM0zehz1nG34wul+uIOEc995T3HedozcrzS2s7srx37io5TofbzlyslPCpK1n2iJ8qxsSlcXbpMlbUVW/iMoXC6MjIgCU/oqquvBeLCaG9+S2vSEJ06dSrr99JLL1WiKytAJ4amqqhqhO6x5rQTH3CO05V0WV0EDHlTOnE0VUVVR2HMWHDl6HIxlfSKNBG3TM8hX78d+NUIXlvC1Z70YNWJq2XvQ2Y/VYJpjle+bUttJ5MoM1NttGQYooAz902VPAeTHqyJPod1YUI8lNC3NUX/QKIv2gTk8a5kWJLtdWb2I985N9K2vr+TTK7gOBm75opfu3mJ+hgI2OjeU5o/OtXfnDg/zfTjZb8+Y25toW1qpnqGSBNGm3vhWQCePv1kUg4E4sJomb+1VGfMTeJpnBBD629WUgd4CsJnUofTFdS9oXDsx5v3KaEjIY6WOlFxPSRDJNoY8EUT3lDGCdfqL9LvFHFxNXz2bI8nq58JETcj25bSTibRM4RtrVlhmT5PodeBSjsHiT6P6nWiss6LDe9owng7unBhw6vtpLWFNsLkPFS52tPXbajtjO2zKH6cDF1zJV0DgL5s8xjdOb9sk0m616rPEamHZmhOM8BWWm2Fj6tGDQuj6dBCHe0AGxVDWzNqQMSthKencYyEepWihLbLKXZX0rWrS1arBoxQ5n2SiaMLV5pBz+3l5qLshqicwmiZSWijy0oi5EZxhtOfllP96HNsIXeGm6x7FEV9PfRPuUiFxqkTERctS5BVryaOZpDE9v0BF4dyXTEG+p3qdFxcbTRNXM1gPwttW0o7OTH29Mwi0eeeXHm0MhmivOe8HG0bOE6Fr7kEpVwDpZJ5n+QsM04AneGJnkmpIRehJoXR9HkHZaCVSNrToJAYWhwX48l1zf1tBLXBZFYPo16S7m6WOFpavRniaEXZ6CJuDrpcU8ysyCVy4FeDtCXzFQqKE4JlfN2f95yvqO3Sj1P+9jOOQ5FrtxQK3ydxpjL3W9+v6AxTea/XdEypR1QzwmgyYjmdqA97D4ya6njU6Gj6VRPFFz+ZBvJOJp3ikWuqhtFl5iWKzz5Ey6T2xAjhdgaweSMmuumqjNXDaLedZncLqtz165qQu5mx7giTBi9u0xmideXRlIQVz2grdkVB8+Ns3kiVk+Dmw+qZJMtFF9YdDr9aUkhoOkO0obF6mFQ91e6FUBJWPJNiGiuNCKMJglB1xBAJglB11mVopg3UyqSuTuyqIKxHTH/nXrp0iaWlpeRveXmZWCzGsWPHGBoaSv6efvrp4pXpJjnqf2kTA0PutL+j2rD7gj9zztwXhPVC2T2i8NOzBJ84zbnzC6mFj/8cgG2XN/De330L7zY4qBHi3k9vby8Ab33rW/nMZz4DwMzMDN/73veS5d73vvcVr8zhR1X96ctCbuxnCm+W9nYr6sM+1MJk8vVy/LW8IAgrp+yGSBNG02sSxeeaLbB0aYnPB2dKNkTz8/MANDY25h07pCjGpo4IgmA+TCuMpqEZmJ07d/K2t72Nzs5OOjs7ufbaa9m5c2eyXK6cUTY5JDALzh6PkzaMvbmfqYBTV0d8hrMgCCvHlMJo+rzQ8vIyDzzwAAMDA7z88sv4fD58Ph8vv/wyH/nIR5LbGPOIosxMuQjqZycHi8/3SpM6iHixuYK62c1xbRlBEFZORd6aaZ6QhmXnLgBmwj8C4vPPMtm+fXtSk+gnP/kJBw4cAOCBBx7A6XRy6dKltJwQgMfjYffu3cY7ltC82a9f5vAzWWQIaJsRHQNBEFZMRQyRJoy2uHgRy85dPH36yTR9olIn1A4NDXHrrbdmLVcUhYaGBuMVRWeYmgrQrPSnL3cFC85tCjiVLKF6JW2Bi/U0600QzIZphdH0fPKTn8xpvEpOUDv8aYJRWmhmK6BgFZ2ZSv+agYRmglB2yu4RlUMYbefOnTzwwAMAtLa2snnz5pzJaGMJ6sJEzxSSbopyJuyiy1+giCAIq6bshkgTRsv1dqyuzpgwmsViYc+ePRnb1jExMZG2rByv7KMzU7R15fGIQkP000pk1a0IglCIshuid//2jWnjhMolsrZpU5m6GvVhb+5PSXHavETyeDyh8QCuQ2puvSB9PTavGCtBWAWmU2gUBKH2MP1cM0EQNj5iiARBqDpiiARBqDqm1iNaXl7m0qVLLC8vU1dXlxy8uLi4yPLyMoqisGnTJurr66vcU0EQVoNpDdHy8jLnzp3jyJEjLC0tJccVaTzyyCPU19dz11130djYKMZIENYxpg3NYrEYP/jBDzh+/Di33npr2uBFVVW58847OXnyJI8++ijLy6XN6BcEwVyYWhjt1KlT7Nq1i9bW1rQ5ZQ0NDcnlp06dKssIa0EQqodphdFUVeW1117jyiuvTGr/aGj/V1WVrVu3lnsXBEFYY0wpjBaLxVBVlaWlpby5n7q6Oq677jpefPFFVFUlFouVe1cEQVgjTCmMFovFOHr0KM899xwf+MAHcn6do66ujptvvpnFxUW++tWviiEShHWMKYXRAM6ePcuWLVvYsmVL3smtDQ0NXHXVVZw9e7ac3RcEYY2piEekCaPNvfAsAE+ffjIpBwJxYbTMn94I1dfXs3fvXq655hqOHj2a861YLBbj+PHj/OY3v+Hee+81+E2zEO6k1rQd/VeEBEGoHpXxiFYpjFZfX08sFmPr1q1cuHAhrxbR/Pw8N954I3V1dQZn5zvwqyoiLyQI5qLsHlE5hNEg/mbsiiuu4Pz583nXK4qSd70gCOsHUwqjadx0002cOHGC+fl5Ghsb06Z4vPrqqzz77LO0t7eXre+CIFQH0+oRLS8v88orr/Dwww8D8NBDD6UZogcffJBYLMbHP/5xbrjhBpniIQjrGNMaIognpLVJr/X19WmGKBaLUVdXR319ffnUGwVBqAqmvoPr6+tzejolfUJIEATTY9pJr4Ig1A5iiARBqDqmDs1EGE0QagPTGiIRRhOE2sG0oVl1hNFCuBU3oTLVVpSoD3tyqkkUn13BvWaNC4J5qFFhtBBuxUlA+9MVRPU7SqyjFKL47M3MHFKpaDOrJn5cwt4Ik548X78VhApQe8JoITeKM4ArqKI6UsvsPiuTntKqWjVWD5PqWjeai7ih7J9y4XJVuy9CLVJxYTTNCJlDGC2EO2GE0jwTh7/GPQArnkkVVfXTVe2uCDVJxYXR9DPxqy6MFhonYPOy32h4FPVhT8qGpOdvoj57crmiyyvlW56//swyeqkSfZtaDimx3u4jWrCPmeXduO0Kdr32ScidqkcQqsiaCKNprC9htCi+IRhVVayQCOncdKl+HFEfPf1tBNVJ0mxavuUlEHCOE9SkSvRt5lpfqI856wNl4BhRjwcrEBoP4DqU2FYQqkjFhdF+/syMiYTRSsGKx+8BzcNxBnSrWmgjgDNTXC3f8hJwBVNGBMd+vLYA46E86wv1MWd9XbimxjgWBQgxHnDRZerkuVArVMQQZYZjKxFGUxSl/MJoaTdiERIhTw+jqKqKGvFiS1WEX1VR1VHo0as95lteIQr2MRcO9nth7FiUqG+AgKtrxZ6bIJSTiguj6Y1Q9YXR4jdif3OGgQi503MnANEZpmxeRhNJ7OixMaaS63z4QhBP8kbw2qaYiRZYXgIBnfsT9fXQP1XAaynUxzxY93TD2BBDY+A1nCwThMpSc8JoVs8kaosbpVmhX1voCqL6raBP2zr24x1oplmJl7K5XClvw+qhZUhBceq2dwDkWx4n4FRSY5dsXiKj2f1zMY6SqoCg6s/vtRTqY/4DwKE2BWfYS0SSQ4JJMK0ekQijVY6QW2GgVQYtCubBtIYIRBitIkR92JtnOFTI0xKENcbUd7AIo5WXkFvBGQBXUBUjJJgKUxsiobw4/CqqfEtJMCHryhCVI2RcWIhPxm1oaMg7ULIQysEzq2q/nKiDLdXugiCUhXVliFaDJrI2+6/x91bXv8vNpk2bKjAQUhCEUqkJQ6QZoZ//yyPM/nAYgNjCOd78B/9JjJEgmICauAOXlpbSjBDA7A+H+fm/PMLS0lKW6JogCGuLqT2icoisLSws8Pz3/zrNCOlRVRVVVVEUpcT80RsIDr6Rp/72WTwv6Bbv3E70P0DPwy8xWWwHBUEATG6IViuytrCwwOy/BnIaoR3v2Mv1/74PVVWTBugXP/4HAJre6VpxMlsQhNIxtSEqJLK2tHDRmMjawrmcy3/x439IGp5c27zp5ge47LLLVtV/QRCMYWpDBKsTWWtoaOBNNz/A8sK5pNHZ8Y69vOn9nwFg8nM3Yf/00/zix//A89/7y1SbC+fKliuyO3fx4/doAzBfw33whcR8szcQHNyRHFj49P/8GdbgReByfJ+8gbf+yy/gQztwvPwK75AwT9jgmN4QrUZkTVEUGhoa+K3df5Zc9+ZbH6ShoSEZjgEs/WY2+f8d79ibLLNqdm5n9D2LuA8+S7pSkJZfOoPzBdCMT3D+DM7E9HnHh67AffAMzqxKBWHjYXpDpIms5dI3AooOcNQbI1VVaWhoyHpdr3lI2v9zlVkRLywS4Y34B3fxf+qT2rYrcNCA4xMt/Cdd8acbL0/+P/TNF8iWOROEjYnpDdFqRdYgZYzieki5Dcyb3v+ZZN7IWLL6Ik+93MBbdwD6t2Y7GriJxcQfZ3EePEvc42lBvXaRR/72WTwAeUOuy7OWCMJGx9SGqFwia5ASUstk8nM3ZS0zlqy+yNjpRX78oZ24pnR5nw9dwdP/82dxA7NzO74dL+GZuojn4Z/BJ2+IG66p1wh9aAeftb2UDMVcd++EL4kXJNQmpjZE5RRZy4X9008D8OIPh7Ne8RtJVk8Gn8V9XQv+wRa0uaSppDPwwkv87/e3oH4osfKpX6BMAZzF+bcNRD+RWhf6puSDhNrF1HpElUab+vGz7zyU9lbthtv+PO/UD5n0Kgjlx9QeUaXRRPdvuO3Pk8sKGSFBECpDTRsiiBujzZs3J9+qiREShLWn5g0RxBPZMopaEKpHzRqileauJC8jCOVHYhBBEKqOGCJBEKqOGKJVsrCwwIULF1hYWFj9RNlcX5wFoj579vKQO+2T1iG3/uu1Idz6z12H3MkBnWk/u49oyI3iDgFRfHY3IQRh7amZHFE5RNb0aGOQjh49yhe/+EXuueceurq6VvbWLeRGcWpjqgMo/bkKNaP0g82b+DCiw0/Ea6e5x8eeSY++MtyKk7A3yH5tkcOPqnbhVsbpUv04Qm6U8S5UvwNC7tL6KggVoGYM0WpF1vRoRmh8fJzvPvZdvvLlf+Sv//oRgJUZI4cfVfXHPaIz+7O+wBr12elhNGu51TOJmrBBKX/JgV/kboV1Rs2EZpkia5dv2ZacULt44XVDImsaS0tLjI+Pc+bMGYaG/gtbt25l/4EDPPez5xgfH2dpaWnF/Zzqb84KoZr7p9LKhNzZYZYzMEV/c/Zyuy+Ez66gKE4CBHAqStz7CjhRFAX3+Iq7Kghlo2YMEaSLrAErmsmv8frrr/PDH/6QP/4Pf0TXh+7kIx/5MI999zFef/31VeWKbN5IUkdb+0W8trQyDr+2LogrsU3QlVjpCqZtO+lx4JlUUSNebDYvEVVFDbqS5fxdK+6qIJSNmgnNIFtkzbJzF2BMZE3P5s2b+ehHP0pPTw8At99+O//8z/8MxD+TvWlTaYdV+xR0nMI5ImwuXAQITAG4CKoqfiDqs+EKTuLHjaLops+6gqh+B6GhfuiOYM2s1uFHdYA+uBOEtaamDJFeZM2ycxdPn36yJJE1jbq6uqSC44ULF5LLt2zZsqJ+pT4FHcKtDNAamSSZDor6sDfPcEj1675X7yfzy9HRGWjdA1gT+SY9ITdOgqieLDOEltwOANi8RFa0B4KwOmoqNNOLrMHqQrOyE0p4MsG4EUq+srd6mAyCU1FwhyD+mr2UHFE07vX4U2YMh59I60CivnhyW1VV1ElPtsckCGtAzRiiTJG1mfCPViyylokWlq2UkFtBcYbxRoLgTCWok4lrZxhv0EvYqaC4o/Gcjz6PFHSBzYYtEaql54isqTYyEuABZ45xRavaE0FYGTWjR/T4yZ8y8W9PFRRZ+8N3mmceWb5X9mlo449sXiKTHqzJMMtFMC2Uy13/UMsk/kKFBGGtUHNw8uTJXItXRDnrKifm6ldQdYFK0Z9LDaoR1WtL/G3zqpFi9dlcqstmpO5idQpC5agZjygTs/ZLEGqRmskRCYJgXsQQCYJQdcQQCYJQdcQQCYJQdcQQCYJQdcQQmYGQG0UpIEqmEzZz5yuUFDgrVIcIqQnmpGbmmpVbGE3PquebOfyoagi3ojAeDILTmf7paVcwe/4YxA2GJnBmoA0RUhPMSs0YonIKo+VCPwN/ZWiCZiHcyZHShYjiGwjgOpTDQOVBhNQEs1IzoVk5hdHKTcit5NSqTqFNdNWHT0P0T5GaL6YTO0v94uVFSE0wOzVjiKC8wmjLy8ssLi6mhWUQD9MWFxdZXjZu2Bx+lVF6MnI88VAtbiCaGeuOoKoJeZCoD7szgCuYMfE1QxRNKy9CaoLZqZnQDMonjAZxudivfOUrjI6OJpfdfvvtAPT09HDXXXeV9PVYq2eSeICkN0Yugup+ztiHaPFYk5rWh2b6aQuqBiesRvHZm+kXITXBxNSUISqXMJrG66+/zu5bd3PPvfdSX1ePqqp8+Sv/Y0VysSG3wniXit96hnDaGistbWHG3Xac4W6Co+DwqPEEshLIqCVA2qJErskzqeLJKClCaoKZqKnQrPe/NO0AACAASURBVJzCaJs3b+a+++5jy9YtDB0+TCwWwx/4Iqqqct999yUVHI0R5UzYRqsViM4w1daS5olYWyHcOoo66cFhTaxx+LM1iTJDs0kPVhFSE9YBNWOIyi2MVldXx6ZNm7jvvvu4fuf1fOSPPkxDQwP33XffCr5tFmWGbvZYIXomjK0187NBh2jr76FgPjsvVhFSE0xPzYRm7+u4ic8HTxcURiuVuro6Nm/ezMc+9jHuueceFEVZ2QcWo2cIt7XEhc362zikWtFyMGd8dpxj3USCbckxQCv2QtKE1PwJITUFZw4htZSOdqKLIqQmVJJcIkUijLa2RLw21eaNJP9NLFRtkPo7UQ5XUA26ShE60wmjiZCaYFJEGE0QhKpTMzkiQRDMixgiQRCqjhiiVaCqKktLS5w7d45YLFbt7gjCuqVm3pqVk+XlZWKxGNPT03zta1/j0qVLvP3tb+eOO+7g6quvpr6+HkVZ+XfSBKHWEENUAqqqcunSJX7yk5/w9a9/nXe9610cPPBp6uvrmZ+fx+fzsWvXLu644w6uueaa0l/jC0KNIneKQZaWlpicnOTTn/40L7zwAgcPfJr33fJ+6uvrAWhsbOSjH/2/+fY/fZu9e/eytLRU5R6vIXMTHO47zMRctTsirFfEIzLIiy++yMGDB7nuuuvo6vpQ0gABzM/P8/df+DvC4dQsMQnNBME4YohK5Je//CUPPvgZrrvuOu6+ey+PPfadNAO08Zhj4vAg853D9LbnKWLp5MBw55r2SthYiCEyyOuvv5729y9/+Uv+6q/+S5V6IwgbCzFEBtm2bVvxQolyH/zgB0uWAWFugsODIWYTf3bs03sg04z0HeEEAE04HBZC040cPNCJJWs9NDkOcqDTkqeNadoPHiD36sMMhpI9YN9wG2Gt3iN9nGhycPBAG+HDg8x37oMjR+LLemFkcJ7O4V7amWakb4JGh4VQ6ESO/hTbF6EWqWlDlEsILRNNGO3KK6/k/vvv5/HHH+fJJ5/MKtfc3Mx73vMebr31Vq666ipUVWVhYSE5MbYwc0w8Br3Dw/GbcXqEviMjtCVv7COwb5jh9kTZw4OQnKKauPEPDjNsSa0f2VEglMrZhQlGQhb2DR9Av1n78EEa00KzOcLAiSNh9g0P05vYNp1ZQvOdDA/3JozfCBNtB+i0FNsXoVapaUNUylyza6+9lj179nDbbbfxve99j6997WvMzs4mPaA77riDK664gtOnT3P33XczMzPD9ddfz0MPPcTv//7vFzFGFjp7LcxNHKZP55EAMB2Oex3turKdHYS0e386zAlmYbAvTdux6RdzkOljFMrlWHZgIcSRvjkceTwmPR37eslv55pw7E6stbTR3jRtbF+EmqWmDVGp1NfXs2XLFv7wD/+QW265hRMnTtDa2srVV1/Npk2bWFxc5E/+5E+4/vrr+eY3v8m3v/1tPvGJTxRPZifCMhwHGR62JP6eN96xJkcZQpt2eoeH6WWOicN99M02GTJIglAOZBzRCti0aRPbtm3j3e9+N9deey2bN29GURSWl5e5/fbb+dznPkdrayuf/OQn+fCHP1xcSH9+ntkmB72Ju34uPJ3MFdHeRsdsiMemtQVzTEycSG2btR6mR0bQ/Zmi0HifuQkmpgEsdB44iKNplvkSbKEhiu2LULOIR7QK9GOJND71qU/xqU99Km3ZZz7zmcIVte/GMTHIYF88uGrq6KAptZLegw4OD/bRF1+Lw9FBytJkrk8kukvdGUsnOx7ro+9IspJEHsdCW3sTg7pk9copti9CrSJ6RGXkwoULbN26FYDz58+n/X9FX4DNx/QIfRMb5E3TRtoXYcVIaFYhNCO0euaYOKwPtaYZOXKCpva2dXjjbqR9EcqJhGZl5vz582Wu0UJnbyOH+/rQoqa844RMz0baF6GcSGgmCELVkdBsFYgwmiCUBwnNVoAIowlCeRFDVAIijCYIlUHuFIOIMFoZEAE1IQ/iERlEhNEEoXKIISqR2hNGM4oIqAkrRwyRQUQYTRAqhxgig1RWGK2ImFhe0bTEdvvamT4SXx+fZzZC35FiomQioCaYh5o2ROYRRoP8YmKFRNMS2020c3B4GMv0CH1H+jjRsU9Xz2NMd+pufBFQE0xITRsi8wijQV4xsUKiadp2vQkvob2NDuZoTNazAwvT/GIOmBcBNcG81LQhKpWKCaMVYrWiaXpEQE0wKTKOaAWUXRitEIVE00pBBNQEEyMe0SoomzBaIQqKppVUkQioCaZFZt+XkTUTRqtFREBtQyOhWYUonzBaLSICarWGhGZlpvzCaLWICKjVGmKIyoiEX2VEpoPUFGKIVsmlS5fiv9glLr/sctEiEoQVIDmiFaDpEi0sLPD4Mz/i7rG93PJ37yPwxBHOXzjPpUuXSpziIQi1jXhEJaCqKrFYjFgsxr/+7N/4ux/9Hb849wvuecc9vOWNbyEw5WfsJ2Pc+857ueO3P0jD5gbxkATBAOIRlYDmAfWO3s3AxAC3t+xh/K5xbm+5nbdtfxsPO7z8+fsH+KdT/8SHv/QRJma+w8LCQrW7XTmiPuyKHV+02h3Jg9n7JyQRQ1QCqqqy9//bS+SXEf6y8y/Y87bbqa9LH9TY0fS7/Peu/871VzfRd7TPYIgWwp3rhon6sNt9VOI+ivrsKO5Q8YICIbeCXaxZRRFDtALu+b/u5f5/6uPPvvtnzJ1LnwfxzCvPcPfX7+ZXr79cpd4ZIOqjZ6ybiL/QbPYoPrtCQVtl9TCpTuKxlruDRli7/jn8EbrHesSzqiBiiFZAT1s33+79No1XbOeP//GP+fwT/5WXz/+Kzz/xX3F/w82et+3hSx/5UrW7mZfQUD9thzxUxX6sS6x4DrXRPyQeZKUQQ7RCrrzsSv7fd93PNz/6DV4+/zLv/+KtzP5mlm/c9XU+9PYPVaTNqM+OoiiJn1sn5xHCnVyuDyM0ryGx3u4jSpQzYRut1kL1hnArzfRPQcCZ2i6rrqgPe7IfifDS587Rj8w+JsoZDDtN0T9rK7bwmYqEyUING6Jt27Zx6tSpor+XXnqpYD3XbdvOwPs+C8Dnbhvk2q3/R2U6HPXR099GUFVRVRVV9SdkwkK4lQFaI9ryCN1jzWkhS8A5Tpeqok56sBJlZqqNFmuheh341QheG7iC2na56spkiv6Zrng9ES/0a+FMCLfihKDWxiiMBVax31Xon7WFtqkZMUQVomZf3994443V7kJpWFtoox+nEsYb0eU9QuMEmIJmhX5dcduZaFLQ0BX0p7QNo2cI21rZX6zePKTVlYUN7/7EWuseum1jqT7avESSG1rxHHLRP7CK/V7z/llptYU5EwWHxLRlp2Y9otXwzCvPFC2zGCvltb2VVtsUM1lvzWaYSv7hwK89rXsS4YNW3uYlkvQY4r/JfHds1pO9QL2mwCz9y/AkhbIihqgEFEXhr/b8FZ/41if4/BOfZzG2mLPcs688S+/X7ubmt9xssGYre7ptBJwZeR9nAFv3nniIEfXhC8XLeiYjeDXD5ejCNdWPPo8acrspnFaNP9kpVG85yepjFN+A8dDMFP2LnkE+GlU5xBCVwGWXXcYH/90H+Kd93+LXC7+m68tdPPHzJ9LKfPPUN3F9w8WH/l0XX/ijv+eyyy4zVLfVM0nQFcCZTJg6CXsjKc/G6qFlXFvXTH9bkPjbdwf+iJewM5WsHu8qFJ446HLpbua89WrGUTGcVM5PZh97oNuVWp2WVM46MNXvH8S9U1eXyPdXiJoVRlsNy8vLXLp0iSd++q/85+/+Z956XTOPnpngfdZbePHXszz8gb/Cut3Kpk2bzDm9I+rD3gOjORO6a0TIjTLQSmTSgzXkRhnvQi04rmmN0fePKL74AavSmKmNj3hEK6Curo6Ghgbe/ZbfY3zvN/mtN97AZZsuY9e1u/jG3V/nrTvemtSxNiVWD6PdYzSv2cjqKD57/rAzeiaMq6uaRqhw/0LuZsa6R8UIVRDxiFaJqqosLS1x7sI5rtxypbkNUDWJ+rA39yeT7zZ92GkGzN6/DY4YIkEQqo6EZoIgVB1TD2jUksLLy8vJvAzA4uIiy8vLKIrCpk2bcn7WRxCE9YNpDdHy8jLnzp3jyJEjLC0t8cADD6Stf+SRR6ivr+euu+6isbFRjJEgrGNMG5rFYjF+8IMfcPz4cW699dY0XR9VVbnzzjs5efIkjz766Oq+pArE5xoVGwRYABHgEoRVUXaPKPz0LMEnTnPuvG6Kw+M/B2Db5Q2893ffwrt/29g8r1OnTrFr1y5aW1uTYRlAQ0NDcvmpU6dK0IeO4rPHZ20nsXmJTLYU3TLkVnDmGgzsCqLuz7FcEATDlN0QBZ84zf6e91JfX8fycoylxQUWFy+ytLDA0qUlPh+cMWSIVFXltdde48orr0yOGNbQ/q+q6oo+ZOgKqqSPnSvuCzn8Kqo/XtatjNOl6kcvO5hUPSX3QxCEOGUPzc6dX8hphBYXL7J44XUuxYqHUbFYLDk+J1/up66ujuuuu44XX3wxKWovCML6pCI5olxGaGnhIouLFw1tH4vFOHr0KM899xwf+MAHqKvL7mZdXR0333wzi4uLfPWrXy2TIYqLa6UJZoUMCHhlzZUqJgJWipCZIGx8KmKIlhYXuHzLNq66+lqu3d6EZecu3vyW1qQhMiJAdvbsWbZs2cKWLVvyjlRuaGjgqquu4uzZsyX1L+DMZQRA06GZGjuWNACh8QCukmRVi4lslSpkJggbn4q8vl9cvMjLL82meULa/4GiI63r6+vZu3cvTz31FEePHmX//v1ZIVosFuP48eP85je/4d57783pNeUjO0ekM0aOLlzOAY5FPXisIcYDLrr8hqsuLrJVqpCZINQAlfGIMsKxUkMz7aOEW7du5cKFCznfiqmqyvz8PDfeeCN1dXVs2lQum+pgvxfGjkWJ+gYIVEL6oRQhM0GoAcpuiLZctpmlS4s5jZCqqtTVGZsQqigKV1xxBefPn8+7XlGUvOtXg3VPN4wNMTRGSlrUKMVEtlYkZCYIG5uyh2bv67iJzwdP53w7Vlen8B6DY4gAbrrpJk6cOMH8/DyNjY1pUzxeffVVnn32Wdrb28vW9yRWD4faFJxhL5GSHZW4yJa9WSFucm14vS4Yy7c+ESqWp+eCsC4x7ez75eVlXnnlFR5++GEAHnrooTRD9OCDDxKLxfj4xz/ODTfcUPYpHiG3wkBrmaQg0kS2BEHIxLSGCOIJaW3Sa319fZohisVi1NXVUV9fX8b8UIKoD3vzDIfUlSSNo/jsQ7RM6j/3kyH7KghCGqad9ArxpHUuT0c/3aPcaFM5XEF1hUlqK57RVuyKgjOxRES2BKEwpvaIBEGoDdbEI3rlTeINCMJa8Mbn1+dY/DULzcpxgFaT+L74+lmeGtvLG956Gzt/7x7zfmFDEFbIen7gmzpHVA5UVeXXL4R5/vt/w7nnpzj3/BSxhXP81ns9bN68udrdEwQBEwujlQNVVbnw2qv8bOKznI18N7n8l0+OsfD6q6iqGveWLl4sg7iasK6Zm+Bw32Em5gDmmDjcx8h0tTtVO5jaI1qtyNrF8+d4amwv555PKaHVN2zjxj1DXLr4a3598dcsL55n/scB3rx7gC1XXFPSnLU4c0wcHiRk2cdwbwUGV6YxzUjfEU5of3asRZtmZi2PvVBJTG2IViuyVr/5crZZfjtpiDZvu4433PT7/PyxQ1x2zQ0A/PqZ7wOw+NqvaOn+B8OfiE4yF2aaJppOhJnubcfY7RC/geY7hzF8/0yP0HfkBB37hhluTy07PNHIgU5LaX2uVB/Xut68xz6zDQNtWjo5MNy5yg4ZbEvIwtShWabI2uVbtpUkstbQ0MANt/05O96xl83brqPlrn/kpg96ufJNNna8814UJb779Q3bsPze/7OigZFz4Wlo76Wz4wThirny04wkjFDaxd3eWyEjtD5Ym2MvrAWm9oggXWQNKHkmv2aMLL/3MbZdc31aLugG5+eIfu1e3vT+z/DGXe9awTSROeL3goX2+Q6OTEywu70TC8RzDoPzdA73xp/Uyb/bCGvh1ZE+TjQ5OHigE0tm2EUH+7Rtp8PxcgWfsAW2Z5qRvgkaHRZCoXiJJsfBpBGbmzjMYGhWt12uPrYRPjzIfOc+OHIkvqwXRnLuo77dVJ+aHA4soVBp+570MHTtHujEkvfY6+o60seJpiaaZmeZLXVfcvQ/+SBY5bnVH3shjukNkeYJaVh27gJgJvwjIP5KP5Pt27ezffv25N8NDQ1sfuNOFEVJGqKl13/JZW+4nhtvH2L+xwG27WilrtQc0fRjhGjnoAWwtNFxZILwXCeWgtdYO73DB2lMc9/jF+qc4yDD2gU6PUJf34juhizYEQPbzxKa72R4uDdx44ww0XaATiYYCVnYN3wgrZ32rD7OEQZOHAmzb3iYXoC5idL6BNDZtqJ9T2sXChz7XMc3O1Qzsi9p66dH6DsyQlvB85Hv3E7QeHCYYUuqLyM7JHTTY+rQDFIia3MvPAvA06efZCb8ozSRtcyf3ghp6McMbb2+g3M//SHPTQxw5iv/kYX6N/DUk//C4uIizzzzDL/61a8MfRlkOnyCpva2uAdEO20ds0yH50rfyYTH06u/Ydt342gyGHIY2r4Jx+7ElW9po70psdiyAwsnOJJ8Y1SYjn1GDGOePq2479ntluPYF9uXtPWlnA8902FOMEtosI++vj76+gYJzcLcL1ZwnWxgzO8R6UTWoPTQLJP6+nqut/9HLv3OHxP5qpvLf/d+Dv7Nt1hcfJzbbnuG73znOzQ0NOD1emltbS1Q0zThEzDLIH1pYkKPMd1p8GYtShONjZTgbeXZviDt9A4P05t4Zd0324Tj4AGqHzkU6vtaHPsykgzRhHyY2iPKFFnTPKFSRdb0aJ+pbmhoYNeew5yaq2NxcRGA73znO0B8dv/jjz9euKLpMCfoYN/wMMPJ3z460D8159AefHPhaWbz1dXeRsdsiBG9S5IIPdosAO3sdkBoMMNrmR7h8MScge0LMDfBxDSAhc4DB3E0zTI/X2Sb9Apy72OiT48lj8U0E7lcrpX03dCxXz0ndJXNTYwQmu2gLWnlSju3j+n6NT0yguTW0zG1R1ROkbXs7evY+oYmOt7xe3xl7OtpXwGpr6/nPe95T8Htp8MnoGNfxtO3nbYOOBKepre3k17HNIODfYSApo4OmpLlLLS1NzGoS2j2Du9jpE//hO9g33DqKWrpPMDwjhH6EvXFi+xjuNcCWIpunxdLJzse66PviK7O9lx9bMu5bf59bKf3oIPDg330JfsTz/CUuu+ZFD327e1ZbRTdlxx0EKYvdWBSOauC+53j3KYdh0TS21APaoc1mX3f9Id3VnWuWTGOHz/O0NAQsViM+vp69u/fzy233CJz0YR1xStvsq7bSa+mDs3WiltuuQWPJ/6l1nvuuUeMkCCsMaYOzdYKRVG47bbbePOb30xLS4sYIUFYY8QQJVAUpchbMkEQKkXNhGaqqnLxwussLS1VuyuCIGSwZh5ROUSbmoBXVt8VQRBMxpoYonJl8lfy1kxVVc4+P83z3/+bpCZR07/vE2E0QTARGzo0E2E0YUNQA6Jtpk5WizBaJiKMpjE90sdEo5lnsYtoWymY2hCJMJoOEUZbX4hoW0mYOjQTYTQNEUZbb4hoW2mY2iMCEUYTYbTcwmiF978Jh8NCaLpRV3/+/S987PIJsxUSOxPRtlIxvSESYTQRRiOzXSBdICBeB8mwNW48SPtoeJ79t6yk/SJiZyLaVjKmDs1AhNFEGM1Au4k6dicLWOjs7MgolGf/V9J+EbEzEW0rHfN7RCKMJsJoZmw/r9iZiLatBFN7RCKMJsJohshqa46JiROFtlhd+4XEzkS0bUWY2iMSYTQRRjNGZltNOBwdGLuj2lfQfmZ7KbEzEW1bGWsijGbGuvSIMNoGZHqEvolGU4QdQnFMHZqtFSKMtt6ZY+KwPqSIj7tKJYwFs2Pq0GytEGG09Y6Fzt5GDvf1oQUr8hHD9YUYogQijLbOKds0CKEa1ExoJsJogmBeasIQLS8vc+G1Vzn95R5e+NEXWVpaMjRgURCEtWHDh2aqqvLrF8I8//2/4dzzU5x7forYwjkRRhMEE7GhPSIRRitCmuAWaKJbfX1rLLxVA8JfQmFM7RGJMFpGG7mmX5RxvMzcxEh8Pw4Y2Q8R/hLKh6kNkQijpdPRYSE0MkHbio1ORrsZb5rm52dpMjrBS4S/hDJi6tBMhNEyaNuNg4x5UVVChL+EcmJqjwhEGC39wW6hs9fB9GAhzZh89WSKcqULbjHSx5ETAIP0hZpoapqFdt2gwLQQUIS/hPJiekMkwmgZxkib1JhTCKtwPVnt6gS32nuH2YdOkH56hL6JMHOdFizEJ3N2dA7HjawIfwllxtShGYgwWq6wx9LZi6PpBEcyXy2tVmBNT3sbHbPTxHdnmvCJlMyECH8J5cb8HpEIo+VAC9GOMEKmEmEp9RSind2OCUbCc7SFJzjR0ZmUSRXhL6HcmNojEmG0AuJclk56HU2cOKETACuHyJi+ibZ2mH6Mx6ZJyayK8JdQAUztEYkwWuEnuaWzF8f0YEoorajIV0a7xRSwLJ10Wvo4MueI54OM7LcIfwkrQITREGG0Qpj/i6rCRsDUodlaIcJoeZibYOJEB51ihIQKY+rQbK0QYbRsphPjijr2DZsvAS1sOMQQJRBhtHTae4cZlmSKsEbUTGgmwmiCYF5qwhCJMJogmJsNH5qJMJogmJ8N7RGJMJrJEUE0IYGpPaL1IYyWMdu9w7xCYdPJGfYZlNRnEUQTyo+pDZHphdGmR+g7coKOfcOJzzST+B59o0kGAKbPfE+9CZtmpC9cZDZ7vipFEE0oP6YOzcwtjBb/mmhSJ0ejvdckRqgyiCCaUAlM7RGBiYXREpIbBws+gQuJnSW0chwWQqF4ibhoF0wcHmRaJ0o2N3GYwen2IkJfmlegCY7lEiUrNgu9mDibCKIJlcH0hsjUwmgFMSJ2NktovpPh4d7EjTXCRNsBOjs7CCVFyeYIT8/S0XkgcXMVFvpKExQrKWQx0F8RRBMqhOkNkSaMtrh4EcvOXTx9+sk0fSKjk2BzCaO9fPIor8/+L7a+rYunnvwXWt/p5MUXX+Tqq6/m2muvXd1UD81jyhIpGyQ83Ut7O0BTSl7D0kZ7UyLWadfd5ISZnu2gs52k0BeJmecaTTqhr2KCY6vpb1wQ7aBOEO0IE+E5OgtLUqZRuiBaov1S9JQKHifxisyI6Q2RaYXR2o1Kw2ZiRKQsdZO3MQ0O3c2ZN8SqlOqg1l8RRBMqh6mT1aYWRqOd3Q4IDeo/UEjirdncqkXK2nc7kqJk7doGlRT6KtZfEUQTKoipPSIzC6MBWDoPMLxjhD59CNCxj+FeC2BZkdhZqvI22kmM10lu0F6i0Fe2UFj+tguLqokgmlBJRBgNEUYThGpj6tBsrRBhNEGoLqYOzdYKEUYThOoihiiBCKMJQvWomdBMhNEEwbzUhCESYTRBMDcbPjQTYTRBMD8b2iOqmjBamuDXaphmpE8G4q0JItJWVUztEZlfGC3PTPF1TUL4TDds2bz7JSJtGwVTGyJzC6PFjRBJUbQ5Jg6PMN3eS3vZBL+MUm5hsCYcBw8QVxeZ4PDgYSa0vw33YQ3EykSkbcNg6tDM1MJoc79grsnB7uTFZqHzgAknf64WSyedHbNMhys1qXbliEjbxsHUHhGYWBjNsgPL7BEem+7MfvKliXjlE0DT3At9eNeEw2EhNN2YZ15YLrGv+QxRstzCYMZE2QzMgpub4PBgKDnhNB62GRFGK0XUzcHBAzt4rGAfRaRtQ6Hm4OTJk7kWr4jV1HXg74PqxQuvq0DWbyb8I/XA3wfVkydPZv3m5+ez6lpeXlZVVVWXlpbUma/frz4/9TX11bmI+vJz0+rM1+9XX/v1r9RYLFZaB3/yJfX+++9X77//S+pP9MtnH1UHk8t+on7p/vvV+7/0E926QfXR2dS6LyU3nlUfHbxfvX/wUXU2ua2+Hm27VNn4tvr/p+odTBVO9NVIn2bVRwd17WSu+5LWt8w6M/uQq0+F+59+HAv1MdF22nHKV3f+v9PaSztnOdbr9zWtbO5tje23oGF6j8jUwmjtvQwP98alXPv6CnwNI48AWpbcrCWhzpijCgOiaGllVyrKBsAsoWQ7unwRFjp7LcxNHKYvmc3uyHd0Su5/tmha/j6KSNvGwvSGyLTCaDosnQcY7oy73yNtw/SWcqGWwqpF0YyIssXLOXIlpxNhGY6DDA9bkiGJYcom6iYibRsNUyerTS2MNjfB4ayBJkZv9ARZAl5zTEzk+vBYrrIFxL5WKcqWl/l5Zpsc9Gqi/oXEyfL0qSxiZSLStuEwtUdkamE0Sye9jYd1Il7xZGYi92qQTKGzJhyODvJYlwJiXzmEwVYjypa3u7txTAwymKi0mDhZpcTKRKRt47GuhNEqhamE0aZH6JvI99ZMEDYmpg7N1orqCaMlBkEm/45/tLGpvU2MkFBTmDo0WyuqJ4xmobO3kcN9fWgBgIwxEWoRMUQJqiaMtubTQQTBfEhoJghC1TG1R7S8vMylS5dYXl6mrq6OhoYGIP56fXl5OfkqvqSpGYIgmA7TGqLl5WXOnTvHkSNHWFpa4oEHHkhb/8gjj1BfX89dd91FY2OjGCNBWMeYNjSLxWL84Ac/4Pjx49x6661p0q6qqnLnnXdy8uRJHn300fKKmumJ+rArdnzRylS/MqL47AqKouAOFS9dVkJuFLuP6h2OEG7FzYp225TnUtAou0e0WjEzPadOnWLXrl20trYmwzKIz6jXlp86daoE/ekoPnsz/VM2vJFJPNbM9SHcipOAzUtk0kPWahMQ9fXQ3xZEnXQY3CKxT9qfriCq3+i2qyVxvNvWsk1hPVJ2Q7Ra/dhzEQAABnBJREFUMTMNVVV57bXXuPLKK1EUJe2VuvZ/VVXZunVryX202WDsWBRPhiWK+gZSNyyA1cOk6im5/koSnZnC1qr1O36jzxxSyXmfh9wozgCuoIrqSC2z+6xMZlvhCnT2GGPYsAXGCfkdVNUUmfBcCinKHpqtVswM4mGZqqosLS3lzf3U1dVx3XXX8eKLL6KqatoUjWK0dXdD/1CGix/l2Bh4vS7D9ZibEO6EEUozUg7/2hghIHpsDLpHOeQKML7WYaSwrqhIjmi1YmaxWIyjR4/y3HPP8YEPfCCnjnRdXR0333wzi4uLfPWrXy3JENHi4ZArwIA+YRAaop9u9rToykV92NNyEiHcCe9MURTsvihazsYdSqxL5lDSyyoZuY2oz55nXf7tQm4FZwCm+psT65rpn4KAU8nO3YTGCdi87C/ohhTuY9Z6Z6Dg9va0BEzcsHfvseLochEY0PcvhFux4/O5c28b9WHX1ZudC4sf87RtdPmrnMc241zmP/5CNaiIIdI8oauuvhYAy85dvPktrUlDdOrUqazfSy+9lFbH2bNn2bJlC1u2bMk70rmhoYGrrrqKs2fPltxHR5eLqaRXFMU3EMB1qFBeKJ5rCXsjqKqKqqppnkXAOU6XqqJOerDmKKsGwam7KXr62whq61R/ImwpvJ3DrxJ0gS25PoLXRjz0KjmnVaSPifUE1eT6oCtz+wFaI2qyL91jzSmjoRl2K+DowjU1xrE0SzlF/0xXfNuIF/p7EonkKL4hGE32yUXAmWkorHgOuZgaO5Y0bqHxxPnLe2x1GCkjrCkVMUSamNncC88C8PTpJ5MSHhAXM8v8bd++Pbl9fX09e/fu5ZprruHo0aM534rFYjGOHz/Ob37zG+69994Sv74BOPbjtSW8otAQ/RTxHhIexmiesMYV1F3Mucom2hsPAdYW2gjgzHyLU2y7clKsrRwelaPLlb49U/Q3K2neWfhMwh8cD2Dr3pMwjg66XFOMpVkiG16tcuseum3acisevwc0jyXLC0t2RmfcQowHXHQ5yH9s9RgpI6wplfGIVilmVl9fj6IobN26lQsXLuR8K6aqKvPz89x4443U1dWVJnwP6J+qvrSbppLYiOeZHfhVFVUdhR4FpegNoW1XAjm9kFL6aKSol4ia8phSXmKI8bQQUgspM/NyOUiEZT2MJr0lW86CDvZ74y8dor4BAq6uxIPAyLEt9fgLlabshqhcYmaKonDFFVdw/vz5vOsVRcm73hCOLlxT/fQHXBwqlsBNlB1K3kkhfPmu3kTZnlw5KCsQ9eELAVjxTEbw2qaYiRrYrhhpY2XiN2p/c6bX5Y7nVoq1lbW/8fA1//GAkDsRQoXGCeDShT4qqhrEhQHPLjrDlM5Tix4bYypPUeuebhgbYmiMlHeV79hmHKeiZYQ1peyv78spZnbTTTdx4sQJ5ufnaWxsTJvi8eqrr/Lss8/S3r4aYVAH+702AjNdBnIEDvwRL/ZmhbgpdRFU/ZBzeJ8DvxrErTSj9GvLXATVRB7H6qFlSEFxaquCidfrRbbLwsqebhv9TiU+9mk0Y61nErXFjdKskKouiOq3AtYibTnwB10oTiUxpMEWf6M4lu94xHNVfuJhGa5gxjF10OUC53go91CDZLH9eAeaaU50yuZy5fGIAKuHQ20KzrCXiDW1LOexjaZvl/v4C9XCtMJoy8vLvPLKKzz88MMAPPTQQ2mG6MEHHyQWi/Hxj3+cG264QaZ41Cght8JAa2TNhiQIlcG0hgjiCWlt0mt9fX2aIYrFYtTV1VFfX7+C/JCwIYj6sDfPcEjeeq17TH0H19fX5/R09NM9hNpEG1PlCqpihDYApjZEgpAPh19F9Ve7F0K5MO3se0EQagdTe0QijCYItYFpDZEIowlC7WDa0MwUwmi1Qi2JhqXt6yqE1taCGjovNSaMBplCYVkyGaZCE3LTLTKxaFtxqinSVgnW07VkbsruEWnCaIMfc/CX99zGZ3v/gE93v5M/7fod7tndzMS/PWWonsoIo2XOKI/QOrDSJ6Im/7GijUvCpZ8B39ZP86obzei71cOkmkuxsoyE3CgZs/nVrvEM6ZA1oGz7Ws5rKQ9rcV5MQtk9olzCaC+/NJuc+FqqMNrll1+es4wmjBaJRJLCaEXzRNEzhG1eRpNPLSueyfX1DtjR5YLxaveiVAqItK1XD2IDXEtm4v8H24d8Z3XS0qAAAAAASUVORK5CYII=;" vertex="1" parent="Hab7gQNjuxkPKOEClwCh-17">
          <mxGeometry x="7.910000000000082" y="50" width="260.47" height="300" as="geometry" />
        </mxCell>
        <mxCell id="Hab7gQNjuxkPKOEClwCh-14" value="" style="shape=image;verticalLabelPosition=bottom;labelBackgroundColor=#ffffff;verticalAlign=top;aspect=fixed;imageAspect=0;image=data:image/png,iVBORw0KGgoAAAANSUhEUgAAAT4AAAEVCAYAAAB5U4nFAAAgAElEQVR4nO3df2xbVZrw8e99xVSqBqbATCtU0bgZcLYkIvnHllhmWJqF3QW70TApaNKKd6eLLxJoq5WwtQqrUWRZedFMpNcezYoVSNhMZxclQbTRoNSmOwvjdDrM8Cr+J52J2/WlmzpFaFR2KYUZVaqQ7vvHvbavHf+4jh0n8X0+kiVyj8/18SV98pxz7j1H0XVdBzh16hSHDx9ms2z25wshnON/bXYDhBCi0yTwCSEcp0bgS6EqCoo3hlY8phHzKiiKl5hWvZYQQmwHkvEJIRyntcCXUlEUpfhSU8UCI2M0X95CiqjF8CoKipoipSooikqq1rmFEGKDrD/waTG8/kSVghSq4sdakgn1WYIisBQmXK2qEEJ0QAuBL0sG8ERz6LqOruvEfUBqzgh6gaRxPBfFAyxdtAwMZuBITkfX4/haa78QQjRt/YHPN0oAI5tTLBMh2sUlozzhN473hcgAmawl8AUiBN2tNFsIIdavfuDLhJgqdFG1eWYyAEMccAP4iOs6ejJQfG+fpT9rzQR1XUePS24nhNgaagQ+H+NRDwAJv1KWuXmi40b3tDCxUTHO5w5GyjNBRSYxhBBbS82Mzx1cpJDMFQWSLNbqo3qi5OI+wEfcHNcTQoitSJFndYUQTiM3MAshHEcCnxDCcSTwCSEcRwKfEMJxbtnsBlidOnVqs5sghHCALRX4ZFZXCNEJW6arK0FPCNEpVTO+yR/9pNPtEEKIjqnZ1Z148budbIcQQnTMlunqCiFEp0jgE0I4TmcD39U43sh49ZVa6pU1IXXShRIxXupyiydrh6txvGvakkZtw3cVQqxPRwOfln0bHn6u6qrL9cqqsQY4JTJC7Kpx3PdkHj28QHRPu1pdn7YwgndhpTMftmFWiL3S5B+L5XGUV+KWXfiMc2yJPzZCNNDB+/jSTJ2FI8/3NllWaYXYKwcJ7T6BHh5udyPbb4/KYljd7FbUkUaNxOh/foHoqYNkN7s5QnRA5wLf8hkSA0H0aplYvbJKV99j5uoYyeebD3qpky78lowk8GSe+EDhvHG8r0ySMX/0PLzA4sHexmU2P6/sswqWx1FOzq45Z+qki7lvTLB0tvCZYyTDU/gafIda9dwLI/Rd+A6551WM1RSNPx4z9y2weHCYeHjYONbwGzWhietp5zvI+t2inToU+FaI/SpL9PBUk2Vradm3yez5DuvZssP3ZB79SfOHq3G8r4yTGjADyq8mGXoyz2JlcGpQ1vjzjCCzNpOaxX/hBHp4ymzLPxDrnydoBv/EBciF87gxg8HyFL6B+t+hVr34wSCBszHmr6rG+c0/HhFbGfb61L5madRXNCLhvNnmNGpkhNjuxt9diHbpTOBbfpUQ3yFXNdurU9b2dpQyLMNY8b/c3xgkcdJF4sIJ9CfLs8l6Zes3RrJwrj2PcGTPJNlPAPM6BP5CLQZ335P5UsZT5zvUrjfM6MAxwtkVgnt6zfHUf97QLKrmNbt6iSVmSUSs32GQaMPvIET7dGRyI3VhtuyX2W5ZNe7d/XBVswyq25VGPZkl+nwePZxHf36ibHl898F54/h9Z4wJk5NpW2WdVf871OP7iwm48B4aaabO9hOx0VVvRc1r9olGZs8EubD5HcJ59HAp2xOiEzY+8F2NE/5kgvFqXZV6ZbUMPEd0zyz+ZoPP1UssWX5M/ao0xlR+/ikjoCyfWXu7Sb2yViy/SujqGKONroPd71DNHpXI7reZXzhDYuCx5rKo5fG1M7673Xiuvs381ULbjO7zmu9Qec0GHiNwdZIpmf0Vm2jDu7qpX03CfQvVs706ZbX1Enz+BNnIMZTiP55Bos/PE9xjzvgW/jGedJE4WRg8V4kMTOJ/xUUI8Dw8QaCYN1bUw6jja1hmyJw9iHK2vDw+UK8tALP4i909o/0Ng9Geet+hMd99/fhPzhJ40jqemkaNHKO4V96adoL2SZW53j0q0w+/TZ/ZlvLvUO+aDRN/fgLvKy6Uk4VzTVgmXoTYeFU3G5r80U/a86zu1TjeVzQi1Wbl6pWJjbE8jvIrtwQZ4Xgbm/HtUVkMr6NMbIA06slZAk/mJegJx9tSC5GKjVG498/z8ELTt+QI0Y0k8DlA2b1/QghZnUUI4TwS+IQQjrO1A595/9hmr36SUl0oivFS23kDnxbH2+5zCiEa2tqBr4Oswc14ldbL88Xz6PoCUbuPSQBabKTifMbLG9vuS1gJsf1t7cmNgSn0AXuLF7RDIJkn3qabCt3BefQgQBpVOcOoXuV+RbfKor6Vl6wSojttbMZnrj5c7KpWPvpk/lx8FR9DKy2MuaarW1jR+OR4lXpVzrmBz9ZqsREUb8VinF57WV3d7nNqvHamaHaPq9VNqS7UmLW8YpVn87zStRZOt4ldXeOGWgZOlB5WL67i0Uvw+foP4SeWIRnOk3t4EJZj5grMxjk9Dy+gF8qsq6A0kPBbgk1ZQKvOHQwSyLzNfOGN2nvMZMaIBBsvAFC7+5xG9WeJ5vLoeh49OQaeCaaDvUZZn0ZEN8v0E+AfIWZpaGIGps3yZGCWOQlyQqyxiYFvP/17gOVj69ofw2MuU+/e3Q+cN5Z0alEgWQgoefRFO491DTMaOM/MvJGNafNvQ9T+8vlN04wlnfzFjM7yjK0pELEs6RSv6Lr7ptD19nXnhdiuNjHwmVld+AQBIHHShdLyBjzDjA6YiwZEXPSdPU/gyY19Ftg3PgEz5nJPoX5b2V59RjAN9ZnBzZ8lOm0GM00j45kgp1sCtD5PUJ5BE6IpHQx8K8R+NVvl+DDxcJ7kAECWi1ervMWuq3HCy4Ol9erCVZZ7bze3SmTobeZjZ0gEmlzuqRotTnjJGtwsgc33GIHMJFPr/etgjvHJzLJwuo0NfHtUIsUM7CDZ+6xjdmlUywSEfxkCTxYWpDTLzH0ZChlcw+7wHpXIwHlCr1gnN1rNIo0JC0U5SChTGge0ThD4RvsJhWYJjNpdnbnOOd0qkaFJ+qreWjNMPDfBUpNjkUVuNx4gk71s/+sL0YU2dlmqTlseRzmZNdfmg+JacwPtXDK+itQ4SthNzta4oI1z+SFpuf0lpboI9y+w2HI3eoWY9yAzR9pxLiG2r666gXnNgpnmisWeb+zfwE9No/pnyyYV2n3+uQQMHWgtUBk3VEvQEwK2+g3MTXIf/GeiFw4SKq4KbH8ryPVIqS78CfBEF1hs1wyK7zminoP4ldJ4aDvOX7qhWgjRVYGvMFPcqX/fvngePd7us/YSXOzcdxDCibqqqyuEEHZI4BNCOI4EPiGE40jgE0I4jgQ+IYTjSOATQjiOBD4hhONI4BNCOI4EPiGE40jgE0I4jgQ+IYTjSOATQjiOBD4hhONI4BNCOI4EPiGE40jgE0I4jgQ+IYTjdCDwFXYUW7s7mdgGzC0pm97RTYgtrEMZ3yDRnLFPbLxy74hfn0MZfgPv9GdNnO8zYs++gfrr5luS+uEbKMOF12li+ebPYd/627llPs83Zezvm7NuDSrE9rbpe26kzl0nOjnIzM9W0Y7evkE7lYERFE4T+uZD6GnXhn2KEGLr2+Qxvjxz/9XDyLd7OMIq8/nScXX4XGkj8Px5vObP2vRplOHThD6ExESVzC1/Hu9wKasrZj/5VWY+dJH8pxpBr1Y9sy2x6dPFsrLstKJeoaxRO1M/fAN12lq38H1rf/eC8qy1xetSty1CdKfNzfh+vcrS8P24uZ2RYTj6/mcEXbfXreI+egj9qJG9Zb//NPFvWwrz5/EeW+XIiadZdBV+Pk3sxCFG3l8lc29P9YyyTr2gCyBPKG9mir8+hzLxO1JHH8IHpKbPMzT5NIvfLj9l3XaaEmnIpZ/GjRF85n79EL4q77NK/fAN/FTJWtd5XYKu9bdFiO1qEzO+z4j9LM9QjxHo3N/qgfRqS4Pn2vurZP76/uI/ZlyDRP76M7JXWq1nyRT37Sob63K7bjcyrB82P1gY+P5gMRD7/ql6cCyXZ+4XtxM92lxX3c51ab4tQmxfm5fx5VeZ+RAyE2+QKB68nfn8YOkfaBu5e3bBh9fRoK3jiEZmhzlJcw7++iH0Wt1pIcSWsGkZn5GFPISefrr4yj0LM+8Xxs+uczEP8Bmx/3OeTFnt2znwTVhaLZ8Jdn+rB88vflc2rhX+xe307wO+fT/Re/P4q2RmdevZ9e2H0E8M4vnFqmV8rHo7G6v13XfRf+9nhKZrZZfruC5CONAmZXyfMZ/+jMD3yzMjd88uMub42fizv6Pv2BuEAM+zgwQ+vF72Xt/RQcLHTqO8BnA70ROHCLoGWZy8jmLWKx03/jv42kNkh8+h/OKceRY79ep/j9izxoRCQWDyaax37FRvZ71zuup899sJvnYInj1tZJfm+5Pph4qf2fx1EcJ5FF3XdYBTp05x+PBhACZ/9BMmXvxumz5ihZj3H2B6nuDG3asiNpoWx3sUphfVDbzlSIjOkEfWhBCO06HAd55Qnzyyti0VHlnrm6wYZxVi++rAGF8vwcU8wY3/ILERfFPo+tRmt0KItpKurhDCcSTwCSEcZ2sGPu0OvEoP3tiOKoU7iHl7UBTjVfU9qd21y9pNdYFivmT8UohtYWsGvrpuElxcRc99sTWWSYrnQV9g0xvz63Moz563PPLX6SWxhNg+Nn1Zqg3h+wTj7kQhhFhrYzM+s8uqqruLXVNFvbWsrNgdNbunZbe7ZHfhraxXV6NucHm5ouwlZndVBGuXVhlfR52KrrAWLy+LrdgrW68ay2dVK5Mlq0S360hXN5GApL6KnrwBiTtt38uXSUCkqXr1usE7iHnvIpS5YbRFX0XXP7b3NInqAk6AnjdfNm/viOdLdXIT4LcEzKlJSFrKg732ytapsHxW4bnoxaOF5b/yqMeuEyk+M/0QTJSvTJ1Iw7RZnvzrPHPSfRbbXEcCnyd63XiW1HeDALB00d6kw3rrVaV9lZmM5Zy2pSExCOPDzX9maryUtfVNlpf1D4LfBWp6bb16ZetUc/ms/HWWyOO3ZHSJirqyZJXoNp2d3NC+wlIn622qNPizkLNkfFbBeeP46BkjMFqDXL2ydXIfPWRkdA+tGgGuEACvXCdz7yA5yyo5eloWMBDdraOBT5vfSYYvOTJys6JkB7HwznXUa4L7TxzxQCa0q8kxqv3gOQ9TTQYf7VL5z1OT1d/nmzKCYuJMc2WV9u3C86Fl+X5zqf3Ryuyscvmsb/cQ+PA8U9J9FQ7SkVndTOguFGM9JALJVXNc7RqRwG34zbJA9As8mdsa19PuwNt3W+m50UL95Cpx362oyp2lrlpZ2U2Ci5+SVe7Er/SYb/iSaK7ROF8vLC6A9yAohWNj5jjfinG80Bi/mSYl8+BTITAJfeax6AQUbzapqFeo07CsDtcg08+uFpezKiw9ZXTr6y2f5SJ+4jreY2+Uvt69g+ReG5RVWETX2thlqcwgRfQPLAZbyNaEEKKNtuENzEII0RoJfEIIx9nYMT73NRb1axv6EUII0SzJ+IQQjmMr44tEfmr7hOHw3627MUII0Qm2u7rhcLjheyKRSM2ylOrCnwACJ9Dj63gKQggh2qQzq7NoccKJMZL6VJOPiwkhRPt1ZoxP08h43HJDrBBiS5DJDSGE4zTV1VUUpWaZ3mjlz6F7JOMTQmwJTWV8uq7XfFWXRlVcKHOPyYSGEGLL2OCu7jBxPU+uP4bSxrXlhBCiFR0Z43Mf6IelS9hd5V0IITaSTG4IIRzH9uRGvZuThRBiO7EV+Ko9hhaJ/NT+42luN56MhgYysyuE2HSd6eq6VaajWfyKSyY5hBCbrmMbiruD8+jBTn2aEELUJpMbQgjHkcAnhHAcCXxWqd0oSg/eWAsbl293K2+RHIhyucXTXP7B40wPGK9zW31YV4sb+xc3t++o2MYk8G2oHcS8PSjqrZvdkI7b/9I7HF1+jYH7OvWJK+CV4CXs6djkxrbg+4RGay2ILuRWQVc3uxWig7or49PuwKv0oKpGl1VRrNmWkX15YzvQYnvN8t1mgmBmZmadUle3cHy3JZEwj3nvQKuoZ62bUntQlLsIZYDEnWb5XmJaeVvXfmZ9l3/wOOcSb5EcKHQlLd3SFevx8i6mteu5pvtprXfoda5To6ys3gecG4iylDheLEsmPmrY/muJ40w/+RalLag+YulJe3WLXdLCK7ZiHI+NgGJuwu4vlI+U9m9XXRCz1h0vnVO1nK8sW0wb74uNrP08gNR4eVsqy2tIqS7U1AoxrwtFcaEoI6XfCbPcOG6+1DRocbzeODGzTI3F8SouFG+8+BXL642Xf5XUuFFPsuGi7gp8pkQCkvoqevIGJO4s/x+e3cUU/42e+wIPOwnHdgA3CS6umsesbhKM3AB2Mlc4h/ZVZjIQiFzDXainG69c9EsyoW8Q08AXX0XX/0DUAwQ+Nd/zMUE3wK2o5kbrutnOTOgu27+YV96BB5ff4ejyOzz4xLtcSQN8wLlDqwyYx48uh+H4cZbMf4tG19N8nX6Gz48XAuYHnDv0Ol97uVS2q/BBK2+RPHSWu09b65XOCe+y/F9PG2UvP8r12JsNxwbvCDzNvgtnWS2cY+W3fHThUQYCdzf+4lOTkMyDbr6Cvcbx4DzoC+DBUj5ffrf8DKV6gdlSkIvnS3XXmIVs0KiTHIPQq+bxNPizkMuXyjwTpfbUtMLFJUj4D5KN5NH1PMnAebKaURbzuvBzAl0vlEFgdNhYyDczyUz/AskAJEIakdxEsckp1cXcaN5Sb7b0+yqq6squrid63Vji3neDADtZuriDwpr3mQRE9JvATXtbX/quE/XsJDR3K3HfH9Hmd5LxfMG0eT4ttpe+kPUyftn4nKmdJABCd6GESoeNdt5sWH3f3z/FHeZ/73/pHfYDrFzhc97lNwPv8pviO+9hoPCf6SjTx9+1nOVR8/j7XLnvGR6vsmrYtV+e5foTT+Mv/HvufYqBJ17nymWg1zjHgy89YDakh12sNmw7PMC+JyIs//IjhgJ3c+2XZyH4ovEdGukfNDK6wAlodpmziKUrG8/brDRW+hy3G9q0zIYnukDcB0YgHKR/HNDeYyYzRnKx8L3SzCUKZYBngukgzHshkJzCp43jH3oMtxbnaAIyCZfxOwXGvjbWPR58U+j6VFva3i26MuMr0r7CUuWxwI0m9/24yciRLyGxkxQ7mJ+5Bc+RPxnJRGo3faFb8JiZWy5qI+hZm5IsZYu6vspisHHQq+nyKtfve4bHly2Z3fLLDPUCfMC54ysMnK6S1W2C/eoz8M5vucYH/D7Way/bAzOzy8PoGaNruWlPAQ1D4Dz0mV1cfxambYwRmsEtUswML5PN9HPADdr822QCj5V+N1NnSGCUpeZm8Rx5BDeXyWbGGPWZx/r3G9lgoJQl6npe1r60oasDnza/kwxfcmSkhYACuIOfE2Anc7GvMpO5QaQiQA0duAlmUKxq6SvluYL7SzxAYq6Ns73D32Lfhdf5fbVYsHKFzy0/Xo5bxvH297Cr2PX8iKV/LJXd8ZcPs+vnb5S6titvsfzze/iarfSsjt6nGPizs6wm3ufKE9+yl+1Z+aYgNwGJM9aTwhBwsfE4W8u0OCxNlLrOld3qmvUq9p5JnSFh/bmwdFtqHMU/Cx43bjMrPDLSa7w/8Bg+6zGAxJn6k9nmGJ/XxhikU3Rl4MuE7kJReugL3UIgWRhXq+dWVKUHpe82Mpb6pTG3PzIagEToNjLWjNF3nagHEn5jIiN7pMYYYeY2+qyTG+5rLOa+wFOc9KiY+FiXB3jo9DN8ftwyiVGYROh9ioEnLrF8yDi+/M1n2Feo1vsUDwYxy57l878Pl5X5X+4t1ps+dJa7TxeyyHqMCYvpgWdZvgBXjq+dUNn/aC/LsXfZ9+gDNr+febtKYSKhbxKSFd238QkIHVw7udHwnBUTI43Gx9wqDE1WTG6MN6gE2sVs2RYM1p/dwSCBzCR9igsl7CaXHDPLLFnhxayR5VmO4ZsiGZg1noM3X2sCnNuNB8hkW707s3sourlu/KlTpzh8+DAAkz/6CRMvfrduxaZWZ+kU7Q685qRBS91GsfHSUab/pYfHT5bGK7eN1Dj4Aeu4meqC/gUbExybYYWY9yAzRxZY3JLt67yuzPjEVvcB546/WzZJs72lIQEc2HpBRYuNoCgS9Cp15ayu2Lou/+BxfvNz2BV8Df92HYP3PQeeg6DMlo5FF2hy1qwjZFWk6ror8Lmv2btFRWya/S+9w/6XNrsVreqFRbu3xIitSLq6QgjHkcAnhHAcCXxCCMeRwCeEcBwJfEIIx5HAJ4RwHAl8QgjHkcAnhHAcCXxCCMeRwCeEcBwJfEIIx5HAJ4RwHAl8QgjHkcAnhHAcCXxCCMeRwCeEcBwJfEIIx5HAZ5XajaL04I3t2OyWbJ6Vt0gORGl1P67LPyjt9nZus7a/tUuL29tdTXQNCXwbagcxbw+K2sb9c7eJ/S+9w9Hl1xi4r1OfaG4VKcFL2NBde260yvcJxmabwlHcKujqZrdCdFB3ZXzaHXiVHlR1d2mj7mK2ZWRf3tgOtNhes3y3mSCYmZlZp9TVLRzfbUkkzGPeO9Aq6lnrplRjk/FQBihuHG7ZNNxs69rPrO/yDx7nXOItkoVNw63d0hXr8fIuprXruab7aa136HWuU6OsrN4HnBuIspQ4XixLJj5q2P5rieOljc6BwubjduoWu6SFV2Hj7NjI2k3BrRuKqy6Ixatv/q1azleWLaaN98VG1n4eGHvrlm0oXlFeR0otbf6tKC4UNb2OsvHy5qbGURQXqmS8tnRX4DMlEpDUV9GTNyBxZ/kvQ3YXU/w3eu4LPOwkHNsB3CS4uGoes7pJMHID2Mlc4RzaV5nJQCByDXehnm68ctEvyYS+QUwDX3wVXf8DUQ8Q+NR8z8cE3QC3opobn+tmOzOhu2z/0l55Bx5cfoejy+/w4BPvciUN8AHnDq0yYB4/uhyG48dZMv8tGl1P83X6GT4/XgiYH3Du0Ot87eVS2a7CB628RfLQWe4+ba1XOie8y/J/PW2Uvfwo12NvNhwbvCPwNPsunGW1cI6V3/LRhUcZCNzd+ItPTUIyD7r5KuwTG5wHfQE8WMrnwW2pO0OpXmC2FOTi+VLdNWYhGzTqJMcg9Kp5PA3+LOTypTLPhI3NxFeIeV34OYGu59H1PMkABEaHG5QZQW9uNG8pmy39ToqmdWVX1xO9bmxx6rtBgJ0sXdxR3PM0k4CIfhO4aW8rSt91op6dhOZuJe77I9r8TjKeL5g2z6fF9tIXsl7GLxufM7WTBEDoLpRQ6bDRzpsNq1s34t7/0jvsB1i5wue8y28G3uU3xXfew0DhP9NRpo+/aznLo+bx97ly3zM8XmWP22u/PMv1J57GX/j33PsUA0+8zpXLQK9xjgdfesBsSA+7WG3YdniAfU9EWP7lRwwF7ubaL89C8EXjOzTSP2hkdIETEG9yU96IpSsbt7s15Fjpc9xuSinkOmnvMZMZI7lYaHuaucQg/eONyuKEE5BJuIzfG4DACXTrPr6+KXR9qrX2OUhXZnxF2ldYqjwWuNHkvs83GTnyJSR2kmIH8zO34DnyJyOZSO2mL3QLHjNzy0VtBD1rU5KlbFHXV1kMNg56NV1e5fp9z/D4siWzW36ZoV6ADzh3fIWB01Wyuk2wX30G3vkt1/iA38d67WV7YGZ2eRg9Y3Qt1c2aLh6GwHnoM7u4/ixMNx4j1ObfJhN4rPT7lzpDgn4OuOuXoWlkAqVMUNfz6M0GflGmqwOfNr+TDF9yZKSFgAK4g58TYCdzsa8yk7lBpCJADR24CWZQrGrpK+W5gvtLPEBiro2zvcPfYt+F1/l9tViwcoXPLT9ejlvG8fb3sKvY9fyIpX8sld3xlw+z6+dvlLq2K2+x/PN7+Jqt9KyO3qcY+LOzrCbe58oT37KX7Vn5piA3AYkz1pPCEHDR3jhbS7Q4LE2Uus6V3ep6li4ZvwupcRT/LHjcpar1yhJn6k9Ym2N8XpvjjE7XlYEvE7oLRemhL3QLgWRhXK2eW1GVHpS+28hY6pfG3P7IaAASodvIWDNG33WiHkj4jYmM7JEaY4SZ2+izTm64r7GY+wJPcdKjYuJjXR7godPP8PlxyyRGYRKh9ykGnrjE8iHj+PI3n2FfoVrvUzwYxCx7ls//PlxW5n+5t1hv+tBZ7j5dyCLrMSYspgeeZfkCXDm+dkJl/6O9LMfeZd+jD9j8fubtKoWJhL5JSFZ07cYnIHRw7eRGw3NWTIw0GjtzqzA0WTG5Md6gEriDQQKZSfoUF0rYTS45BkP34K4s80M0OojnyCNG4PNNkQzM4rdMeqwJcG43HiCTbfUOTGdQdN24gePUqVMcPnwYgMkf/YSJF79bt2Ik8lPC4b/b+BY2Q7sDrzlp0FK3UWy8dJTpf+nh8ZOl8cptIzUOfsA6pqa6oH/BxgSHHSvEvAfJRvLEbY/LGHVmjiyw2JY2dLeuzPjEVvcB546/WzZJs72lIQEcWH/ASakjpYw/9SqhzBijNoOeFhtBUSToNaMrZ3XF1nX5B4/zm5/DruBr+Lfr+LzvOfAcBGW2dCy6QJOzZuWnHO3H3+fCmOQfJJqbt306d3AePbj+z3ai7gp87mv2blERm2b/S++w/6XNbkWremHR7i0xNsntKB0lXV0hhONI4BNCOI4EPiGE40jgE0I4jgQ+IYTjSOATQjjOtrid5dN9j2x2E4QQW9CdV95bV71tEfhg/V9QCNGdWkmIpKsrhHAcCXxCCMeRwCeEcBwJfEIIx5HAJ4RwHAl8QgjHkcAnhHAcCXxCCMeRwCeEcBwJfGBsUqT04I3tqFK4g5i3p7gbWtX3pHbXLttmUqrLsrvcBtLi9nY0E63b7tdai+P1xlvdzr2MBL6GbhJcXEXPVW4duTEuvfJv7N37b7xyqXAkxwt7f8zfvPI/G/7ZWmwEPyea2tkL7zb+B7WtOPhau7FFm6cAAA13SURBVFUiQ5P0tXED+W3zrO6W5vsEY5PObUyLczTUT1Lv0A5AbhV0tTOf5XRdcK198RMElBix8WEb+2Q31l0Zn9llVdXdpY261VvLyordUbN7Wtaty+7CW1mvrkbd4PLy1jcNB/4jxd69Py69XsiVyi59wN9YykpZ4v/wyt8YPxsZ5Y/ZuzfFf1hOm5qahOhza3f2KnSTCq/CRtaxkbUbcVs38VZdEItX33BbtZyvLINJG++Ljaz9PDD2sy3bxLuivKo0qjJOLDZSdTPulFrapFtRSt18LTaCNxZHVVwo3jgxtbwcLY63Sr2WbPtrXft6Fs5pLSv7f9Hweg4zHoXQVHuyvu4KfKZEApL6KnryBiTutP1LmUlApKl69brBO4h57yKUuWG0RV9F1z9u8a9Vjhe+/5/wPT8ff/yC8fpxX6nsod/CxN8ax3/2Z/xu8l95wRrdcv+Pl/Hx8bk/537+k/9bDIxp5hKDHBmpsifr1CQk86Cbr8K+rcF50BfAg6V8Hqzfb4ZSvcBs6R9ePF+qu8YsZINGneQYhF4tthF/FnL5UplnwuYG3rOEskF0PY+eHCMTerXYFF88bxzX8+i5CZb848WyTEhjVD9BIDPJTP8CueggSxdXgDRqn0akUE8/Af6R1v+odcG1rn0906j+LNFcvvj/Ac8E08Fe7F5P98h38CTOtKW335WBzxO9bmQuvhsEgKWL9iYd1luvKu2rzGQs52yLr9N3P/Bmkr17f1we1P7jQ94Efjf5r0ZG9/3/BCD7YWls8Hdvgu/5r8M9D/DvH7/Avz//dcsJ+jlQLSj3DxpZxnrGVyKW7lU8b3Pf2TGIm91tdxv6NOY5k5ZzlsUAaxbSN0nGWhZ4zGxyxR8F7RJLzOIvZijHSLSjmd1wretdz1rsXk/3PQyR5WIbZjm6MvAVaV9hqZP1NtzXef7fX+Djj/18D3jz+2u7rN/72QulbLAyuH3vXv6q2Y8Mzht/9UfPGN2dNg4wN2cYAuehz+x2+bMw3eq4VUUWkpuwN4GlaWQ8E+R0S3ajz7c+9rTtr3W96znMaOA8oT4zuPmzRKdVI2ndqOtZR1cHPm1+Jxm+5MjIzYqSHcTCO9dRrwnuP3HEA5nQrqZS83vu/Trw3/z8F2amZmZy/fdas7M+fvzxC/zsewD/w4eXgG/eyf3Am6kc69PgL6lvCnITkDhjOdgLQ8DFxmM/LdPisDRR6s5VdvXWdc5LZX/gUlM2MxTfYwQyk0zV+x9rZj7rGvvbrte63vXU4oSXrMHNEtjsXM/i+Wv0TJrUlYEvE7oLRemhL3QLgaQ5rua+RiRQKLuL7JG143JV65mTIkrfbWQs7zF+oW9FrVl2k+DipwTYib+ZyY2/8nFu4htlXdb7J/6WH/8VFG5tKUxefP9N+N7P/jfP34PRfT3359xvdoONl/W2mHqMv8Yz85X/qMxbKAqD232TkJwqf8v4BIQOrh1wr6lwzorB+ka/9G4VhiYrBtzHG1RqfM6IJQsJ908QsFVxmHhugiW/ZaC+8j4zs0udmLObtXXBta53PQu3pJRNbhTG/2xcT0Cbf5tMcfihNYquGzdinDp1isOHDwMw+aOfMPHid+tWjER+Sjj8d21oQmOf7nvE3tLz2h14+26D6B9YDLaQrTmRFsfbpxHRp9o4JtlGqXHwA7olGKgu6F+wOcHRaWlU5Rgk803cF7lFbMS1To2j+CFp+f1KqS7C/Qss2jpnGlWJ0Z8rZYq240IVXZnxiXVwq0xHs/g3bVypWWlIAAe2XtDTYiMoyjGWogvbL+hVtRHXOs1cAoZsnjOlHiMRCLZt3E9uYBZF7uA8SdWFmtqCWYrvOfAcBGW2dCy6YHP2srPcwXn04Ga3ogUbca19zxH1HMRvOacnusCinXOmxvFzAj3evpvruyvwua+xqF/b7FZsa754fivGEqAXFvOb3QiH2Ihr3UtwMc+6/h74ptDb/EspXV0hhOPYyvgikZ/aPt6pCQ8hhFgv213dcDjc8D2RSKSlxrRTSnXhTwCB9o4NCCG2v+4a4yvQ4oQTY2VT50IIUdCdY3yaRsbjbvnGfiFEd+rOwCeEEHU01dVVFKVmmb7VVuIcukcyPiFEVU1lfLqu13xtDWlj4ci5x2RCQwhRU5d1dYeJ63ly/TGUbfPolRCi07os8BncB/ph6VJbd2USQnSPrgx8QghRj+3Jja10c7IQQrTCVuCr9hhaJ9fja5rbjSejodH6Ir1CiO7TnV3dwtpyiksmOYQQa3TnI2t0wZpoYlMpigtdl2WwulV3ZnxCCFGHBD4hhONI4NsoWhyv4sIbq7MdoLkFYd33CCHaTgJfy1aIeWUSRYjtpGsnN7YF3xS6PtX4fUKItpKMrwUp1YWiHCSUARLHzM2QR8o2DR/iPbyFTZKLWaGZJZrH13R1zS6wsqZe4/aoKeu5y9titLfivFocrzdOzCxTY0YX3bqhc3m98Yb7Ua9fGlUZJxYbqXptKtuvmg3RYiN4Y3FjgQrrdyk01Bx2qKxXOvF49eOia0nga4EvnkfXF4h6MJa41/Po+nzZ3p+JkEZEz5OLDkIiZgYiY8cpPTeBZ81Z06j+Wcv58jZXmlnh4hIk/AfJRox6ycB5sppRFvO6jC369EIZBEaHjUVbM5PM9C+QDJjttbQrpbqYG81b6s0y1yhAVASamgGnqllC2aDxeckxMqFXi4HWuN7mKzfBkr8UhDMhjVH9BAHzu+SigyxdXDGuZ5/x/8CoewL85X8QhPNI4Ntgnuhz+DAXTqAQiOrZT7+HYgbZbBbiKW5ivcLFpUH63YD2HjOZMZLFAJpmLmGWAXgmmA7CxSUIJKfwaRqZoXtwa3HCCUj4S8HLz4nGe+66VRZ1S5AyX/b26rW00+0u/8NgzYT7JslYywKPmdsMDHJkxLJJtXaJJWaNm9kVF4pyjETlR/qmmmif6AYS+LYcMxvUTxCgEHRsdC/N4BYJFv7RXyab6eeAG7T5t8kUAwOQOkMCoyw1N4vnyCO4uUw2M8aozzzWv9/IBq2Zp93ss6WMr5Y0qj9LNFfK+NZmy9XaopHxTJArC8LlWblwHgl87dL2ZbCMtQWTAYAsF60nrzYmVbnPSOoMCevPhfalxlH8s+Bx4zazwiMjvcb7A4/hsx4DSJxpfkyvpYyvBu0SS5YfU1MVGV8tvscIZCaZqvcl5LYix5HA17JegpExyEzSV2VCoTpzpWizu5YJHbQEMrOs0LVMQCBZnqFoF7NrzqhdzJYtt2/92R0MEii0L+wmlxwzyyxZ4cWskeVZjuGbIhmwdhM3MTi4VSKB84T6jHaE+ycI2Ko4TDw3wZKlu26duDHObXSpM9nLG9FysQUpurlu/KlTpzh8+DAAkz/6CRMvfrduxU6uzvLpvke488p7Hfks4UQrxLwHmTmywKI5VCDP6m59rcQFyfiEo2mxERSlPOiJ7ic3MAtHk1V8nEkyPiGqkG5ud5PAJ4RwHAl8QgjHkcC3UWRZKiG2LAl8LZNlqYTYbmRWdzPJslRCbArJ+Fqw1ZalKrWpel37ZRu59FTt5aWMworvbr0+sryUaBMJfC3YastS1Vx6qm5Z55eeqr28VMVCBMkxc+WYXmR5KdFO0tXdYIVlqTjQD8way1LVXRnEsixVAgJJmw/3F5aeWqxYemq8UZmx9FQm4Sot1xQ4gW5r6SnVRsOqKCyUUDTWuI65vFRCsdYbJGp9jwwdCJsk49ty1rcsVb2lp+qVdX7pqXrLSw0zalmIQPFniU6rxt8JWV5KtJEEvnbZ7GWprG0oW3rKRlknl56qt7yUFie8ZA1ulsAmy0uJNpLA17KtsSxV7aWnKsr8EI0OmouP0vmlp+otL+VWiQwVrmPlRIssLyXaR5alchxjCaZsZAsutZ4aR/FDUp8qdstTqotwv92VU9YuLyW6lyxLJepKqZYsNPUqIXOJ+a0vzVwChg40DmKyvJRohszqOoBvtB9/n4sQAINEc/Nsybjne46o5yB+y8ytJ7rAoo3GyvJSohkS+Jxg29zmYcxoS/wSG026ukIIx5HAJ4RwnK4LfMYgt6yWIoSoresCnzs4bzz1UHwuVgghynVd4DMYjz5lJfAJIaro0sAnhBC1tXQ7SyTy07rlnXqyo5aliyvgk5tZhRDlWgp8mx3Y6vHF87hjIygKRHOyiocQoqRrb2AuPOOp65LxCSHKdfUYn51nPIUQztPVgU8IIaqRwCeEcJwuDXzmnhIyoSGEqKLrJje02Ah9ofPGhjkS+IQQVXRd4JN12YQQjXRpV1cIIWqTwCeEcJwN7+qWjbnZ2a+1hk/3PdLGVgkhnGzDA58x5pZGVWLExofX9eiY7LAmhGinDnV1ZZkoIcTWIWN8QgjH6eiyVLJMlBBiK1h34Gt2SSpZJkoIsVV07AZmWSZKCLFVdHSMT5aJEkJsBTK5IYRwHAl8QgjH6VDgk2WihBBbR2cfWZPAJ4TYAjr0yNpGf4oQQtgnY3xCCMeRwCeEcBwJfEIIx5HAJ4RwHAl8QgjHkcAnhHAcCXxCCMeRwCeEcBwJfEIIx5HAJ4RwHAl8QgjHkcAnhHAcCXxCCMeRwCeEcBwJfEIIx/n/ZrgDUo1vEJsAAAAASUVORK5CYII=;" vertex="1" parent="Hab7gQNjuxkPKOEClwCh-17">
          <mxGeometry x="8.959999999999923" y="360" width="262.09" height="228.3" as="geometry" />
        </mxCell>
        <mxCell id="Hab7gQNjuxkPKOEClwCh-21" value="" style="group" vertex="1" connectable="0" parent="1">
          <mxGeometry x="670" y="510" width="120" height="30" as="geometry" />
        </mxCell>
        <mxCell id="Hab7gQNjuxkPKOEClwCh-4" value="" style="shape=flexArrow;endArrow=classic;html=1;fillColor=#ffe6cc;strokeColor=#d79b00;width=14;endSize=7.67;" edge="1" parent="Hab7gQNjuxkPKOEClwCh-21">
          <mxGeometry width="50" height="50" relative="1" as="geometry">
            <mxPoint as="sourcePoint" />
            <mxPoint x="120" as="targetPoint" />
            <Array as="points" />
          </mxGeometry>
        </mxCell>
        <mxCell id="Hab7gQNjuxkPKOEClwCh-20" value="dotnet build" style="text;html=1;strokeColor=none;fillColor=none;align=center;verticalAlign=middle;whiteSpace=wrap;rounded=0;fontSize=14;fontStyle=1" vertex="1" parent="Hab7gQNjuxkPKOEClwCh-21">
          <mxGeometry y="10" width="110" height="20" as="geometry" />
        </mxCell>
        <mxCell id="Hab7gQNjuxkPKOEClwCh-28" value="" style="group" vertex="1" connectable="0" parent="1">
          <mxGeometry x="170" y="250" width="473.30999999999995" height="520" as="geometry" />
        </mxCell>
        <mxCell id="Hab7gQNjuxkPKOEClwCh-16" value="" style="shape=image;verticalLabelPosition=bottom;labelBackgroundColor=#ffffff;verticalAlign=top;aspect=fixed;imageAspect=0;image=data:image/png,iVBORw0KGgoAAAANSUhEUgAAAjwAAADcCAYAAAB01HsxAAAAAXNSR0IArs4c6QAAAARnQU1BAACxjwv8YQUAAAAJcEhZcwAADsMAAA7DAcdvqGQAAFVcSURBVHhe7Z0JeBRF2sf/CSuICWcgB3dCApIESFghoqJcSVDEcLgcAuqiAnKJAi6yflyryAroyiWgIsrNyiUq5CKoQAy4CVdAzgQ5cnBDAI1Cf1Xd1TM9Mz1XMiHJ5P09Tz3pOqaO7s70f956q9pj7ouNpNnb62D8vN54CfvRZ3QaDneOxZFRjaElZf4SjNjODoKi8N3s1ghUkgVX8dn4dZh9StRTH8jatAFPfXkRoc/3xfqeNYFzom7xCfA2Hs5GixlHRQJDrVsty+Ljm6RhNm8XxroNdVn08zQm9Y7HRhEDmmPhhifQST5W87RpRWPKlM8xbdrfRcx5UlIysGPHPnTsGIFOnSKtpllj+Od1cepsrogR5Zmn/28yBp37FP2Xnhcp7klQA3/5L9239x713BNERcfj5s/vSOLYJhYCpiTRCB5LcVVUXCd4ioMtYeOo6CHB4yYEx2DN7DpY0XMVvhFJ7goJntKDBA9BKHiKv3a4iu07L7K/dfBU2xIWOyXFuauQbUlBNdFETigduJDh1iE9QWMrj3AvuGVn5+yHcWa++4sdgiCIsoBdwcOnslr05tNVLNL5r8qUUjlDHoOYTgt9rLGLLEYEUXS++dd0PNZzOiYkiQSCIAiiRHHQwsPg00tmfj0lRv3WWL9hKI64bDpLwMYwu6Sn4wiCIAiCKHM47MNDlB24Dw9BEARBEI5DgocgCIIgCLfH8SktgiAIgiCI8orkjuR+J8WH1ZXWvZUiXRdJbsHypyQpbLaInJekp9jlm31QxIvKFem/fSGh4TRpL4vd+t87UjgaStN4pAhcXS9J/K6KWyUSyjtXJWkAGw8fkxy8JWnVaZFHSOsHSFK9KSIiztWUNBG3Qvq7Qexc9pbWXGSRs19J/WpC6i1HCIIgSg6y8FR4qiCoVTiqt20OP5FCGNnwKvD9FIPcgXQDGNBIZBJFwrd5W9QMbYWg+0UCQRDEPaDEBc+ZhV2wwtfXNPRchjyRXyL4PYmYQ/n424yOqCaSXIk8puKO4fpuoLkH4KENvsDXpbsxW9Wg5git3hbNhfrZ8BzrFjuJq39V4pxrG5TuTt0jEjTU6K0Ig00DREJ55hrw1WrgladE3Az5PNQHdE6DY7D6n2PnsSdrQws/5+q5Vc+1eag/VcnPeE8/Xw1qOUf4LQNobV6H2bV3OfWD0Kp2KFqR+iEIooS5NxaeR95HdH4+BvFw8Av4nngTP0zaAfZjuWLCxU7bnsCsHI3pgIcTQAtR5p5RFUHNQ1GjdVM0FCkWFABrd4ljRvJX4oBwCZvH2xFN9YA07W3CwjkhZCLfMqbdTgdasbQpaZbl7MHFTtTjwMTTxs/K4QLwkCjjKuoHtULtBx9EkJdIIAiCuAfoCp60tDQkJiZaDYcOHRIl9cn7Dmj/D74/sw5+T6LFiJb4/XA2bskJR7Criy++XnbaxBr0X3NBlLcVCeFaS1FPpLEvZwMW+UqdFhxZiI12ylhapZS2rmx9DWtZ/PupB4HdbyLRLN9hbp4CjvkCQeZbvlcHQjRpOSuMP7V9XwTOinRrqOVf/FokOEbNZ9fi18nisVbzWay9th79NOpnxAgmctYC8g99bvX4nqVpLTi/Ae+1NnaVBz3rD0e2GGnKaS0kPI9bJLRWjWpMF5oYGBxoy8LqoWOlMC9jYgkRlhePmuxzLDotyliO9+e4sITU7MMyzzOhIPJ4sDZuq3gDD9cBejlhiSkJfs8CDrDbr6n5dN397JbUpJlfm2yRbg21vIkVK3ISTq7vBx8lgkknMzGlrVH9zGzGzjsTWgRBEC5F+PKYwASNONLn5MmT4siUw/9Rfhc2fZO7wir8uqCztDzucylXxCV2tH9MmCbtsLSzc11peV2jk/Hl78ZIG7QOxzpOyHK9deOkn7JFgglKnZs/N8s8vEDaULeNlJRyST+u9s1qvQqWY3IW4XDMT5Y1p+Pzy03zr+2SpGYsbs1pedckSar7giTlKFHOxbWG3+kWoWZfSTorytmCO6VOSZCkAcJZlzslcydVOV3HOfV2uiS1YvVb5N2WpBmtWNv1JMmaTyuvk/fNO06SuF8wr+thcSwj6lDzOaqTtNqeHLfRBid9BiujdT4WzrYG51sVO064jrRlE14/+/z3/Jxp+qM9t860YfXcO4LGOdvmeDX5anvWnJb5edZeK2d4L0Rpa1W+SCAIgigmLpnSOvKR8iuuB/u1e4V9TZ34N/v1K/LMubJ1Bo6sroKAsc+YOMlWeXkdugmfm1pPfoReGv+bK+nbcCX/ETQaZkxr2Gc8fH13Iy/FUdNKHg4sWog/X56Ddh1rK0ktOsG35RlcTjigWJPy0pGbnI/q73+EqBLdVDoA+JadqOVPAeNbKicvfI7IEySzn8R1XwAGhivx6o8A/2fFmWRFd2AoG1P+MkBjIPLpyx8Z+uHKWsDht4TUACZMUqa1+HSWNZ8WW/x2BFhzAJiyEWgn0vTwjgMyNwHcqHB/JJAqjjlqHeNYX9S0GqwvM1oBn3ynxKsEAq3YfWjVYvIbsG0NUG+cxvmYj28GcP6TYvjjFAM+zik92CUcY2bNUjGzIhXLb8ga7BysYvfF+gFGi5a5/w+/9vz6DBEXUO63FV8tbq17+nfghub6OcPEY8p9evpRpS98mo4gCKI4WBU8ly5dwsiRIy2CFoeFjmb659sXTqPJ3v+hiyo6BFWaBVp1MC7IOoQ/GoaimraAXxN4McX0+7EsB32BLuPGoXz8/mlfbDZMRT2BrIMim3M5CzfzG8KribWeuJhB3woFwk5g4/HsZDJxI88WXmcn9wSYGjMRMLpwwTSYib417AlegrToxvTgXPYw/B54ypZisYI8ZeINNLcznuoR1h+QunXcz+Jh7IztU8QCfwjvZ6f0MBNBqkAwmU5hD+GDTDS1bS7igiAeZ6f9pK7iKHl6f8z+jzYDS/WUjLkPzznborE49F4l2rgKPDGNnT9VXDGheDTT9vVR4YKpD7tPNrpgmk4WPmy8J5iwJeFDEERxsCp4fHx8sGDBAougpcVrypfjFvaFXIt9GQVb89vROi3nb3LaeuIdGI77zhzGDa2yycvGzTzbQsmU2qgW7itbkuIMfVGCYTVX7UB4+Z7Bzex77U4dAKzeBTTLB07xVVrV2ckNVrLsMZsptl3sZ3dLyxVel9YZH/rmoVY/gD1HHOb+FsAzt4CLrxTtYStbXgrYQ7MYi9B067DyIFZXi3FH3qznNKKnCjtVTAztlV+db+QUj+v5sNwragAfr2dioReQLJJKFdafpdwJWhWBQlg6Ahcl6aOAKPZPVdwVXtyfh4uu4O+U68nFFEEQRFFwyZSWw8KniNRq0w21fHfj18VGR+Yz62cjP/8R+HVyVD35oWG3Lrj76Tjs2XFZpJnh1wb+XXxx/c3XbDohKwLsGC5ZqcYu3Ll4jpnj99fvmjoyB7EneOa/jSJm9z+BwWLexpxH2Gd3MSUSx57kGtHjsiktDnvgvbXf8VU/5nDB1J91jz/Qizodo9YxZ4Zx6ucaOyWTDhin2TIT9aeFIpqKAzaObv2B83M0D+NrwKxJQD0nxZwswBywCqmO2vYcmuXpuTrAQq1FypWoztg6U2Lcudi8f9/NMnVkDmxpet6443cfK33lq8fS2Tl9jomkoogeWeiwvjZmvwP4/UpChyCI4uISwaOiCp9dTwBPulL08H11kr9Aja+N01HfT62GkL3OWYu4b1C/71/C9b4PiiktJRhXhPmh1UeH8MTUGzje1pi/wvevSNaIpFpPDkeDmp8i/UH9fIdQfXfU8EZdJoSYCBIuO7KIWd6WiZgAJX8J+8bnPj/W0JZ3cpXWPUEIpvXs3jDxR3HGCsDrSGMCJ4s9CMXn+UopblGYKpRK4c/GPB6qtmEP6lXGfI7hYczuHblcTWVzQWfFnOp7Y6iHBfM9dZyCje/1ZUxEiagBcx8eHkrAj0e7Go2HF24BpzXTZ/y8rdeMd1oTxefHGtryzpwXLnZUoTOA3pNLEISL8OCey+LYAF+Wfv06++lqhYCAAISHq0/msghf6v4ELg3ei2dedEIREQRBEAThlugKHnNu376NqlWrilg5gO+180QC6jlpASIIgiAIwj1xaEorISFBHJVdTDYLfGIqKpX40nKCIAiCIMoLDll4Nm/ejLi4OBEjCIIgCIIoX7jUaZkgCIIgCKIsQoKHIAiCIAi3hwQPQRAEQRBuDwkegiAIgiDcHhI8BEEQBEG4PSR4CIIgCIJwe0jwEARBEATh9pDgIQiCIAjC7SHBQxAEQRCE20OChyAIgiAIt4cED0EQBEEQbg8JHoIgCIIg3B4SPARBEARBuD0keAiCIAiCcHtI8BAEQRAE4faQ4CEIgiAIwu0hwUMQBEEQhNtDgocgCIIgCLfHQ2KIY6vcvn0bVatWFbFS4PgSbHr0bRSIqEJbNE39Fu2bimh5Qx7TZvgVdwwXEpHYdSDyckSc03YGunz7MgJElCAIgiAqOrqCJy0tDdevXxcxSwICAhAeHi5i9wALcXABh8Z1xb7kWEQmvY+wOnKp8oUrBI8QgoUvrkbs+11QQySfT0iAR0wMCR6CIAiCEOhOaXl7eyM6OtpqeOCBB0TJEuQCMKI9sOOyiJtQF+HDR8L7fCauX1NSzi/phhXdP0UOFwG+vljBQ8SbyLyo5CtwodRayRNh86cnRR5D/mx3pO5NRGJrtQyLa4ooHEdqN2MdcrsiR83j9cp9EmXWvZkMuavcIsPrli1We3GyvbEetS/XEsdhnW67ov9ye6yd0ZZih1NPFTvqeE5q+xuBpGSTkyLaM/bD2ngMGOo1i9s4b5tfACbtFhGCIAiCuMeUPR+e48DDHoBHO6Dvt0DH2iLdjGvZR1Eojg3snYTkv51AyOF8DMpcCT8/kS6jsQrx/HwWdr0DaVJ704c5FyGvJKJeslKm8zt3cLKPVjhxAfAozrRajR68jvxdaHpnEn5UBY3gBqt354kJcpkeKwfjPpGOukw07lfa9pan5URfWIh7WTH11IieiNDBZ3FmsWmdOL4RJ5Y3QNO5LyPgeAry0uuhdmxrE7FjCRdVf8PNCYdZG5mIGGxyUmSxEz8wGbVX83zjeJJNRI8j2D5vcV8AUYvZdWXXloQPQRAEca8pO4JHFToxwMxLgJRlXexwK8me8cuBF99AqHY6qN6LxikuLiziNdNdF/YhJykH1UYNM6aF9ELw4ADc2JiiebgzEbLe+Ll6nXrD+3wCcvYrT+5riYtwJvdFhL2pWlVC0Lh3GxQmxOOsxnBSWWN5qRE9B73MrDC2USxYlZd9gMMGLcYE26IFKBRjVgRffXg1sTefVw/+q5PQtYt8UhA+J14ccy7gzLYkFLYdhTBDWghCxw1G5b0bka3VgXaxfd44XPTwCVRV+DzFLiFBEARB3AusCp5Lly5h5MiRFsHlOCx0NNM/YQNxa3Qq+pqLiPrNUNva8/9qFm7m1INXoPYTdVG7eQBw7hgua8SKLW5mZaLw/DJkhKpTN77Y/na6yDVSpVkTJwSODrIY01h5hHWn4TAhopo0R2WermJ1Ks+WKLqKG5k5qBwWCO0kpVL3OdzMdvCkOIksfH4HOn1AwocgCIK4N1gVPD4+PliwYIFFcDkhwE/sV7+UAEz0YQ/AQGt+O/rTPw5TMxBeAeeZYNFOEl3A5aM5toWSjFE0eAWGoTK3JKnTYmrY52rnaVMrz/mUDQbrjkxIJ/i12WsURCFD0ZP1o/M7beRsx6iJamEBKMzMwi2RwrFnPdKdTtRFvw7uz+NRBUh5Q7H4fDdYZBAEQRBECVF2prQcFj5FpG4EAroG4Mb8xUbrh2w1yUG1Xp00K5o0IoL764x+GwVte6GJEBo1IrqhlrQMme+b+dc4iyzA7FhRVCvPtDeQsaCSwbqjEIL2895hgmgAdpj4IDlDXTTs1hWV985HpsGR+TgOz1mOQs2YOb8fyxaWpiVIGcjy5VQtts8bRxY6HkDaMBI6BEEQxL1FV/AUFBQgMTHRarh1S2sPcDGq8NkDrOvuStHD/VeSENEl3jgd9ejb8JiRamYtagu/oO8QL08PPYqTlcz2tJGdjneh4YEB2KJOIVlMIzkAqydspD9yB4Qa6jCs5DIgrDzbVuBmrJm/EodbdTJX4oF57Q116E2v2YL7F8Wu7ILLhn6Yj9korOTxjvVElOxwbY7t88bFjip0ZjwiEgmCIAjiHlE+Nh68V3A/GFdsBuhKymKfzCkPfSQIgiAqNA5NaW3atEkcEfcWZWrIxHeHIAiCIAinKTs+PIQRw4orZb8f840FCYIgCIJwDoemtFavXo0BAwaIGEEQBEEQRPmCLDyEW5G7tAdWxCzCOREnisfufwKRs+DgNgREuSftHaz1fQnpV0WcINwIEjwEUdpICRjh4QEPNVQahSSR5SjSsQV4WP285yP4+LjIKA7ZwLvbgS9eg+kmlwRBEOWQCiJ4LiFzYqRYdq0fNi46JsqWHWxbK7LwU4/yM5aKiYSEER6oNMqGfOFixzMWi0cmgs8uy+HOfHQV2Q7B6hjZfAweSlQ+f3dbBEY0L77o2f0J4DMRaMXUTt6agVitc68ZwksbUCA+V2awY604/k7L8jMWgiCKTQURPD4Im5lh2BX5mTVD2C/WCATtNO6U3Gt4M1G2fOE1fadhDOV9LBUPCccWTsbHniMRP98piaNBqWNR+/l4TVThEbMA8cNTMeojZ+1EGoR1Z/yTStSv/0oMUO+xvXNRywuozYS14b77rLfO3kzlgB6L5B3KDeMoz2MhCMImbi94tr8GjHbie1+2qpj84ovBbo3BxGB1yVqKzWqZVq/jYL4oIDCpJ+Zd7J4YiXWvx0P7Y9O0LWM717dPxDqWljQxDdg3GSk6ZRxC7iP/jNYa1AoJ8drO6liKtFYlXgcb38//VfrErUdq/5wajxVLFc/baKjH0hJnYq1yaDzmiLLqNboDDK/M7gslUx95iqkSRiUpFhp1qsnSUmOab5yKYiJkwcMszROxHwN3F0TrlGFIx5G4PA2er/Z0zqKjRdTh0SaE79lpoElYFKT04/xVddZhoqZ7e+CAjoOO1rrjFLJVxXj9ePhug+YuMVhd0rCjpVqmA374321RQGBSz0vYuWggVneYhZPaYmZtGdo5vQbfBrK0HnPxB7bgcDOdMg6h9JF/RmsNWj/rf/hdlOBYWoq0ViVeBxvfN8uUPnHrkdo/p8ZjxVLF82KN9VhY4kysVY6NxxylrPEaffkU8EGmfEgQ5Qq3FTxLHldeY7CxBzDPmadJg9HoZPi1l4bgqH04+7Hpg10WIXEHEXSIlTmyBv7G91LI8Ad/0sTfDRakZybewNmlpo97ucx/gtGa18HKdJ1ZBaeeVR7K1TvPRF85LQqImK7pTwIecdp4sw+nHovD9VGH2OePIHKIWWcZXqM1VqK0mai2byEytSIidyVO7e6EGJbnOfkxbNuiHFdJ3oYzopjN8QQ2Q5Xco7jMy17ajqRIo5C5lc2+OZsHoqYsdroi47uOhjp4X3h7plN09sdjQG5LlD3wIdh3PVAJWMS+t9fxF9baFD53sSC6Eqa2PKZMEx2dj7YLYpkIEtmy2PFEN3aujslTUXcRP2wBYh75mIkMDzQb+ZOS9ir7J7M6XZWNzDQPRIWyth5WhRMXWiLbYVgdYY3FsREpLROnxbEJu4G6fPy9gPe+1xE1ZtYd52iH0GPi+rEQNcYPlz/8xPTBLouQ8fBcdpqV2YsHo7WvrmXwBz8TK9VUC9LeaFz7dyLXqkbkMvEI2MrrYGW2jMGN4T2Uh3Lj/uiepaTdhx4m/Xmqd01RgeNcHt4MB6osw9/Y56PnRlt+ababo7ESbUEDvy3I+kQrIo7i139fwIOHWd6e4dg06IxyfPVrnDssTozN8QTCy/sYCuSTeBo/Dww0CpncEyho0BR+VRWxs33Mr6iv1sH7wtszm6KzOx4DSltK2R/x+F+VzWef/w6oM0H5fiXhQ5Qn3E7wqELn4GT2hS85KXYY/jExqC+O2aMa1cLqyy/XvClSZPwHonWSeID6dEbXeHEsk4XsjWmoPHAcQoU4qd55GBox7WKAPYgPzTsN31lvGT7n36kXquUmIydDIzQc4CYTBIZfcyyYW11YzfBdnoSYWLmzCJsZL45VAtEyRqOiqjeBV/1c3MzS1MLG2+KtWCZKzI5V7I2H11kpEzdYldf3J+D3ToPguWE7zjGRc+lYIbwCWW2X9iMn/hy8RrxqPJeBcQgeUh835bIq9sYj4NagFjPxwNoDlvlc9PDXl7Dnhyx8WHzxCZFnwAPtFx7F7lcVu4lHSAi0r2WVji3E5EXtseCLV4VlxQPRPV+F9NNyJDnlOyMhddRUeC4X/jfxw2Sh5bzocQBV6IwEktnTWMrQt+AU2brDiYpBS83NUT24FSod/QXXTEwIzdFoa4J4gDbGQyvjDQ9TzvHEtfij+QQ0f1JUxARMs5f8lGMZ9iCe+xn+MuE/iFI/FxUNP7+juLD9sE1rhQVbmCDQ/P9YWF0YVSdsxdMT/ooq7JhP7fUSxyoh7DvDOAXmD+9WXrj9y2n8IVLk8f5nFJrKXdUeq9gbD6/zLApOs5GdTkVejV7w2/MtjrH/p7ysI6j8YGMm7E7jzJbduNPjdbQxnMsotPhnNCptUcqq2BuPArcGtUV+nwz00cnnood/v6rC5+/fiAyCKMO4jeAprtAxICwQyhdgC2SYWWZk/Jujts4zVuZSFgrOAvfJVgsrXM/GzXO5yB8cbvyijZqIGyLbGcx9ePp+aCZG+JdloLXOKqhTVHI/WvRHrt7cky3sjccnEN4NclGQdRRnEjJwX+wA+AVwi8913MgJRQA730od/or4MeADn2YN2K9YYR2SsT8e2QLH2r87fb5ti5gQPncOA0uZajEVPh5ow0SOVbIzkSalYkQz1TLjAU8+f1UEPEdMh9BViv/Nq3fx8SZnFI+EtExLW45HVBiTEwwHhY5Msaw7HGGBEPdB4hgzy4xMM3ibPvE1nMa1IwWsiGK10IfdSwdu4vasJ/Ff9X7z7YGzeSLbGcx9eH6cYCZGmEBo2lRHEGhQp6jkfrTFL4kmP48cwN54GqNGC2/cPnkS51K3oDBwIBr0uyRbfK6fuMl+c4Wy/il1VJXFjxG/wBbsS161DinYHY9sgWPtt1uEx+1YxGThc439V77B7i8SPkQZx20Ez9AfFKHTcrryj+eM344BLna69seNYaqI4FMmRnuPQ8gPd3FsDdmKwi0VfFpG82Wbr2ONKGG42NnWPx0NVAduPkXn5JDtjycQTXo1xtVtKbgoC5wgVAs4jJyUn1FwR4hHPcuSbAFi6tGWwNSDTwOycVRb/JiOxUsD9+dh90qlUGDIcXb/sPiwYJFnjyZhiPJoj4XHxFSVGu7uNogXu3hEo+er4tgE/SkqXTxCED3Y0l8nO1Pj1/MIcIFbtBYAXdiTziNS32+HUyzrjix2OuKX+41TPHzKhOlIJ1Ae7rZRrCjcUsGnZbT3nJ41okThYqfjGHjMUR24+RSdl8h0FPvjCYnuhz+/3o7TBxWBUzvYi31dJePykXpCPCp1mFqWFAvQXZsCUw8+DcjG8ds4bNKxeGnh/jweNZhk+0D5/v38aZFBEGUQt5vSKpbwsbAyXMeNTGfNHco02M2FHxscmXOXjsGJNOVYxqc1AmIrIX/CexbOzloeYA/VyibWDdfDfWgK/cNQzTBkfg7EsaM4MB4+FqycjLza3dDQ1wcNYyJxdfRIXK4bCPnxINdhet6QtRknlp6DV+/OmmlGB+FTjUlrUHvHYCSYix4hdDzYM6AvFwLOCB2BR0g0BrdLxcgXuM+OdWw7DyvTYHf5Si1RQJkqexiDu5qqJilhhGxFsnSc9kCzEdMxPHUU1EVZUsJIxC5qj/nqsi0Ve8Kn2NYdSyvD9RMHdCw8tpGnwbZ8iHTVkTntHaTP1ZpvGqNhj0dQOGss0sydnbX4B8Pby9S64XK4D83N5vBurMos5Rw4hwPj4WM5OwunfngU9UOrwq99D1ReOATHfw1EDblppQ6T84Y0HHk3EXd6dEcz24YaHfhU4w482GghUmMsRY8sdNj/0MVZ7H4ioUOUE9xO8KiowqfXFidET+AQRM1srJmaGYa7o7kT72Sk6KzE0of7lWxAcOOV2B+umKdTC0cjWOvDI5bJdx17wlBGCaYrjmTfH0099lckOY//kLkmfV0xrBBBM6Nk3yCb1hET7I9Hdlxmv0JrdouUp9yUuHbqj9eRhMindhjrkKeldhZ9mT0XPRtmosrKwfhGu0pLFTrsYd9ZKek8Hs0w8qe72BYxAs3YN786reVhsumfKkY0Zcw2BfSIWajsmyOmxjwfXIkXjjphJeJ4xGDB0bn4OVrU0W0fFtqqQxU+G4G3njCKnuJZdzhR6PjpGPypmZo5HjpHduI93ExnJZYVuF/JQ2Ou4tcnGyv3wZJQhI7R+vCIZfJbYpGjlhHBZMWR7Pujqcc83xVEvY022r76LkH1OWNwH/cNsmMd0WJ3PLLjMlD1mc5owI01Iq6d+uN1dJ7bCOcMdSjTUj2LvMyei541aHB1FlIbm67SUoXOG+x3DEGUF+hdWvcEvjQ6Cjndi/HwJoiShC9RZ//iuqu2ygB8aXRa1rRiPLwJgqjouK2Fpyxxffti/JoWAb/OJHaIsknxrTslyOk1OPZZHmp370xihyCIIkMWnhJAcQReqnnhIt/VuSh76BBEBUQ4Al/RuMLwXZ2LsocOQRCECgkegiAIgiDcHprSIgiCIAjC7SHB43Is3wdla7WT8v6pYq6+Eu/1cnxVVcnhkvG4BXewbbgHKr9m461dd49iXpRYvSWHSnjccsvnkmMnUOuvwCHtxi0lTfYqfNPY+L+xwvdx/JDxm8g0JxUpoazM47NxyloRBzg2PdROO/cK14yHIIiiQYLH5ShLtJWNw/i7uEQyQZjj2Ryj08SGhX9uxTCRfK/44h3g7S+AcO3WvCVNk+fw9Gmxsd7mUSa7AhMEQZQkFUjw6LwVXA6la43wH7KFffkXc4flwCGIYw8Qy9dKMAxvGBdxM2SLjNmbzG293dweLhkPUfLsBMYGACPCRTx1usVbzuVQqtaI9uh0mAmjH8Yj6H6RVASaTT7M7skf8HikZSWy9eeVTbgl4qYoFpmtm66LOCcbe/s3NktzFNeMhyCIolGBBE8gHt6i/LKU30LOXwAqv5WbHs5ExUO27owDDC8caD8Z/WSr5GbUrwM88Ga8/MZ+ejgTBOEuuL3g2f6a4zstc2vHutfX4n+yDw63iqj+OEYrkGoROa594aaz1hCTF5TyYM0Co2OVMrRl6Su0cZGmErUN+SWe+3DqMSvlHMGiv2b+Qg6Mx2BJEv5GNsup+THvYjcbo7YtkxedysHUQrd1KPDGDhGxxZ1tGG7wnTHztZHzKuO17Yofjm4Z4aOj5smh8mvQ89i5s224lTocxawtK+2Y80U3YM4hEdFibt1xCG7teBw/fPO54oPDrSKqP47BCqRaRA7JVhD1GjlrDclb1R+rtNfYmgVGxyplaMvCV+gVZGi6obaxZ/5FYPNQbLBSzhEs+mvmL2R/PEZLkuJvZLucmr917iI2Rm1bivXJ8HketBa6M0DXh4CjIkoQFQ6+LN0eq1atEkflh8Ud+HJ7SRqVKBI05Hz2tLS85VjpQJ5IEMjpdVtK8dvyLI7Xjt0mXTGUqWuIS9IpKfVpbVyLrTyFa8n/kNbWjZZ2HRUJKheTpcSIutLy6I+lsyLJKqLsho/NK2Gc+kzapFe/QB6PWRtynwxpyhh069bB2njU82Y87xelQ/+IMGlbKWP8rFKX5vzZGYvKd68o1/71FJFgzp9bpWHwlDosOm4jDlaHMe3OL3OldrhPGpMsRxl/SgkJhohlHSx/6zBeB6T71A9ZlNFgNU+px7PDIknJMY9b8o+ayvhnHxQJZiyLtZ4nSbul7S3qSutnpUu/ixQFJX15h1nSydvmxx2k79NvG8vUVeM8aZq0RhvXYitPJkva06+RtPzljdJNkaKSu7KftJLdG99tvCZSrKOUfVlK1yl6dFoL3foVlPGYtqH0yZAmj0G/bkusjUc9b5rznrVS2tJI27YoY/isqEtz/myPRfCrJHVh9wb+Kkm/iCSCqCi4nYVnyeNgv4KBg5P5Vz4wz+z9ifaoPHAW2okpLu2xCRHT8ajBX4a/CTwKhcnbcMaFrkDX9yfg8rkIBM0f7vyLM12KeBnq5FFW/YAchk8jJn2IlvIp9YFPM+1r5bOQvTGNnfNxCBUbNFbn7xLTOn3Lb1Tfh1OjbFvUnlyiXPvoVcq90OlTkSFzF0cXTsEnHRZiqfrG0ErR6DnsLnatTIZxjZQnOiw6ih9EGc/gEETKRyqVEB2teROXRyDC2t3FT4d/FQkKTOyg8CNRTrcd29w9uhBTPumAhUuHQekJa7fnMNzdtRLJZpVMrKWMt+6PyvjH6VlwimTdUXkQjT4aJaa4tMem+Cz5xugv0z4avnV+wcXkI5qNOItLNn79OhV345bgiZ7VRVopERAMr6qbkTnOmh+Q4/BpxKfHR0Le7LpJILy0L11PTUT+RXbOR3TDA3JCE7R97SUTp+8awa3guXkovrdlUWsIJHE5vBEYyV+gWw/YVtEXVBIVBrcRPMUVOmUNi7eYlxrqqrPF8BwnzOQOv0jVDP/mqG3NXepSFgrOal8mqgN/GWhGPgYtroyfhcne1lJ8Wfj8CfRkf43CR0JW5h7c/XE4QliiMk30Fzy5WP6IhkqIDLH9CvW7R+chSq2j0oMYs0dkuBApKxN77v6I4SFqXz3wF7POOiR0BBa+O+WSHBQcuI0HmjfGX0RKqaGuOhtyAFvEPblhdkaRxF3V4KaK2NEhL+sw7qA5qjXVUZgCv+fW4Ln8fDQ98LCY0rKxFF8InytrmPj1I+FDVAzcRvCob0dvOV358nf4DemuwtbDvAg80CQMlXMzcaOEN9ZR2jmKy3a/7FSn7yPKG827FlH0WMMnEN5ag48txKq0QUfWoPaOwUiwInq4Pw/TMtjE/vJ7I+VlnuqBwLB28OywCMdZoqQJd35QrSj24WKn/YPj8HCy+PydXzC3nci0Q6XIEIfb8QgMQzvPDlh03LSv0p0foBqoZl5Rxnehg3Lv6/rtcIpl3Sketh7mzhMA71ZVcevoaTA9W4Io7dw+cdK+gFGdvvf8B5XnxeKbIooea/gFhjIJ7hjKqrR8RP+nHs7GxuiLHu7Pw+6VWv2BhXns/jkPdHPh9xdBlEXcbkrrngiffQuRqTrKZi1F2sQ0ePXu7NKpp+qtY1Dbgekbu8jTQLkoyNJXJ9UDm6FKbjJyMtT8SziTEI/71PFc2ouDaTqfdbHAYz1Rps4WfmwQUrlLx+BEmnLMub43Acd1umJuFZKFDrv2ic9phY6KJ0JiBuGhH0dgSDE2+ZMtL54PI7SRIQGZOhaeP+ZPhdrMnW0j8eTi+/BqnGYqzA6eITEY9NCPGDFksd1pMHvC515Zdy59sMTgKHts+ks4dzEO/p1dOfXUBI2eaW9/+sYB5GmgoyeQq2sIaYIaoV649XUyzqr52buRlxpjGE/ejgSc1vmsawUeQ0ydZS1RhVQqUl6aD+Oekdk4nHBIR2SZWYWE0PHoBSxg9woJHaIi4bartFTh02uLKnqMK56SmEBB7krsD+fxIuzDE9EP3imxitk4aiLuTt+JXsNd/GZQefomDcFVJiNFmMrl4Ox0EqsnfHRj5A8ON9RhMg3ErSVpY3HbkN8Cx5qs1YznBvKGGz/L8zO+64jWK1ztW8SnzjYguLF6XXyRWjjadOPGG9uRIfLk0KI/Lndcjk6ac8/Fjip0PugoEs3wbD4aaX9+i9DhIUwYGKeKKj1uX1SoVOq2AFtf0Uw1Vd2KPluH4Y+5XTT1eKLDgn+icKA6FbUUY5ILobr0OIS8OeGf+DZUOwXHQqXHDULKHFX41BmvET32rDuGFU9xTKAAt96Phbwargj78Pg8643DzZVrtGf+owg78QkiXexqI0/fbB6F60ODjfcDC85OJ/k99xoCLr6P3Y3UOkyngbi1pF3Xpcb8dimof1AznvNLscvwWZ4/FoWj49HF1b5FfOpszSj8oV4X36Wo+R/TjRtvLu0u8pSQOPY8GsTPM/aVix1V6PzMpRBBVCzo5aFOwpdNJ63pjk4Jpe1MXBHgIjUKOd1LQFBWMPgS9Yuzbfv3FB++bDoOv804gSdL25m4IsBFatwZNCsBQUkQ7ojbWniI8s/17Yvxa1oE/DqT2CkWpei7Q5QU2dj70Wf4I647mpPYIQiHIMFDlBnMNxX8un86GuxMwCOkd4rHY8CVz8v7yqyKjvmmgu1wtNpH6P1JT7FMnSAIe9CUFkEQBEEQbg9ZeJzE4tUGFk7Elq98sLVXjDUMr2IQcUtc007Z4Ro2POeB+lNtbGbzWwbea61x3PWohp6rTTf6K0nubAMqPQ6HHZvtcwy7u/mZXMONHx+Vt2c2cGwxNvkZ8+XXcRy1+xvFjEQk+vsiId7G51zSDkEQRNmFBI+TVO88U3mpIgvyS0gtUDfq42XSTFcZuZR71U4Z4v5IvLVf7ENzdT3uqc3xLrBwGgtL4fAeOvZphke25YlruBJ+ev+NzYahZ55yvw1a+bxILAHuVTsEQRClRAUSPMqydHMrCLekOP0yTaLCcScBGNcOhs3+kDhexwrCLSmv4yAZRgiCIMocFc7CU7hyDg6TviGcQVh35o0WcQP7cGpRgukUFEEQBFEmcXvBs/017W7L/vCKvGB99+KspdjMf7VrBJF9X5qiIddr8JcQPhN6QkzukyhTxH6YtmXazlf9gOk/i4gtrm3Ac5qN70x8beS8+pi6R/HD0S0jfHTUPDnUnwo9j51rG56zUoejmLVlpR0TmKiZ1x66m/lZWHdUIiLhtWowEq34xhwa748Vr8drBJEDvjRFQqnXeI1ZMGnXiNwnUaZo/TBrS9sOu48as/vpiogSBEGUJdxW8KgvE93YQ/siUX/4TZ8D/wuaV0OUFg1Go5Psu8ED98HZh7Mfmzkd75uMlGGFeEgtU2UydjnpmMzFTtJ/gtH6kNJW15lVcOpZo6P1s2uB0FnKubIqfLigqfkCbq06bfCfeWJaFzOH4fOYFtUAX/ZQytxOn4E603oxESSyGdX+nqZ8XvXBOT8HM8ycjs9Pi0LogbE22rEHFzs18cKtVTgtt3UV65+Yhi49V0O3ljvAcL7V/n1A5eU6osaqdYcR9gbaTm+D/DmLcNbVGsZJ/L9UfYFY4D44K+cg1czpOH+wH85H5xjK5A+OddIxmYudgSiY8iMGym2thN/qwdikOlo/BJyewHQgP58kfAiCKGO4neCx+9b0WuJVCxPec+3LL53EPyZGs1Oz8h6pwsws3BQpMhHTNTs6B6JJrygUJm/DGUf7fWk7Ds07Dd9Zb6GleF+Of6deqGby7ixF9PBzpQqfPixu5DdksCf+lrglmDtAvDiqRhc8O6AAyWt3aUSEN+JWZWKTKHN/UHOEyUcqNRAdrXm7ZpVAtGxVgL1Hc0WCQr0paTg3VZTTbcc2v2UsxLQtcVgydwCUntRAl2cHoCB5LXZpK1GFTmUg8jgbP4tbiB2GVeuOoP6wcfA7MAV7F5mtrrqnRKNlDBuMSuMQeHvsQ0G2iAt8l+chJlaUi46Fn+c+5G0/5nC/zy2eg7xW09B2eHMotUQjYJAnbm7cjnNqJVz0sGNJFT4tgf/dFnkEQRCliNsIHrtCR4P/kLnyO5tObChFZx4mRpIi1amBFshY6upJM8b1bNw8l2vyHi3+7q8bItscWfjcAtq8oxU+vyPr4AEUbH4OjVmiMk1UE31Wyx/RUB0RTdU3aerzW8Z7aK3WUbUNJh0QGS7k96yDOFCwGc81VvvqgZrazjoodGRsWXcMRCN6+fO4OWURDpWe4mFipJvxGj/2fygogb5cOb4P2DcFOzTL1/d9yU6SHkL4/Pp/QOcHSPgQBFH6uI3gce4t6YF4eO5MeE4ehYNmb5Q25RIuHTsrjl0IFztd++PGsJ1iGuIIIoc4+GYuZ95SLr8p3Z/9sj8k2lHDAfZL37IS7s/jwR5O6W8r53I9iwNVENiyFbzj1CkiY7ixSbWi2IeLnag289ErTXz+djpmtBKZdqge0dThdqoEtkQr7zisYk9bbV+lG5sgG58qAYvY2KRCICOEjZfFrb2E0551x0D0bEQ8vxr739gqEqxw7BRuloAQ4WIn5f9aoLW6rHznv+DN/gccwSuombDW2KdWSAQQMQ0d1XbUkPAqGphXwv15WFqjfwHbmYiWDgJ/pa2eCYIoRdxuSsth4RMYh+AhF5C3Ik0kqOSiIEuZ7sld+mIJWl784RVYU03AjUyddvZpfI2yliJtYhq8end2/KWlPq0REFvJ7vSdLHTYuTo8QSt0VO5Hi279EbR5KMYUY5M/2fLi3RbN/Q0JOKhj4Tk/ZwbUZq5teBV9VtfDK09ppsLscH+LbugftBlDx1jx2VGxJ3wcsu4YCR86Dd6rViDP3OCReUpM9yQi8fEStLxENEMtEcfp47rtaH2NDo0fzPo6EAHaqTA71O/UC9777UzfCaHjMYvdvqwQCR2CIMoKbuu0rAqfXlusiR4fhE2YA3+teggcgqiZjQ1TQKmFc6xsLlhMzNpZ4TsMd0fPRDXupKzZubnywH/CJyVWKRM1EXenO/vWcGVzwq5jT2B/uHEaYoVvKyQIIcXFjip0Jj8kJ1lwf+Rb2H/1CzzwXGPDNBEP1aw5AutQo/fHWN9DM9UUegB/Xz9AdlI21uONuI9eRnYPdSrqe0xJOwfVpcch5M0Jr+KLB7RTcCxU62kQUiaowucPoHCwUfQ4bN1RaTZMdmDWEj57uezfo0wBfQf/HCubCxYT03ZY+C4arZ/3lJ2UjTs3RyBonCd+Fius9n05AK3zPkRLx/WO2JxwJbyndcBKw73EQszHipDiYkcVOmthFGAEQRBlAHqXFkGYcxeY96iVVVsEQRBEucRtLTwEUVSctu4QBEEQZR4SPARhRqVuQOFHIkIQBEG4BSR4CIIgCIJwe8q14Dm+AAh8A7gs4gRBEARBEHqUX8FzAfhwBfD520BtkUQQBEEQBKFHuRU8x9cBR14COgq1k/Npd+MyWTV0W4LzSna5RB6TC8ZwLflNrDM7N5uWHBe5BEEQBOH+lE/BI6w7U3qLuEqbd9BZ3f318Gr4576NneMTcU1kV0S4aNoyIB61VmZqdsdNRdMmogBBEARBVADKruBhomZEe2CHjoOOuXVHlzpdEDaqLQoPqS/kPInU7oplQ2sNWmcuiC4mIylCaw3phlSNMUS1uhzXWk30rDAnP8UmQx1mFhU5j9er9Ekp0xqJiWzQDNUikzxpr/yeh+2GetS+XETmmxH67Yr+y+2xdtImnYXfyiRER9cVBThN0TImRD4yWJG0/W09HoeUrghEe4Z+WBuPiDPMrVN2z9tt4O+1gJ0iShAEQRCupOwJHvbQfJhvTd8O6PutjqixZt2x4CIuH7N8XUPB24/ix1/Gokd+PnqsfhH3iXQZLha6DsDlrivlfG4N6TKjEk4+avow5yIkY2s0YlVrSSUzSxIXAO3nwUu1qqTOAN5+1iBoFNJZvb1RMJaXOYzIF9V3LvCXhL+PvnLbbU2tVvnb0F7WKXUQ9uYc+OcuQKZJnUxYbPoAuf7voN3QEOSkbERBQDQCIrRiRwcuqnr/guBM1ga3jBm7wuBipysy4rsigucbxvOo89Nits5bVeBzpn4+49eehA9BEAThYsqO4FGFTgww8xIgZelbcByy7jCuJb+PzGUS/Mb1Qj2Rxqn8/ErEzo5GDXbMhUUvccy5tj8el8+3QcNhxrSAnm/Av1468lI0D3cmQh4zfK4pmvRqi8LEeJyRtQcTCIvno/D52WinWlWadoJf2xxcid+nsSYFaCwvTMC8H29mhbGDbMFqgLw5G41WEibYMuefFWMWgi+gGWrbqzbgeUQkzUa43JUu6BovjjkX9yMn4Ty8Rw4zpjXtiZAX66FgQ4qlhckWNs8bg4se/loCVfjcD3zB7gOCIAiCKC6lL3gcFDoy9qw7mumfLQMOoOGu/RYionKzJgYxY86trEwUBoSjmvpOT04d/sZxoPBYtoO+QNdwPfM8Cr8ciC3q1I1ve5zcK7INBMC7iT0lYhtZjGmsPIp1ZyTChIiq3cz0NaNWp/JsiaJrWSg4H6B50SlH1J1zDJdNDUyuQQifwp+BuUEkfAiCIIjiU/qCJwT4if+qTwAm+rCHW6C+3w7HrnVHd/rHcR4IDEPlnEO4cVUkcC7yN5vbFkoyBtFQA9XD6smWJHVaTA19NdYkl2Bi5TmJ7I2qdUchgL/dOt0oiAJe/pb1IxVN28pRx6gRCO96ObiZZXJS7FiP9KcTddGrg/vzMBFc+SFgzCl2b/wGvMDuC4IgCIIoKmVnSsue8LFn3XEBNVrHona9dJxZbLR+yFaT823g10mjnjQiQnEM3gvv3p2E0KiDBrExwJfjscfMv8ZZFAFm24qiWnky3piGM3dU646g6cuImsEE0cDBpj5IzlCnNQJi6qFgwWKjI/PJTTi+7LxmzJwcFGQrBXI+fQEZLN8Cm+eNIYSOB0t4id8LJHQIgiAIF1H2nJZV4bMHWNfdKHoc9d0pFtx/JWk1aicZp6OSJ91B011m1qI2/eCVGK1MD7WfBLyzCz2HGgvITsepo3FzYJhhCsliGskBanQZhoYNvsS+MLUO40ouA8LKc2XFftQy81ficKtOj9WtcOZRtQ696TVbcP+iJETGJhn7YT5mg7BSxpt29z+Kw7U5ts4bFzuq0LkCPKakEgRBEIRL8JAY4tgqq1evxoABA0SsFGDP+BHPWFm1dY/hfjDJX8Wh87ahFuKitCiLfTKnPPSRIAiCcF/KnoVHh3ti3SmvyFNDpr47BEEQBEGYUi4ET8hIIOVlESFkDCuu5P1+zDcWJAiCIAhCi0NTWqtWrYKXl5eIAXFxceKIIAiCIAii7OOQ4Nm8eTOJHIIgCIIgyi3lYkqLIAiCIAiiOJDgIQiCIAjC7SHBQxAEQRCE20OChyAIgiAIt4cED0EQBEEQbg8JHoIgCIIg3B4SPARBEARBuD0keAiCIAiCcHtI8BAEQRAE4faQ4CEIgiAIwu0hwUMQBEEQhNtDgocgCIIgCLeHBA9BEARBEG4PCR6CIAiCINweEjwEQRAEQbg9JHgIgiAIgnB7SPAQBEEQBOH2eEgMcWyV27dvo2rVqiJWChxfgk2Pvo0CETVQ70VEJr2PsDpK9PySbti++Vl0+fZlBChJJcQFHBrXFfuW54g4py2apn6L9k1FlCAIgiCIMoOu4ElLS8P169dFzJKAgACEh4eL2L3kOFK7PYozrVYj9v0uqCFSVe6N4FH6cDLXVGzheAIOesagJQkegiAIgihz6AqezMxMhIWFiZglp06dQlBQkIiVEBeAEc8Afb8FOtYWaVYEz7XEcYgfuByFIm5Ex+piZi2qNiMVcS8rBbhg2nniJQTdeQe/LG/APrsM1RZyS44H/FcnoWuXOoqoWtjKVOyYoPQx/9lUtL07EtvfTpdTK79oJtIuJCKx60DkGYxEpn21FG/GepX+qvFv0fTIywZrk3Y8l9YB7Y4DJ/8pRwmCIAiiwlL2fHjYA/phD6bE2pmLHevUiJ6Dvvn56PxOG6YbZqALOx4kBz2xsxDeqw8r+bvegTSpD5KSL4oCQOGyd3H1qWRW1x2cbB+NXPnYH5fj9+Ma69zpDemoHBOLBrpix8iNSe2ZeJqAHqydHisH4z6RLiPEzpXY1XI+74vSXneknhRlHOTGpFfkPuqNx6cvsCeEnUt2Ppu+KycRBEEQRIXEquC5dOkSRo4caRFKDFXoxAAzLwFSlmNix3Eu4NCiBSh8cQ7adhFqJaQT/NqcF2JGobImX3sscyEbBTlAlWZNLKbTzNFadLgg66W1SO3bhis5bdFwmDGtXq9x8AvYi/wU5xRPtRnrZcuTjM54uOjhNjxV+NTqB5wTeQRBEARRUbAqeHx8fLBgwQKL4HJKXOioXMWNzBwULhuALb6+WCGHR3FSmXFyjLpN4G3iHMSnldS6IkwsRbZE0c2sTBTWC0N1bQFR9+/Hsg1ixZWowichDGhAwocgCIKoYJT+lFYI8BN7EEsJwEQfJnwCgR2XRZ5LqYlqYQGy5UWdRlJDXx0HaH1C0Lh3G9yYvxiZsrYJQfttylSSt5zvGF6BYah8PhPXtcrGnvVI5DuCXh3cn4dbeGIygbPsfF9ZC9QXeQRBEATh7pQdHx4XCB9ZSJw7hstGQ4uGumjYrSuwbBz2aiwxzlJv6Dw09V+GjBc+hYP6w4IaEd1QK2AvzixONlhzzm+cg7yctvDtpHE6MozlOFIHax2cjRjFF3d0Ho2T6aZ1qEKHOy9zCw8JHYIgCKIioit4CgoKkJiYaDXcunVLlCwBVOGzB1jXXYge7mysmYIyTEtFvGl42HNqRA9HQy5GQvWnmWTn5l0jUDAgVOQrYd2bRuFhH27VyUTEg/OQrNaht0eQLepGIzppJWrFG6fXtr9dyWSVlkFYyWMZCyzYhaZtlDwt1foF4XwX/TrUVVpc6NBKLYIgCKIiUz42HiR0MF+mThAEQRCENRya0tq0aZM4IgiCIAiCKH+UHR8egiAIgiCIEoIET7lFWSFG01kEQRAEYR8SPC4nCz/18MXGRcdE3J1QxqY6e6/wbYWE+HyRR5QIJz5m/6V8oyo1PAwcs+t25wBJQCVWX4Ir6tLw83Q0Zv3s99UVFjmDdc/WgEe/r8BjjnJuPVBLO+QwYO9NkVlCzGC/G+5FO1Y5uQiPscF2WHyKRS4haXQjeHRYDB4r15z+VLmIryaIhHvP1fX9WRcaYtpeFrmdjndbeqChHCmf/Ll1KBtPVbyewiJ3f8Hcdh6oKkeKz0h2qRYeFxE3hAQP4TC5S8fgxO/T0cmwh9EBxMT6ilyiRAh+lX2p8WWLLCSOEollGL8H0bZ6OFoF3i8SnKd+H+CKGHJ6RXklSs1gRDZshMhgx3YEIxynSmBLhFdriwf9RYIevwEzWxtFdtxqke4k+2Ya66gWB/wq0ovEdeA5Vk+9KSIu8AwMR9u/RCG0kUhwEccXAhkLgBEhIsENqUCCx9w6oQT3tMQIspZis9l4V8QsKuIOy1nI3pgGr96daR8fTtJo4zebNjzMvjFcbDQpvzREUKuaCG8VCIP8yQCa6pw2HtZeEmWKC7vB+9fSb0MN5m1NOskuWybQ1ksklCo+CAxrhEaRwQ5uiMqQLSkNgIQLIkHDjjdKz8LS+GVFuX4cIxJKmapBeDCsGtqaqZ8NQ4C5PZWuStcAr+ecFz3XNwCRc8W2Kix8we6lsGKIng3DAbtd8AxGSMRfEOUC9fMf9ntq2ggRcVMqnIXHa/pOww7Lz6wZgj8mP+vm0zIRCNopLDJH1sD/wmTsej0eV0UuUUS6zhPfjonKf9H8o0r8p5HswaMUqZA0DEKrmqFoHmR7G4s1F8Xp04R+PiKzuDBFvuaKsd6v+rG03sDFkmjLVfgEIqxRI4QFFrFjjaOBjkzpbWSK0oTT7Cm2C3ijjAiOUqBq0IMIq9EaQQ1Fghm/7WOnaAsw5yWRUB1YtB74ehyQJpLs8huwcBrwzBwgSiT1XgT0+Br4zOFKjHBL0agQYP0AkaDBMzgEEX+JRLAL3Tdl6858gN1Fbo3bC57trwGjk0TEjOqdh6FRVC5uZhkf/7lLe5haRHxjsNvCCKRjLbJlORGWlnUaoeFQOyYWmhjsWDQR61q9joNafWZmxbFpsfJpjYBYPfuM2XhMxqLmReEE+8e9OfkxYzmzvpiOyXQ8ch6vV9tf87FwbI1HzuP1mvbXcswOXB9nzltRGV0JGMF+WZtYg9hPKPbANUHPWuSMb43ajgEr/jm8nFr/Aivj1ZbR66tdHsLk02vxbC0Rm3waB//5V7hyF6/1/VnX+nBPFzOEZafPWhG3g4WvkF6djIwZpmUWsvbD2MNN6+5jUoYFrQVJzuN1a61bFv5CTTF8548YFiRiw3fi9NwucFz+NAYGdgS2bOTvSTZymgnyW8/LG7oaUP1q1LBA47Qh57FH9nEmlDqpZcwtR0xNvhFo/DwPDV7VtKuTr21D5coOIFBTRm5X5HE+7cTUwwKz/pqVcYSafbDmzBS0VSLos+Y6NvQzqp9ftgEHqgFBGiNJZXYdWt0ATjlonvntF2D1AfbzUlw/mcqsjlZMvDjpiMUF2AtzmXZl95guf3kSS25/CHZ2eARPLvkDO14pnvqxsO6wrxPPcjCD7jR840F7rFq1ShyVHxZ3UH7LjUoUCdIpKfXputKGj4+KOONispQYYZqWEx8vnRXH6mfWjt0mXREp6meWR3+sKafFtJ1ryf+Q1rYcKx3Ik6MG7LZz6jNpU11N39R2tXXJZVpK8dtEgm48WtolqpD7os2XMW9bpy8ypuMyJ+ezp036phtn4zGk8fHEmJ0Xh8bD6tCkKWMyjtH+9WHYa8cp2A3myW60+TrnZZSnchNGzZekuzzhuCQ94iFJr8bL2TILH1HKxMsFbJM4ipWNkqSjZmV5O9o61T5p65T78qroB0OvXV7G0FfL+JR6ykf0wox0pYxdWLkgVn7NRRG3Q/q7rP5QSdpTIBI47ML2qylJU/eIuEAu25vdAiKu8lU//XQt1srIdWr6e/YrSarJ4qFTJUntknkfdeP8PKlpvP8Pm43JFVxOkaQmrKH5x9QESXq9iSbOyP6EdaQ+u+75NuK8s2oar4N1Vs3nfNJRktqx+8IRLPokUNOHa+5bXi/aSZJaVI6zMvWHS5LcvBiP2ja7Jn14V/UCuz/+e0YpZo+M9yTJ+xlJOi3inNsZktSK1TP5J5FgB7m8N3tWmlQiSe+1kqSAySLuCPwz7HSr9awf4OTni8CxBZLUngUL2KXh59JjpIi7AW5n4VnyuPJD4OBk5daf11VkWHAJmbPGIffOQAT3bibSAP+YGI2PSnVUC6uPwswsw6+56/sTcPlcBILmD7fry8KtGl/PbIJHD3yIlma+vfbayU3ZiBv+mr75dEb4aNVYymH9XzwPvw+chXaq43BgJ/hF5eLqtgzNlNU+nHpMsWJ83T8dDXaaOhpf374Yv54eiBZvxbLfPpxANOkVhcLkbTjj6Ezfpe04NO80fGe9ZRinf6deqJabjJwMTSVsPK2TxLlg4+karz0vjo7HH77LkwxjqB7YDFXkIwX718fRdlxE1HwgVZ3mCgbayAeCE8CKVODVeCBGm+5qkoCFd4H5Y0U/GK+yn4/a/36+GmwB+w38JfuZp5aJY8dpy9kvavaPxJh6zuSRYhLeipSLOEz/Osr/qRqcWjTDLuw/JrD+zORXU8D69u9ZLG0i94BxHVs/A0KnAk+LSrlD9QTtr3i13WVG/5/IJ4Ggw8B3LBgIBfbsEWVY/9ewy+5yf6FarYFeTdg1FNa+K/uBjewej1HNO1eAj94Fhi9laXWVJN2pMNbBeBaXy9QCPmCdVctzgtnF3sN+/utZbRxl/9dAdjvTqbY+U4Am7CQlaOqtPxzIYPem3DzrSygbnwq7Jl/p3ItyYEN9toEoV47gvkSpY4ABLnZItoVV3x12afi5vPuM+D99xHnjWlnDbQSPo0LHOCXTAhnpw9DJXIywh3dSpDrVwcosZV8GGm5lZ6LQPwzVFHVgFd5O0sTfrT94bbZzCZeOnWXP9uaore2bCddxI/McClcOxjdyHTwo006mCB+etJmoxsRP3nbTqQx5PLkrsT9crcOX9dvJSefr2bh5Lhf5g8MNdayImogbItuAS8bjD+9Aq5U4cH0cbcdFtGEPG3Zf6pOteDiGab7ES4IT7GuKNYMQG8svstnTWWInoTn7SlBVSDQTayWEuQ/PFGW+wWEiXwD6bWcaTgiljC+AtZ2BUU7WYxP2L3ngMvDgg4BVbcL0/F6mkqeyZ7d62jzawHI5OasjyNUCxwImCJ7pxcTIl8qTaT0Ttd3+pZnOus5OFLvnFsVqOsvuvR0i2wD7xgrUCBxzOn6gXLQqQ0UdVpylbXGCCar67ERp/09rBTLBw/4eylLinPrhQuyULAXsPrJ4N7M3u2wB4tgRCoBfdF7w3JZde4dgl+er1cDXzxkvTx8Wz5nOjus54U/kBA757gjhc2wQ0Iz3qxwLH7cRPEN/UC5KS35zsItizW9H67Q8KMFMjHAR0rU/bgxTyxxB5BBTufJAkzBUzs3EDTumAN7OM2va4OxjOnvV2G3HBz7N7P08UaxClQcux9PqeETo+6FqrdEQOARRM6OYEBtl4lsjj4dbXg6Z1jFIxypllepN4FWfW14Omdbh1LJ1J8djBfvXxzXtuAb27f4wu1kz2UPIlagCRyXYlugSNAllZaKAo3eVfyRD+En5lmNMZbeo+kVsHt4z95UtaVhftFYebolxtXWHt9Gqtji2Bru927KbZuoes9PGgrMiziW0Zj/HZStJIrCS3Qe9tKa36kwpsntueLxlZ4uyiurlFOWzKX2BWNaOM6KHW4nOpcPEpHqFCR3+rxDOhI8jsAv/rM69KAem/b5ivxkd4cFulv46hUyxmvv12OJ+JmoGmPvrFLI6zP16bMEuzyqzy8KdlgP4j/jzRmdoV+LQyqwE5Zw2W6FsASbtNnUJK0+43ZSWo8JHF9lS4Q+vQPWxp1gDtFRvHYPa9ffh1Cj7y7urd56JbmuewtXBXU1FjwPtyA/ufQuRqX4uaynSTCwvPmgYw36prZyAPQ6uMvMfsowJqwsmfZfHU2kljrxXjJVbsjN0JeRPeM/SCdlhnB+PHvavj2vacQ3BwKD27GHD+lPcDQDTVZHDbvjm7BvMpDohrCazn3Ny+gngUfaAY9rGQDD7jdeePSifV8tY4sopLVegWnneGAnMinCxdUfQnNW5gX2XqA7G3AH5n9qHGhNFf2OXb+qLpbhpoZZaHVkHWRjFru/xHuwkac0jwgK0aIjzFhkDV4BEdp9YwE6ELauQOaow+0DjbM8tUnyayzAFZwcXTWndz+6dKexUjWOiWeY604R9TFdcqWwQ1pcp5uaW+4ERU0xXdvFl5VvYMF8yq4QvX+d1mO+vc6+xa90RQsfza3FOy7HQUXE7waOiCp9eW5wQPbIVpLFmamYY7o6eiWr7JiNFXVHEfU8y0hBchaUZpkRY0FtxxOCi53FRp2GVlgPtaD8nlxlWiKCZpv85vEzftLG4rZ1KYkG7GswUH4RNmCMvTU9RVy2J8TQ6oZ3iYcHKePRh9c7MQNexJ0ymxpzdidn58ejgwPVxSTuGlVXs64ILh1HNlbiz+/C8ukvZUDBWM5XEg7VVVHrMY7/Y97I65B2Z2bfpn2KpvAEmrHaxby9DmUHA5+wzFmXYQNqOEWXU4KqdnUsAYeX5kn1xj3W1dUfQZw3w7m9AO2/ldLzTlMXNfrHzMukDjWXUUGqb+UazznDeesNyOohPR2VPZfebr2lnndmnZ2s/0892WgfEf+Pc05ALs/QUYBtTi2o9r9xi9xqTC6XwVO29FBizSXSlBnBzFbBZZ0m4Lar3ZgKC/fvw3xa8nheYAM7cDNxDdxynsGndYbeDKnTultzM9j3Hg3sui2OrrF69GgMGOHn1CZfDnaCT1nRHJ/OpOIKooHCLS5v/ARfXl4zg0YO/huJ/rN31fH8fgiiHcOvOC+zvbnvTWW6G21p43A55JRTtdEwQBjKAZ/9ZAr47NuB798w6BfS1uvqTIMo+FWFXZT1I8JRVTFZxsdBCcXLuNdy4hJ4gKiKGTf7aAM/vKVnnYPPNCRs8Cyy6WAZ3aiYIJ1hw1/13VdaDprQIgiAIgnB7iix4Llyw2GXlnnNqqTf+lvUnkv/12z1eTkwQBEEQRHmiWIKnUqVSnBG7VAXjn/NEz7W38RipHYIgCIIgbFBkwXP58k3Url3iW4da5fgCYGgVIOVlJZ7zaXckT7JcB1r5+ZWInR2NGnLsJFK7t0de3C70HFrCax8vJiOp6wDknhdxTpt30HnbUNQTUYIgCIIg7g3l02n5AvDhCmBKbxFnBLz8rbJjbuoMeCMAfiszld1zDWLnHnLyU2wKHYDLXVeih2Yn3y5v8H3TCYIgCIK415RdwcNEzYj2wI7LIq7h+DrgyEtAR3vbvhu4iMw3I7DCtz1O7gUK3n7UuPqp2xJojTAcbi0y5Pt2Q6rhxSHcQtQaiev+i6QI8VluyeHHrcfjkLx5KSszZhIKTSxLCgExMYp1hwsiuV5en9oOqzfRdPfTa8lvYp2hHyyY9FX57KYlmreaGOo1i+8RfbQYD/BVP2D6zyJCEARBEG5K2RM87GEs71TZDuj7rY6o0bHu2KcOwt7fh0H5qWjaFvB+Z5fB6jLIbIpJnhqb1wIRmcIqM6MSTj6rihlODvLeTYN/Iqur0tvY3mWrctwgETn7WKGTKcjbG4BasRF2LEvpOPlobxSM5Zaow4h80V+kK3CxEz8gHrWEpUruO29PR6DZhrXzCu+j/nieXQuEzmLnm51zEj4EQRCEu1J2BI8qdGKAmZcAKUvfguO8dccJLiYjc/5Z+M3+B8LFluwBnXrBO0eIGSVFk689VriWfQyFLN27ib33yvBptyRER/NyXJDFi2PORZyNT0Bhm5EIM6Q1RegbL6Jy+gac1lho7NMGTb+abWM8iujhnlyq8OnD4gRBEAThTpS+4HFQ6MiwZ7Tz1h0nuJaFgvM5yBsYZpxGaj+Jv/XfYWo0aYbK4lhGnlYSdRmmvTi2RNE1XM88j8rhgdC6hSt156Ag2yhWXIksfG7JvtUkfAiCIAi3ovQFTwjwk8QetAnARB/2oA3U99vhlKh1h1MjEN71jA7PxrBfY32xQ9NO8GubjjOLE5ls4fGX0VOeSnJmO9gaqB5WD4WHsqB9AbM965GS7wj6dXB/Ho8HgPS3FYsPvSuIIAiCcBfKzpSWPeHjEuuOEBLHshUxYk6d1giI8UDe+H9rLDHO0hTt585A5S8HIkXrUOwUddAgNgaV0xcg0+DIfBKHP1iGwja90Vizot4wlpOfImUAy5dTtWjEl3CoLjCrQxY6HsDhCSR0CIIgCPek7Dktq8JnD7Cuu1H02LPuGFZWyVNQxmmpdePVhz2nDsKGjZLFyBbdaSbFubnL6CPYFyby5WC5gsom3KpzeDW8FxpXg+ntEWSLGl3eR+zqWFwxTK+1x8k72n18jMJKHsvIu2gnL8k3pw18gxMRr1uHInZUoTP5IZFIEARBEG5G+dh4kGmNEc9YWbVFWIf7D7X/Cn67tqG9xqJDEARBEBWNsmfh0aHEfXcIgiAIgnBrimzhuXixAFWr3idiRJkk63MkdN6IOklfo01TkUYQBEEQFRCHBM+qVavg5WWcvoqLiysTb0snCIIgCIJwBIcEz+bNm2WRo+W33/4QRwRBEARBEGWbIgsegiAIgiCI8kK5cFomCIIgCIIoDiR4CIIgCIJwe0jwEARBEATh9pDgIQiCIAjC7SHBQxAEQRCE20OChyAIgiAIt4cED0EQBEEQbg8JHoIgCIIg3B4SPARBEARBuD0keAiCIAiCcHtI8BAEQRAE4faQ4CEIgiAIwu0hwUMQBEEQhNtDgocgCIIgCLen1ATPR22Af/woIqXA1fjXsda3DZJSLokUgiAIgiDclVIRPHnfAWuigbc6iASCIAiCIIgSxENiiGOrbN68GXFxcSJWfLh1p8bXwIsNeOwodsd0wKl9cpaBajPTEDckUMTKG8qYLvQvz2MgCIIgCPfhnlt4VOtOT1nsGOECZ1B+vhyeXj4Qv03sQ9NNBEEQBEG4hBIRPFzUtP8HcFXEtax5Gxg2Gqgp4nrUjB2OhhFncTPrupJwdBE2+vbAT1nccuKLFb48WPrfKH45aj4LPZYiV+RxLPLlOkWmhrOLYuyU0fZDBLmtfBx8vSWLKxarGxOjzPIVclYA4XNEhCAIgiCIEselgufIR4CHB/Do98DWf1uKGmvWHQvys1GQI44NpOFE1ADceusIBuUfQuuBdUW6Ahcz8YO/h89ans8tRT8i6PeJSNIIjZqxH6KfsCIN+nE6vES6Fi52dixpg8gjSrmO03/HiT4Tkalqq/x4JLRkgqbKTHRV6+JhyxD4wxctPzyotB1harVS8hUCBgGJfsq5IuFDEARBECWPSwSPKnR6nAeuSMAJHbHDccS6wxQFDr43Hvn3DUFwnNb/pQH81yaiaycfdsyFRbw45uTjzLYk/BE1CuGGtOYIHTcQ96VtRLaOFUcXJmYOL7gI/zkTECaqadCpN7zOJiDngKJ4rmZsw5W8KATPNQqYosBFD/eeUoWP74swsUYRBEEQBOE6iiV4HBU6HHvWHeP0Tzj2n3gdXdNnGkSHQn14NzFJ0HAFNzLzUDksEA+IFE7NJs1RGedQkO2gL9CVLNzMO4vcfi2MU1EdJuOmyOYUZGXijwZhqFZdJBQTVfhsqs+OSfgQBEEQRIlQLMHT4jXlYb2lHlCLPayDrfjtcOxZd6xN/zhGLVQL80NhZhZuiRTO1eyjKLQplMyoFQgvP25JUqfF1JBusCZ5B4bhvrOZuCHci4oL9+fhorHnOXbMzmX+MhTLckQQBEEQhCUumdKyJ3wc9t0pMr5o2K0r7kubj0MGR+ajODxnJf6I6oUmjq4M941EQNc/kDtultFnx4yakd1Qyy8NJ8aYOkSbogiw349lw5ouUoVOdJ5y7kjoEARBEETJ4VKnZVX47HoCeFIjehzz3Ske3CE5dvkTuGSYjhKOxU5ZixSn445D05HRQkxpyUGzIsw3FjEHhUO0IZ+FNhrHZl7P8JG4b2k/fK2Tz8WOKnQOjVPSCIIgCIIoOUp840Fu3elpZdVWqcKXunf4FgFpW/Aw7Q1IEARBEG6NSy08etwL605ROJuyATedme4iCIIgCKLcUiqvligdlNc9GF9hEYVgsu4QBEEQRIXAIcGzevVqPPCAccF3+Rc/BEEQBEFUJBwSPARBEARBEOWZEvfhIQiCIAiCKG1I8BAEQRAE4faQ4CEIgiAIwu0hwUMQBEEQhNtDgocgCIIgCLeHBA9BEARBEG4PCR6CIAiCINweEjwEQRAEQbg9JHgIgiAIgnB7SPAQBEEQBOH2kOAhCIIgCMLtIcFDEARBEISbA/w/yu5bCPUS7twAAAAASUVORK5CYII=;imageBorder=#000000;" vertex="1" parent="Hab7gQNjuxkPKOEClwCh-28">
          <mxGeometry y="29.99999999999997" width="473.31" height="182.04" as="geometry" />
        </mxCell>
        <mxCell id="Hab7gQNjuxkPKOEClwCh-19" value="" style="shape=image;verticalLabelPosition=bottom;labelBackgroundColor=#ffffff;verticalAlign=top;aspect=fixed;imageAspect=0;image=data:image/png,iVBORw0KGgoAAAANSUhEUgAAAhYAAADxCAYAAACXmf7AAAAAAXNSR0IArs4c6QAAAARnQU1BAACxjwv8YQUAAAAJcEhZcwAADsMAAA7DAcdvqGQAAET0SURBVHhe7d0HeBRF/wfwb1BepJcAoUgLiRB6FSNKB5Um2MFGUZSqfwugr+ArIE1sgKgogg0URZqAGqQjSO8JEEIPBAiQIAFByX9mb/Zu73I1ueTa9/M8C7uze7u3e5eb387MzoQ9OfDTTBARERF5QT71PxEREVGOMbAgIiIir2FgQURERF7DwIKIiIi8ho03iYjc8Envs2qO8srzM8uoOQokYc3vf4uBBeWZyFvLaf8nnTit/U8UCOT3loFF3mNgEZhYFUJERERew8CCiIiIvIaBBREREXmNCiwa4p0FPdHZtJD7ojrguwWDMDhKLlTA4I9H4p122hpyxOqakf/j3xQRhaZcLrEIlB84mQmMxHd9Kqhlynum78o6e8FTu55Y93EHxKhF1/R96VNuZvCm7475WCMaqvTcwr8pIvJv+Xzyh5/4Gx7rNhVTEtWyz+gZkMiytqokf+U31yx3bdh6Ho++7EkQYUO7c38GleeNwl3d9CkeLd0KTDzMtGXAs6ALMNVwrA0xvslM+TflA0fx+gPTEfPKThxWKcBFzHhFpD3wE2acVElEISbfY18kq9lQlIwp/WWGMBurVQr52IZV+B534M1sZc4iU3v5DhwXGf2ry1WSZjte7f8b4tWSd4g78kFR2GB7rOWzwb8p/k0RhTL7VSHaXZ+leNd4BxfTZ5A53VjE7CjdLm3/tttYFylbjqnfRar1+p2nw/dou31PvCOWre4iPS5al6zfn74/++dt8x7U5PKcbIvVjdfI7jULRiJjencj0PUZw/UysL0OxuWoOmiOjfjCKqiwx95nKdOewaPlgdhBIl1+Jtq+HbRraReD2FPuHEtx+H0N5b+pELFlNWJkyYaaXt+i0vUSDzU9uOCiKfnkTjwo06Yexcqpct1qrDStMbB+rdxW4/BY2fPmmzPVnOdWrtyuvV7+b8vZOgp8dgIL8SPSA3hLL9qdmih+aPUf7g54s+t5jNfXibuSn52leyB2UAxW6683HlMxr9fuPJ28R8Wy/Wy8Oi8RtzatY/7R6xwr7jTneXIHK39Qu6DSos/V+Y0y3ZW6OG/PzinrMe6aCgx3laEEo8Tf8Nai81mul0tVS+NWNauxyij1fcnr3BzHXlHXuNvnWN9UBjHb8aqY//4UtFII02fiLfybClkySBi7Xy0YycDgV8xXS9K+r+ZaBwJHtmLqCjVvJetrNQ6PlTMyADBO7mrduiFiY2tj1aod2LBhr0oVf19iXqbJdXIbCj52Agtxxzj6N0C/WxpkuF1LPIvjiBKZnc1dnKN0D2yYavjhXL5K/MBHoaXhrs5qvbP3qFjvLx4byt+GdtpmDdGycSJWu3unKam707dsi7hdnLdH52TvGHZeEyriv/hJO/fhOWkMqbU7kBnlYmxQSdp1Rik8OkkPOEylFJUq26l68Vq7Bf5NhaxTF7FP/FfrqUcQ/1M/bRrbRCRsOWIKDNrcY0qf0gy1xOL+E6rUQkoCOk6Rr2mJ1ipJY/taOQ2q4vhYOfTWW73Nk6fuvfd2LYD45ZdNWkAhJzkv0+Q6Ck5ZAwt1l/cmfjLdubyyESfUKq2uWvuh/gl4Wf4o6z96jtJzidP3aM92fLEIaN6iAmL6NEfs1njDD2pO5MV5n8exI2o2pJiqRE407oJ3YlWSK1aZnRMigHtW+9wsk8ftItw9lsS/qdDVpCq6i/9kaYRWPaEaeh4+kaqtxopfTemD/9SCgn0n0kzpUpvG6FtRzRvor+1+hwgmjBwcy1PZKZ1wxhhcMKgIDVmfCpHFyYY755gWt1mKl8WPz2Dtjkf86PeXxcalULmqk3QPxMZa7kxj+jwg7iKd3AE5e48OxK85ADRthT5Nge/nuFGvp/3Qqh9zLRO5A33Md3sNMVheNxfn7dE5qWNYNVps1wqP4gCWB/mTIA7pVSKNbXPUUqimkqw/e1Nm9+gkJ5lwls8S6DzCQZWL8TuQhYNjteuZ9akQ/k0Ft6Q/8ZlehXHyKJYmyZlwRGpBQRWMlaUHr9eQC9q2HfX2EIKxdMFc8uCm+Rst+zFxfix32ZZQeCPQKFAgv5qznqfglPWpEFlkijvwmSwOlXcwFc9b7lzED/3hWFO6VoScvNjUIt5RuqI1hlP7c9TAa4NI1bf5TKtbNhbT2nD2Hh0R7/Gb5CjEZiujFneP4g6ukvk8YnBYXjcX5+3ROWl3qItxvOsz5tesGwSM9/rTDIHFVCWiFiQt2JAZuuka2X728V9MFXfbB9DcXNUhJ9l2ZZW69raf5Ui03KB/LslYvlm27RDpbjRE1I419byhWkVMsfFZSz/4NxWkquDZp0prc/PHqgaTquSh1lP1TdUXemNKm7YP1bo1ti5d0CZ7jTRNDi/4SdtGNvDUX2su7ZCTDCAcHMvXjG0q5GTb5oKCT0iNbtp5xEg8cfLzPHgcULaiN/WlYMwMckTePU8qjW+y0YjPn3B00+CSd39TvuVsdFP55MYAYyNL2fZBL3mQmb0xo49shqWT6qOanJeNLVUgYlID02R7Cj3dsB8ZWHT86pxWwjGvW4msr5Xb3nHE8bGySZZSZKdthU4+9SEDiVatGpgbatpLc4Sjmwam0Aks8jRj9n5gIR89/KzpATwb4CUYDCyCSJAEu+7gsOmecxZAuBtcMLAITLncpbd/kHdV6ybJjpMC8AdQ691RFWWHeLUI+Y+A/puiPCEDBlnaYS9wcLaOAl9IVYWQ77HEggIRSyx8gyUWgSkkSiyIiIgob4Q9OfBTllgQEbnAEou8xxKLwBR2ecsYBhZERETkFawKISIiIq8Je/vDr1hiQUTkRcXL1FRzQNrZBDVHFBrC0i//w8CCiMhLpnw+O0tgMfiZnmqJKPixKoSIyEdSklZjyXu1tf+JggUDCyIiH5DBxPpvH0XlOg9r/zO4oGAR9sijj2WpCgkPL40J73ygloiIyF3uVIWcPbwOa799GE3un4IyVZsj9dhmbJr/HJr3mI2I6trwZUQBK9+k96bAdkpNPadWu+t3vBEzFKvUUq47PB2PxHTFzMNyIQkzH4zEG46GBSQi8iOyZGLtNw+hSbePtKBCCq/cFNG3P4ctC4doyznH32TyHQ+rQuSXNRJ19On131V6bgmUL6jpujwyI0ktExFlpVd/NOk+DWWqxKpU4OzRDTi46VMRbExVKSZye+dtMPibbJ+r32S5Xg+EDGSA9OB0HFGLlD357v6siTaj/+/QyqHii/ssMC0Je+LV1P5X32Sm1fphbvwi9M7JeMBeYfojqxPzK9BdJRERObBlwSBEN3s+S1CxZcFANO/5HSIiW6pUFYTMfsxxGwz+JtvB32R/oJVYuA4uRHQ34Ed0E1/gMcbqv9YTMbdvpFoIRZHoPU/+QU9EO5VCROSILJE4+OcnWjAhyf83fN8Lf18+ixWftcWc1242T6tmdtGqS6Jin9OCERmUWPA32T7+JvsDLbBY++wWbUH/P4uVv2JBreF4xt02RVp9m6V4zlhsdmRGV3N6HUMdoKN0u7T9225jXSRoOaZedKfW68VcDt+j7fZD8YZYtroLkHcKLC4jIg/JEonmj3+PLfMHIHHDp1pJRavei9Fj3D/aJMn/i5WJQa27X9JKNrRqEhGMWFWT8Dc5T36THV8D63OzvBcH5xZi3Cyx8IS4sJ8BE/WiuWkPYcEA9YGIL87QSTUxVV8nospWztI9sGDAr2inv954TMW8fl4/VHX2HhXL9hMxZtBD2Ld0ufkLsipO3CkMkvsholAzbeqHhszGNMk0d+nBxbE9P2Sp/tDpJRta8CGCELm9ve3cw9/kbHF4DWTQ8CGqL9XTl+O+pe0MgZDtuYUe90osPBKJ3mP7AXqkN+BHlS5Uq47b8CMG2TaacZTugW7TDF/81s/j5Vo/Yrnhg7Za7+w9Ktb7uwfd9v2Mldp7+x3L5z+EdnwijCgkDRj0Ap58uo9agjYv0zwhg4ROL+11GCxYBR85Ciok/iZni6NrIEuLsAfvdjQFlXVi2uHdfcCBJEsJivW5hZ58bgUVVh+iCyLKk8VZQ/GBKZpbOhy11CqgLcZoEd4HwCvyA9E/MEfpucTpe7SnLZ55BVi2IglHZnyIBd3vCekvDVGoGzb8DS2gkJOczw0ymGjSbRq2LBiQteEmf5Nz+JtcDdVr7cEh23qKI4kQMYLi5BrUGo6ftXWWKbTbtlhz83FT04f4bkebL9fKoVlbIMsPRlz0ieoiH1nxs+WDEl+emVrEKhvYLBcRrPpgHaV7YEGc5TGrIzNeFBGkkwjW2Xt0oGqbzsDST/D5UuDlZ9uqVCIKVTKgyK2gQnL+VAh/kz3+TdaCF/16RaJ1xzo21S2/aw1ia3VsZ6q+cHQNtKBuPD7X1pmset262ibUuRlYiA+x7yLsmVbTUPwjprh7skZpssgL49FZbTP0UE1L5FmtH6rF6a9vh3drfGZq0ewoXVkwQF8nJgeNYbrhV/M2nbV6MSdFUc7eoyPiPQ6o8SMWoDNa+/yRKiIKRoVLVnXzqRD+Juf0N1lev6ndZVWHfi7P4sAryy3Xz+E1aIsxS4fjgOEaLG8f2lUfttiltwdWvR6JadUNXzwiIhveGN10yXt1UbnOg1pQofVzkeMGnMGJv8n+icOmu0sWo3VMxIBstI4motDhjcBCqwb59lGtpEI+HcKgwg7+Jvstt6tCQpmMiut0HI/bQrylLxHlDe8+FRJ8+Jvs31hiQUTkRd4osSAKZCyxICIiIq8Je/vDr1hiQUTkRbYlFkShJGzq7E0MLIiIiMgrwpJPnTYHFiVLlMAttxRQS+SJqm9XRdrVNLUE9I/tj7Edx6olH4gHGtUC0ocCWyYAJVSyP7mw+hU0bvUuzP37VOiHZds/xb1l1bLXHcMXbaugb0JuH4eIKHSxjQX5TMmWk5CUmYlMMR2d0UalEhFRIAudwOLqEbz/xRJMctVPbLCIAbZlAom+Kq049gXahoUhLMvUFFP3q21y6sJqvBJp7xj6ZHusyujzuwhkTrK0gogotwR9YHFhw0rUmbwAdabvwIy/VCLlkSaYkmAqkbBMmzGohlqdUyVbYlKSvt/zWPVyNXHIKUjIjWMREZFbgjywuIYzFepiz5Bu2NOrun93pCLbRIQBs06oZSH+QyCsA2BIwtJnRJrYzjxFAWsvqpWC7foOs9QKneE4HzZyvZ2+fuw0oLzNsXLXBax+JRJhTaciSwGHKqlo6mbRh2zLESlOwlySYW+fwrEv2hq2eRPTxPErPvcLzqj1ktU2NiUi2jq5b2NpTcXn8ItxBxrZ1iPr64mIgkGQBxb/QY0qpdV84JOBRqdjwPFMiLtxNSUCdxvqOjp+rtJPA33LqUQ7elcCksX+5LanlwC7exuCGtXws/RMy76SRovt1Oq8URIt/zsTL6eOw3s2OfOx+aPwbvgUfONmcYSlLYcq1bBDBgVV+qabS1jOT7qMSe8ah41U24yIwrIU0zZHZxTD4DY2gcOWwagZ+ydelducX4WXK6t0IqIQwcabAaRUNFAuDuhjW7qQDUPXABPuNs1HiLy2vGlWE/8bsL06MKKbSogAXh6u5j2yBYNr6nf3cqqI57LevjtWsiWGvFET00fMtZQwXFiNyWMS0G/0I/BeLccxLP92BSr0G41H1E5LthyCN4ztSfXjzhhtbp9Rud3jaJP8M+ZvM5yT8ckWWVWzwV57DtXWg1U1RBSEGFgEkIiOwKlM4MM0SxXFsLVqpYdinAwzfHi3+CcSqJbjVp+2bSxO4lMPW01W7j7SqtTCVFrxGl7yZuvLC4ex77CICepWg8O9XjqE7YeTMf2+CEugVKUvVqjVZhXqopoX3xoRUaBhYOHHtAzejpgXLFUYX7XIfnDhSLW6asYfWJVayJIFb5dWCCWroZaTQEtTtDoaVquAfstSDIFS9oIlIqJgxsDCz8Sran2tPcUM07xuYxxgr+2ks9KH7NCrXKboAUs88PiLat4H9FKLYQNfxZh0L5dWaIqiesNq2DLuPXN7iWNf9EZfY3FEyXro8kABTO87wk5jTE+x8SYRBS8GFv4iBvj2A2BiC1MVxwvFgX1i2ej89yJ/U1UgcirXCXhqDdDrVrWBl8gqlxWG9xL2AjDB5r3kKVVqsXDaOrT3dmmFpiRaTlqFGTWn474IUzXHgxnDYd1nl9wmCUdHJ5q3yVa7ESKiIBfkXXpfxk/fx2Fkilo0KhCBRc/FyqYEXuF3XXp7mSxBqbUEOP4b4OU4xi3aExkfd0fC5kG5EFjYY+r+++PuCdicGy0s5SOzHWej3UJ21kVEwYVjhXhJUAcWIjB7poHIascBv/VSaXlJ9gtRZQSilm3Ps/YMpnFMVuOlhNx4ciOXgxYiIh9iVQhlJQOJ8qoaRE7lfBNUmDujyoOgwrYTrVK5FlRIpsdNGVQQUTBiiYWXBHtVCBERkTtYYkGES9g4oqa5tEJOpZ9cgFNqrf9Kweyu4v2WfhILrN6sKT1m4i61TESUdxhYEKEo7hidoPqlOI1vu6hkynOXNo5AzZiJYEhEFLiCPLC4hi3LlplGN1XT7d/twlG1lkJIymx0NZRIyMkv7+i19xkD995aBHouEsHQua/Rzdgne8BRJS/iMykWO8buAHFEFDiCvsTiP2WjsESObiqnfg3QIyMJDzO4CCkps7sirNwQFJ+fbOgxMx2LupdRW5BPXUpH009Nn8tpFhcRBbwgDyz+g3qNo1FFLeGWCri7fAFkpF3O05E6v/vuO8TFxdmdFi9ebNrIzeHMjeu0yTisutxHFDBvNlBevTZlqWk+aph1r53akOyG/RiHa5dcDc8u34fcv3E72/dqeww52R5HcnpOks0Q7lmGeHcmZTaefXwxak5Yga+tbuuLIjras9t8LUARb8Ay2ZYsZG2rkaX9w6WNGGE1MJvn7Tm06gLD68OcVB0Y37NVCY25ZMRSWhAWVhpPWr1Z4zo1WR3L0pbDeBzz+ahztVcyZDoHdf2KRsPDj4KI/FhItrEoVLwwnIwo7nXh4eFo37693alkyZJqKxOnw5kLtSaooczltA9oaOx6WzoEDNsp8mKx7px4bfPVpvli88S+VGCgdXY1BVhzwbQf2cNn71aWwEHrTtzF8OxSnNj/6qfVenU8q3FLalnv44OGwBhxXHN8oh5rfbG0zbGMnXCpIdzbr1Hr7B3HiUuH43Eg/AmMe7KeSsmBMoOxU7wJS1uMBEx8xxIUpMx+HLE/9jFsIyaragqRET8eix/77LSsF9O5r7tZjS7rStE7RiNBe206Nrzh+JHVhGH10erEGNNxTn+L6GFtbAKHBAyrXxvL+siSHLmvaJVuUWaw4b2KfXRJmIh3rFuKasepvawPksU26RvegHkvRe/A0FlvIHPiO1kaly4eOwZhE77HUC98LETkX0IqsMhI2Ia3Dt7AI/XqWUox/Iyz4cwlEYtYlBKZroiQtotgwqw6MPM1QIsBjPM6kZm/O14cZ6YlUIjpIAIUsY+f1aBn7g7P3l7sQ3+vskvyp0XgMO9nS+AQI96rsZfO6EYi7tkO/KWWU7YCS06L9/iF4948l74LpA8FXnNyHGcyknZ6rc4+Qlx8Sz5YCJH1ayB1ywGc1VMi66NGwjA8aucO3cT0moRhj7rZhiJnak7YiXg9545oi8e6pGLZvD8NpSPheGL+blWSIxuwbrAp1YkQ3zdDzl8oEvVrpGLLAf2MTcKfmI/dKjiSQc8GQ6BU9I5BGHnnN3jta8sJX9o4FaP+8FKwR0R+J3QCi/TdGPrbGVRs3AyviDvgvJaamoqBAwdaTfa4GlBMr9oIk5MIKmZ4WqdzHtgmXmMeB0RO4nqI/N7Ma8Oz23S0ZTuo2vmDwGkR/FQvohLsOLhNBCMTYTVGyovGN5uXrKoxiiF2jHXIopckrLr1DbWNbdWC/vTJKtz6htpPlkdF81IZ1I00BhJZWVW7FIuFzSlrytSNdFLiEoEurxtLLVRpxdBXA7zBKRE5EhqBhQgqBs06hqrtuuKT5qVVYt6S1SEfffSR1eQpGVQ06ASMO66qBUSA0NfTOh1VyiFLRrR9GCZz6YOSneHZI2NUCYmhG3B9/0v6apuYaSUjh0TgoBdh2CFLOaoPBS6ofehT4gSbkhgHIto+hi6p1nfM2SKDiqbGagzH1RARPRdp26Rv6I/N3evaBBeSeppD7qP/ZnSvm3fBhfMgwJoMKprG/og+O1VVSPoGOKl5cciq1CLld3zH0gqioBb8gcXVI3j/x8P4x0clFd6U5Q5flT54JAJ4QAQnE3tbN8Y0cnd49rgx1u0yZElCz3amZf29NRTvVydLH4wiGgOdRJDTu49NY02Dxg8AlyeKYCo7JSZSRE989m0XrR1Ajh4vzUjCzv3haHKb/iRJBpJ2Gm/fL2Fn3B92GmEaSgUu7UTcH3YiiDJ14aLgIFsSDG0bUmY/i8cX10Tve93P0LVqpPAmsJyyvAZq3iN6qcVrGPjyKBxkaQVRUAvywOIatqyMx4zrZdDbRyUV3iRLED4oBrQoqaoF1HDmshGl7VMfznT8HNg32LAfNeklEu4Oz95eBARfxpi2qfUiMPO4YRubYeDlVHyCqbFpJf0JExHkfC4yvg/OiTS1jTYZnkDRqmX2iXM0Vt2IyZPz1UoQtMaL9cVrVbG+mDx6GkMLUO7EN90rqNe3wonBsjHjMNRX1RlX1vRBBcP+i8V+jKbzVxgaKF7Bmj766+VUDLEfN8X8FUMNbTck2ajSsh9t8rjTqHA88f6D2Nra9Ppyjx/EhJ3xHjWWjOj5Gb698xt0r6DeQ6sTGKyCNE+fZDGVWizFtF+aZi2tMPQxUu7xxbI1KOqrZb/sa4SInArusUJkacXsHZhhW9ReIAIznotFM7XoDc7GCpGPm8qqEHuuXr2KLl0C79l9+YjokiE+Gu2UApB8NLUcRt9laFBKREGJg5B5iSeDkF25cgUFCxZUS4GJgQV5QvZzUW5IcczfHei9hBKRKyH1uKm/+O2339QcUTCzdLDFoIIodDCwoGx5YRtLK8gV/ekXMQX8eCZE5C4GFkREROQ1DCz8UcpSPFNetcTvMMvho5hERET+JugDiwsbVloNm15n2gr84MlzcnkuBUv/2xernlqDC7II+bdeDru7JiIi8jdBH1gUqFDTMmz6kPYYFZ6Od1b787Dp53Fw22lExlRzq2dJIiIifxL0gUWhKuUNA47lR+Vi/v44bSlENyqHpPjDbncARURE5C9Cq41F+n7MOngdjSpV8NvRTWVL+mp1y+PQ9kPmUUCJiIgCRQgEFtewZdkyU/sKHw9E5p4UHN59CtUbVoeTQT+JiIj8UggEFv9Bk/vuM7Wx6FcbN21cgNu/88c2FilY+kx5hIU1x+qn45E44W62sSAiooATWlUht1TFc3eWQ8T5c9jkd0+GRKDj56eQmbkeLb+MQYdZfMiUiIgCT2gFFgHB1MYibvZy9l9BREQBJ7QCi6tH8Okfp5FSqjRu99vuhdnGgoiIAlfQBxZWHWRN34E5hSLxw2P1/PipEPZjQUREgSvoA4uSsa1V51imaZNfBxUS+7EgIqLAxTYWficCHd+egVZftUBJjhVCREQBhoGFP4roiM9PqeGmOVYIEREFEAYWRERE5DUMLMihpOktTEO361PzT3BIrSMCbmD/lGZW35GbWnyKRLWWiEITAws/dOqUH/XedefHSJRVMnJa/zyqq2Qi+fNRY/Cfpu9G5r9ImHy7SieiUBZSgYXp0dMlmLRPJfipixcD53mQpFVx4pr+is+z2Ue69vovt2C/Ws6eM/jya/VIsT7leJ/Z453z8QbTNXn4d7/rYpaIglzoBBbpuzFic5paIO84g7XH/0ZM8X/wzbYEseQDJ7fh8cl/YGaRmlhheKx4dauKKKk2ISKivBOWfOp0pppHyRIlcMstBdRSELl6BO/P3ot/61fGkfVyhNNOeKWWWuclVd+uirSrlsClf2x/jO04Vi1ZW7hwIe6//361lNX169eRP39+teQ7so1F9S97ItFBFUjqjnV4ZOcteLv+Vfz3zxsY9nALdCilVsoMf95ZtL7/HjyjOg6Rd/Ndj5bEvKeboLR87ZpzSDGtMiiIFw2vAS5hxcI1GHL0uloGYmo3ww9tZdep8q78D7xz41ZtnzVMq+3S3qvxeMWNrzHt5+cKzTDhpj3ouuuylmq9jZ194GZ0bd4CYxsXs7NOZzwf+8cpXakm5navibJywcV1s5yjOvcLalHS3m8NnLS5XmY254OLB/Dm3H2Yd1Ut21x783Hb5cOoecewUyYWKIX3jJ+zmWxvEYtaP/TB/jXPIUqlElHoCYESi2vYsjIei8rVwivRKsnP+UNQ4dol7DyahlK3VsQdVcvirrB0rDqcrta5Ft7gLvw+pBsW1StsyvDMpQ12gorTRfHeE2r9g5Xxn71/mor4L15E0hWRude5zY2g4iKaNW+jjnEnXs13Ag/aVFnEi/32uVDJVPLxVC08+PcJvKFXJYgMf8iay+hxv3of2tRZCyok987HxHic1S1Ko4xKd5sMCKargMp8HDFpQUNRtLm/k1gW51jSFIRZr1dUULG6jKWkZ1G9fPhgoU21Vpq4Tj//hafl9ZfX5BaVTkTkQNAHFhkJ2zAhrSJmdaymUvyfLLHwexdPYfXFoni2YXmgRHm0jAjDoj0HvNu2QB4j5TpioqItd8gVo9G3Sn7EnziJ/Zf/QqL5btsRUwCUUrwcnlZBAFAWneuWRkRaKtYaMlGrkoMSJRBZUEs2KVwEUbdcwQerct5+wngcGZD8oB/TTalHzmDd1YJ4sZWxBMMz+j6eaGQ5dmSDKiJwuIJfEw3tMowlFCVuw1tP2yutICKyCO7AIn03hq7IwCMt/b0bb2uJif7/wF7SjqNYXawsGmiZjLhLblIe9W0y6hzTAoebEV2isEqQiqJq8f8AVzNw1K0Ckis4nn4dpYsVsWpzEV6mEMrhOpLOWXZSplhxxxm8zFT7ibt2WS2gGoi2mp+9diVOj+OGtItXkFKgICoXVQnZYHcfKpg6m55mOa9bCqEKAwki8kBQBxYX9p7Dqn/S8dYP6kmBWYewSmQms5YvQOulh9VW5DnZaPMyzh1PQBv9KQytDt7mbtfKJRxJu6bm3aSVEvyDgxdVmweN2o/M8GJuRYeS/7goKSmISsXy41z6XzA2R0g9m4HTyI/I0nophpsqNsK3surgqVpoeTYBj2QzuHBf1utWvERBRPx9BccuqYRssLsPrWop54EPEYW2oA4sbAcg29OrOlqJzKRXu25Y6cdVI6VLl1ZzfurkCfxmW78vJtm+QKuiUJvBUCKQtGqj3QaFWgYnSx/OqwQjrYolP+ITD+I3ff3Jg5gh9hNza0XUENnf020qo75sB+DwEc+iqF+lOCLSTuPLrXrpxBn8vPscUoqH4243i7JS4xOw0c57tM2EnZ6P25xft3DZpsVltYwpoLIqfTDQ92F8mkeWQs27WhD3RMmGsURE2RMCjTcDT5kyHjfny0OXsGLLKVzTMnZrkdHhIpNXGbi4sx9drwAWrV+hlWgM+7eOqWGjjfAGt+GpQufx0jeq5GPyz3jdHADIhogtMLncJcv6ecdwzfxUiKCVIKjGmHrpiZw+XWMORmQ7hrktSuBP9V7qTHbvSRIrf5/Df83vUUxfmRo+fqS/D8X5+bjBneumVcs4P2e9eqqisVTJuF7u4xFTqYu+vuuuGzZP5BAReS40HjfVpe/GoFn+/7ipv3D1uCmRBR83JSKT0CqxKFYXU4d4P6jwtmPHjqk5P/BHf0TpY0FwrBCyYhwr5CbUHLJJpRNRKGNViB+6fNnYWNF3IvutUeNAcKwQssc4Vohp+pelFUQhj4GFHwqMDrKIiIiyYmDhh6KiAvyeb9N0TN+o5j2Vk9cSEZHPhVbjzVwUjI03s00GBzf6od8datlIrtuh5nX1DNvavtbe9raMryciIp9iiYUf8vmw6Rd3YsmXIkOfLqfvsOaESneHHhjkE//bK3m4XazrZ5gaqHRnZOBg3N52mYiI/AYDCz906pSj3ivzwkXsXH8IRduaMu5HmhXFyZ07RKobjKUNMoBwFFwQEVHQYmBBdvyNS+dMoUSJKrei9H+0WeeMQYWclwGFveBCrtNKQtTkqppD2mWzve0yERH5DQYWfqh8eV92qVwC9Tv1QKcGJbSlk7uOo0BMA5HqgB4oOGpToQcXchs9wDBWZcjJVfsIVoUQEQUMBhZ+qEQJh9l4HrqInUu+xFo0QItbVZI9epsJZ8GBO9sQEVFQYGBBdsigYhlOVLwfjzmNKrLJWJVhLMlwhFUhREQBg4GFH4qPj1dzvnFyzQoRVNynqkMuYv+OBPcab7pDL73wpCqDVSFERAGDgQXZOIlDyedwctNcVSowF9vTizhuY0FERGTAwMIPFS6cdXjxvFMRLR4zlAiIKVeqQ4iIKCgxsPBDlStXVnNByvjIqaOnSSTjI6w6WZUil/V9sI0FEZFfYZfeXsIuvYmIiFhi4Zd82/MmERFR9jGw8EM+HyvEG5KAFmHAJ4fUsh2pK4AqYpswfaoMLD+nVtpS+6s8GHC0SbBJmm66LoOXqwQPrHjBcF1z8brl1XGIKHAEf2CRvhuDJi9AHcN0+3e7cFStJt8JbwMczQQyxXToU5VIXtHmQ9N1ldOnd6vEXJBXxyGiwBEaJRYFIjBjSDfsUdOmx+qhilrlCx06dFBz9kVFRak5MosE1ojM69gUoLRKClTTWwDNP1ELTkT2M2XYU9qpBMqZnevRdPJqLLmmlqUT2/HUVJs0IsoRVoXkge+++w5xcXHmad26deb5xYsXq60s8ufPr+aIiIgCCwOLPBAeHo727dvbnUqWLKm2srh+/bqa8w2tbr85sNnYBkIsG5tLZLnrdtKmQm6r18E7a3Nhj20dvqM7fb09gnHy5Fj6+RiPZ3ssV8fQr9shdS20bQztRvR9P7cW+KO/Wi8n47VNBV6oYlgnJlfXVJtsPh9vyumx3PlsbD/nLO1t7FyX3GnPkYKvv1loVXVaZ9Zm7P5HrdZppR+WbV7dZPibNZeMHMToj/RtfsW0Q/+qDYiCW2gEFn+noK/2x70Iz6/3/6ZliYmJas6H/gAenA9s1evPbwJaZ+OHvH8UcGOmaR+yHUX/1k4aaNphrsMXrxnioHsPmSlVfw74WFw2bVs1PV9dbeAmmdnP76JeLzK+m8SyVcPJauKzMexftikY+4HNNRHXLaoVMPKs2Ea+54oqXdDPRb7uzo8t+8lcL96/2gbhwIdHTennfheZp0q2VW2E4fXivd4tjvtBNhp5OqUy8+dEfmg8b6v36w4X100GHm232BzjGNDOUOc1vTuw5TXDejHlRrXY6kV/YkLBaGwxVJ3u6dUUdW9WG0gycFj9F3p36mJa37IMVm1cYRM4XMCwT5IQfq/cJhbDSqlkohAQ/IFFsbqYqn4gNnUoi5Nb/wiI4MLn7gRWGn642z0BHF8I7PDw0snMXs/gI9uJDPA4sNCbnVqJzG/hAlNG7WkgYUvuw9yeIRJ4QmSAC8U566cc2d46Q41qKK7JNsDSe4lQCYgTaVqmKIOEDdYZpLe0F+/FrDjQUEQg27wcj6buBBaIDP7jrzwMJGy4um7FRfBZWQRGTzlpdyJfIwM/T0u8PFWxeEHcfPIARhhLIKyk4Ovd51Appjb6VRfRtlS/LLredAXLk07BUrBREAM6tcMAbZsIPPnEPWqeKPiFVFVIoZqN8GZ0fqzbcxB/qrS8kpqaioEDB1pNjpQunQs5UbASudN2kfk1yov2rjbF8W0nq3QjEVhUy4OPz+pRXXG8yeIaeFuaCFSOifOJEoFLjri4bvrTQV+LXyN9G9tHbPXSnny91Ta2VSVeEtWyPXaIm5DOp5c5qMJIx5G0TByI34IGqhqkzuS9+D5LLcctqFKJgQSFJraxyCOyncVHH31kNTlSpkwZNednnGSaqUdE5qDmXaldTc14Qy7dresq1ValNjJzbGRdHP/7EG2TPCeDikZtgdf0qh+RwTqqJsoJrSThOJBoVSTjIQ+um/4UjKwCWtTefv8d/daofXQH2ov9ehRchBdCTL6rOHrcdVuHll27aqWcC+rnw/Qlyw3BRTFULR6G22KaaAGIubpETD+1vxXGGhOiUBVagUX6fsw6+DfKVCqHZiqJHDDW2ScBvZ4D7nzSukj7+F5VTSDWdxcZnb2bZmNd+vRewNo7RYaQwyoLK+HA/d28U0z+x1hLRiXr/WUjyyf1Kgc7JSOJ29WMh7SqAP3aZUOWkgT13rwtvD7QTQQs/Z/KQcNQN67bljj718IcgIrgJG6zmjfytHTo1iKIDrOuskg8dA67ypdB2//IpRT8vjXZUJ2hM5Y+RCC2UiEkxe/FdDbGJLIr6AOLjISN6KIXWc46hL1R9bGyozdvmV2T1SDGx02N04ULF9RWFn7RpbcIAGIWq2JnEQj8+zGw/nm1Tug3C6g6FSgj14uAY6ZsQKjWmYkf/ndEYmNVvK01AvS04Z8bZDG51jBUZF56UbqcPO2x8s5ngMWNTa/VG4Oa221EArPEMaaKQEPf/40RpkaTUR4Wy7d5wXDt5OTh6+Wd/adVRYBWRr1eXP8R4r3J4MqrT0qohqSy4W6U/l49fb9uXLf0nw3XQkylRZDaVQQbxjYzPz9kWS+ntvNFsLHQ0+9SNEYMrI2GByzVGN3OVcTGB2uJ0MEkOX6zoYpDrN95A/063YVOWuBholWXtCyCmUsWm7eT0wNxJ+wEJUShh4OQeYkng5BduXIFBQsWVEtZxcfHIyYmRi3lPXm3Xv3L3AkC/JV8pPLLntbBExEReY5tLHxgwYIFao6IiCi4MLDwQ74srSAiIsoJBhaUhdY6P4SqQST5tAGrQYiIco6BhZcc+e8RXBh9wTw5al/hjoyMDDXne6krXkCVsDCEial5bvdOREREAY+BhR86etRPBnVPXYFRveeja9xZZGZmijv6UCrDICKi7AiNwCJ9NwYZHgur8+mGPO95MyClJWL7sUqonRddSRIRUVAI/sBCBhWq/wpzL3nPxfp1B1nly5dXcz5WPAoNKx/H3sNe6xmBiIiCXJAHFtewZf0JrCoQgfF53ClWTpQoUULN+Vh4VdSuchzbctSnMxERhZLgDiyuJmPtKXbhnW2pR7D3aCU0yvEoVEREFCqCO7C4dgmH/sqHGoUz8P4XehuLJZi0T633U4mJuTSilrtSV+CFKmEIazgfXbYew5TcGPebiIiCUgg03ryBdXtTcOt9pvYVa5sWwqzl/h1cXL9+Xc35SHgbfHg0E5nbu2Nx4+Y5HtyLiIhCRwgEFkCZqtXwsGoPWTL2doyKuI4lRw6bEvxQ/vz51ZyPaW0s/sDXcYwsiIjIPcEdWBSLRJsINW8lH2oUL6rm/U9UlGGMaV9iGwsiIvJQkJdYFEbrysVx9shh/KBGIs9I2I2ZqUXQNpLtBlxiPxZEROShoK8KKRnbGmsbhuGtH0yNN29fkYGnurcxV434o7Nnz6o5H2M/FkRE5KGQaGMhgwtz51gD/DuokM6d85OMPLwNRs7sjkXty3CsECIicktIBBaUfeFtPsTRzEyOFUJERG5hYOGHqlSpouaIiIgCCwMLLxn560gMnD/QPH215Su1xnOFChVSc+RtX90HhJUDfj6tEsgjyeJrHVYf8GY3MGnrgegwsV99CqLPh983CkUMLLxEBhKzt802TwlnEtQaz/m8gyyiPFS8OXAwE8gU08kvVSIRBazgDixsh0vXp2krzI+f+iOfd+ltcOzYMTUXHJ5aJjIwcffYWdxF5obcuKOnvCVLGeq/rxZyKLe/b0T+KLgDi2J1MVV/GkSbOmJWdAGrnjjJucuXL6s5IiIi10KrKiR9P2YdK+H3Q6j7zbDpgq+7F9fvHte/ZqmDt7qbTAbuE2nv71P12WqbPj+r9UKWOnzbEgW5Dzv14NrrDOlaaYRxP2KSx5X0Y1R8WizsAmrb2cZMvWd9vad3x+ZSEeN+7NXjuziOs/MxsznGgpMq3cD42cjJnc/Hk3PW9m+vFCgNeC06G/tS70GbDNdNX/f0L+IjfMmwjfHYDs7Ho++boH+vrT4DB9vp6+uPMJ2v8Viu7Bh/G8K6zcHZHeNxm9iJfGw8LKwb5hi7yrFaZ5q6GTaQ+4h5cyG+ejxcvTYZ87X5GLz5519qK2kHxt9m2I88rlpjoW9j8x4oqIRQYHENW9anoOrdsX4/hHr58v5TnOIP3YvLH/kZzU118JkiY6sglm1/XF+qDawaaNpm3XCVqBjr8G3XaSoAb/QG/jtHLSt7xDEKDTMUY4uPZa/aj5y+vBeYMAmQ+ZJ+DK2NQD3r7f6vlvZqE5kxVRS7WqzWOzgfl2Tw0ggYeErs4yIw3DZWduc4Ts5Ho/aR/J7aZj9w/Au1TpGZ8V0zgcXyfRiOY5vZGz+fi+uADLFNliDGgebiMxueAUyyuUbJC4HxhYA5/6cSXJCZ+F1Lrc/ZWE3RfJwpTV6Hevo5y2knYPwIpRx93xT5vW60Cjglt5WfoTjHHobrJoOKp8VnoL/faf+I881OLenCnijb4wq+viQfGz+Jn3quRc9njZl+Y3x0xvRIuZy2j4vGwlFTYYwZEkYNx6EhR8W6fehZti12aPP/Yu7SvTBtJgOGhviyx0Zc0vazHeP29USLN/9U6ymUhExgkZGwDRPSyuJh218I8nvyR/6LzmpBBAE9xA//0p8MGaDQW2Sg+jYygzBv76Y6YvuMWdZ3pmNEhvl2D7UsVGhvncFUbwCkbAXOq2V3rJ8CbBdBzFgX5+NShMjMd6hMsTgwboN1Pb47x3F1PsnLgV/EcczXQBxnsLhrNksTd/s/is/HGHzJIE1kpruM11Iwfj7FRRDkUbiqjjvzv4Z9imNPGS32+3bWTN+RwtXFcUVAZsy8syun3zcpQnw+O0Sgpl06cY4xxosivn9zfrE+v+aDAfEReq7mSGzc/BaaFZELFVCtbriWbNagPdqXUfNC2RpNUSphJ5KuqASh5shZeNW0A6t5XfL8d/DOTSMx69VmMK1pgHv7RCNh7lLstYosGmD4ARl4LEAPwzEpuIRIYHEZv+xMRbN69RAIPUScOuU/LUsvXhS3UgGgbqSaySZ5lzlCZIr6XbHMVLd3BJoYMmu96D1MFU3fNV6le+CQCAZSRMBSXu1DTrLo3WMiw480vjcbbh3Hxfkcjhf/ODvOZZExijvoxmIfRtVixD8pQJIhUsrp51PhfutSC7204hUPMnS9JGGZyFf1c/a4pEjJ6flIEXVVUGFH2mFAFk544zioUROR1nGADb1qw1SFUfGB2R4Fy9KZ/ZtxPmEU7ihqqQpp+NpBtZZCTUgEFnLgsTmZlQKmtMKfMnN/CnKMnP0oZ1c7cWeu3xUvnwMMe8VwDJkJNxF3/ANMxdJyclbM7YgsFZB3qlrxt2E6rd+5eonL47hxPlqA4Exhcf8p7rK32uQfLgOS7LAptZCfjyelFUYVnjKdr6ySWdsl+8FFbvK4VCfbZFBRFw9cnooz4qLIqpCTP/VEKbXWXVophywZ0apbDFO8XlJCoSQEAovAKq2grHZNsG5AKe+8e91jWvYm/a54zjTg4/JAD2OuZefuXJYK2NKK223u1o1klUvRmcDruZyZuTyOG+ejVx3opQSyUWJL2ThVJzL7zg9Zfz5aFdJ4oF6v7GX6zuifz/CBwGhxHE9KK6Ttcfarm2xLBbQqod0eVk15mwrajG1evuoLZKdwy7kz2L/5PGrWj0RBPUWWPqh5d1Vo9hDuPTMKvd5x1aaCjTdDQdAHFtow6RdL4e4AKa2QYmJc3SrmHX9oSFrvWWD93aaia/nUxXt7bRpEeou6Kx4jMq6YB2xKECoAM74Ud8ziDle+DzmlvgTcKxtRig31jFWrUmkIdBGXTd/OeEesFcefBE4Z9iOncn28m5G5PI4b5yP3sdqwTY0ZwFybDqxk+4J1vQ3nqxp77nSzQaVH1OezWAR+d2ejtCJjhXXVUIm7xH4WZ/0uybYMDY3VSIbPN8+Icx232vp9aJ+PWu09DTB87jj8O+oOFBUHkVUY/6vyEcZFL0TPsrZPfThRoTu+Td2Op+dY9qNNMW9aNQKl0BCWfOp0pppHyRIlcMstBdRScLiwYSUeuFAVK3P5EdOqb1dF2tU0tQT0j+2PsR3HqiVrc+bMQY8ehlaB5JBsGf9uh1zKqCjgyBKriu8Ce+08qRH0kk1P6XTIrcA6ryTPx+MP7sCQOFaTBKugL7GQQ6bndlDhbRkZGWqOiMxExtr36ey3rQh08kmfX+oB9wT0ye/A+FYP4PKQQQwqgliIPBUSWI4eParmfC8+XrbEI/IdcydSql+O7DzaGYhsO/PS+uAI+JIa0+OmC/isaVBjYEF+TY61wGqQ0KY/xSGnUAkqJL3DLvMUitU/FJCCvo1FXslJG4tLl66qOZO//rqEIkWKqiXfOnv2FMqU8X0DTiIiCgwMLDx07tw5xMXFiYy/CLp06aJScxZYnD17Sc1R7roZcx8riEG7b+DblZfRvqxKJrednlsE9T6+gbUrM1BDpeXUpU2F0a5zPhxWyygTLJ8Pv28UmkIgsLiMn76Pw8gUtYj86NWuE17xsEwxLS0NS5cuxdatW3Hjxg1tDI0BAwaotTkLLFJTL6NECf0pcso9Yfi6Uxh67wAWbruBThEqmdyW/HU+VH4f2CWuX24Uy2v7Hx4snw+/bxSagjywuIYty37HgLSK+OExUwdZ8vHTu3fdghnPeTYY2aZNm/Ddd9+pJWhBhXGArpwEFufPX0apUoXVEpCYmOgXg39JsudNfxoUzd8F++OQuX1+2v6HwjIOig/wEWeinAnyxpvXcSz9bxQuVtTc62aBkgWRnYdPL12yVFfITD83M/7r16+rOd8LlLFCiIjIPwR5YFEYrSsXx9nE3Xh+/TmxLLv3PoOKdaI9Kq3YuXMnli1bhrZt2+Kxxx7DQw89pNbkjvz586s5knePcghu46N3VkNyy06DRJocgltuq29j7O1SdkUdrdK1qb71yJvaPuz0rqi9zpBufuzRMOlDf+vHkD2DakOa29nGTL1nfb3tEOOuaO9DnoNxP/Z6h3RxHGfnY2ZzjAUnVbqB7WOR7nw+npyztn/bz0xKMw2i5vG+1HvQJsN109fJLuPlkObmbYzHdnA+Hn3fBP17bfUZONhOX19/hOl8PRvbRO9C2zB1Mw6ZbrJj/G2G9RMx7fFwxNgMeW61jYMuufVturG/7pAWEh1krW1aFOu2rkOdyauQVLcrPmleWq21b/necxi/+DB2HE3Xgoqvv/4aXbt2RadOnXD77bejbNncbYXlL9Ugkj+8F/kjP6O5euROZGwVxLLtj+tLtYFVA03b2A6mpXVvLV9rZ51GDvXdG/jvHLWs7BHHKGQcErw8sFftR05f3msZy0E/xknZ5XU96+2sekmUGZPqj0Fb7+B8XJLBSyNg4Cmxj4vAcNtiOHeO4+R8NGofsotubZv9wPEv1DpFZsZ3zQQWy/dhOI5tZm/8fOTgXxlimyxBjAPNxWdmHNlUp49wOsfNKguZiWt9Qajz1SZxsvrnqz/eKa+DHKrfvI2dap8cfd8U+b1utEoNFCc/Q3GOxiHdZVDxtPgM9Pc77R9xvnLIUw81/uiMeL0aFGz7OEQvHIWphn62ZTDQ8LVamH3GtM3Jp3dixGzr0UK0bb7sYR5kbPu4fejZgt11k31BH1hobSq2Z+LNh7thT6/KOLJ8AVovNbc/z+LthUl4d+lR1KxQCK/NPYDJ8/7QgooWLVqoLUKLP5SeyB95c/8FIgjoIX74l/5kPbZGb0PHSTKD8LS/AzloV8Ys6zvTMSLDfNvQ83qF9tYZjDZY1VZ4NGCT7D1xuwhixro4H5ciRGaut0OQ40pssG6T4M5xXJ2PHDr+F3Ec8zVQY3WYpYm7/R/F52MMvmSQJjLTXcZrKRg/H49H7lTH1Uc21YhjTxntWS+c+qBqxsw7u3L6fZPk6LM79NFmxTnGGC+K+P7N+cX6/OQYJuIj9FADtG9v6IyqbA00LZWAnUlXVMIO/PLFQdQc+Rq6qM0qdH8VrxqHwk+ej3feuQkjZ71q7i2zwb19EJ0wF0v3WkcWDYYf0AIPdoAV2oI7sLh6BLPiL+Gu+vXwsGx/WKwuJnYohyKJ+zDJzt2SDCpOnL+CIgXy4UTqVbz3eE2cLNIUN5evq7bIG2fP+k8xoj+193DGdoRKT8m7zBEiU9TvimWmur0j0MSQWetF72GqaPqu8SrdA3IE0RTjAFdikkXvHhMZvrNhyd06jovzcTn8uZ0RUiVtuHWbEV5z+vnoI5uaPx9VWuHJCKd6ScKycMs5e1xSpOT0fCRnQ/+niXsfWTjhjeMkz38c4eJktSqMig/AqjAi+TB2pwI1akbCYQ/bZ/Zj8/kEjLqjqGkfcmr4GmxGyycyC+7A4tolHPrrJkSVtFR9FKpaDm2K/IvEC7LNhYUeVLx8XyTGPlIDqxPO4/c9qRjRrTq+Xn9KbZU3ZF8Z/kI+oeKPnP0oZ1c7cWeu3xUvnwMMe8VwDJkJNxF3/ANMxdJyclbM7YgsFZB3qlrxt2E6rd+5eonL47hxPlqA4Iwa2nurTQ7jMiDJDptSC/n5ZHfMEL0nT1kls7ZL9oOL3ORxqY4DMqio+8BlTFXVHJknf0LPUmqlVKEa6opAyymtlKMmRm68ZNqHeYrHWxzwg+wI7sCiWCTaRFzH3F27oI++cWH7Ycy4WgRtIy3Bxpw/TmlBxZB7quC33Wdx7Z9MjH7oNi24+OCXI2hQ2T96wQxVuyZYN6CUd9697jEte5N+VzxnGvBxeaCHMdeyc3cuSwVsacXtNnfrRrLKpehM4PVczsxcHseN89GrDvRSAtkosaVsnKoTmX3nh6w/H60KaTxQr1f2Mn1n9M9n+EBgtDiOJ6UV0vY4+9VNtqUCWpXQbg+rprxNBW3GNi9f9QU8Ldw6s38zztesj0i9mxyt9EHNa8qiRtNSWDhqqrm9xI7xj+A1Y7BYoRkeuvcMRvV6x2WbCjbeJCnI21gUxgP3N0CPjCR0mrwAdcSktbfo3sZUNaL8sPk0+raqhJV7z6NJ9eJYd+A8rv97A9HliqB8iVvwTMtb1ZZ5o0oV/eFY3ytd2nlD17xQ71lg/d2momv51MV7uTVstLorHiMyrpgHbEoQKgAzvhR3zOIOV74POaW+BNwrG1GKDfWMVatSaQh0Ed8vfTvjHbFWHH8SOGXYj5zK9fFuRubyOG6cj9zHasM2NWYAc2XjVAPZvmBdb8P5qsaeudIHhPp8FovA7+5slFZkrLCuGipxl9jP4qzfJdmWoaGxGsnw+eYZca7jVlu/D+3zUavd1WD4XIz7dxTuKKqqMP5XBR+Ni8bCnmXVUx8V0P3b3622+V+VjyA2MZDbpGL703Ms+9GmGLzJ1ptkB7v0FgZ/tQ8F89+Eh5qVw/Yj6WhYtRgWbzuDtIx/8P7jNXHTTeKv2gVvdpBFFrJlPDsrIp0ssQrmDsicSjY9pdMhtwJrM/mIakNsfOtMNhphJmP+4w9ix5A4VpOEMAYWwuFzV9Bn+m7cVaMUujQs43FQIXmzS2/ZYJJ9WUimLpHfb5+JbS+av6YUqpLD0KlyGMovzMTnnULv+7D+9Xxo+QtyrTt1XfKCJ9DgoQxMPvUTHvMwrtg5sSYa//k/nJr3GPhcSOhiYKEcPHMFo346qD0N0q5OaQzvXM3toELy5iBkKSnHEBFRWS351sWLZ0XQ46ufCNMgTh+3+hsrn7+m0ijUaAOfDTL9Lfb4NgMftv9Xmw9u+bBpTCF0nmz4Dar9r1cHf9OdXtIXLXv/gAtqGeiET+PnoLurRp1EDjCw8JL7Pr8PyenJagm4v/b9GHXPKLVkzTawsB02/dixJFSu7IXnzLzAn94LERH5PwYWPmAbWNjy+cBfqSvwQqO2mHxMzN/5MRLXP4/qpjVEREROBX3Pm4HI56OJhrfBh0flc+qH8OlN/fHUJ4fUCiIiIudCILC4jJ++Nz1qqk2fbsCfag25UhxRDf2jrQcREQWGIA8srmHLsjUYnxmJJUO6Yc+Q9hhVIgV9/Ty4kFUh/iENidsz0SiquFomIiJyLrgDi/T9mHXwBh6pVw+mLqcK44H7qqPV3+ex1s5YIf7i4sWLas7HUo9gr95lKRERkRtCtI1F1rFCyI7wqqhd5Ti2JVoeoyUiInImuAOLLGOFXMOW9SewCjewP8267wh/EhPjavSnvBKJfmvOYXR8G4SFVcbg5QzGiIjIuSAvsbAdK+QXfF6oMvqyp1k3JWF6i9IYEbMCmZnHMKWd78cNISIi/xb8VSG3VMX/9ZENN+XUFZ80vIFDf+VDjeL+O2JpRkaGmvMxrY1FJTbeJCIit4VcG4sLe89h1c3Ww6b7m6NH/aTFpNbGQs0TERG5IbQCi/TdGLE5DWWqVrMaNp0ckf1YhLHxJhERuS3IAwvZj8UyS+dYsw7jn8Z3YWXHamq9f/J5z5tmsh8L2a83ERGRezhWiA+4GivE5zhWCBERZVPItbEgN5jHChETgwoiIvIAAwsfkBn2woULtSkuLk6lWiQmJqo5IiKiwMLAwgcKFy6M+++/X5vat2+vUlOw9JnyCAsLQ3T0AMw6oZKJiIgCCAMLvxGBjp+f0koz9n1wDr37zAJjCyIiCjRBElj8jU3LlqHdsiNq2ci0Tn8ypNn3u+HvzzmUim6EcmqeiIgokAR2YHFxF/prAcMy9Dn4t0q0dm79evQ5URKztJ432+LVzEN42M+Di/MHt6Fww+pgz+NERBRoAjqwuJxWBq+pgOF/ZVWi0ZXDmJVwGS1rR6OJllAUD90biUYpx/Bjgpbgh1JwePcpNU9ERBRYAjqwKFylPCqreXsuH0nBysv5UL1UuEoRChRF9cI3cOh8qkrwNxGoVrc8Dm0/hL9UChERUaAI/sabNxdC1RJq3uxf/x42/YVtOP3iOjQNC0PUsLW4qNKJiIj8XfAHFgEo/sNGKPfBXdicmYnECXcjS1xERETkp4I/sPgnA0ey3PLf5MfDppvaWFRn400iIgpAQR1YFK4agda27Sn+voRDtu0u/IqpjQUREVEgCu4Si4LV0KtmYazeexBbtIRL+PGXJGyLqIyHamoJfkn2Y3GZjTeJiCgABfTopufWr0CrrelqySg/+nTohJe04EF2kLXC3M9F4Yjq+OHRuk6fJsltcowQ2Z23I7KNRa0lQ3D8t164VaUREREFAg6b7gP2Aws5VkgDdJpxWsy3x8zjv6EXowoiIgowfCrEb1jGCsnMZFBBRESBiYEFEREReQ2rQnxgzpw5KFSokDYv/7cMnU5ERBTYGFgQERGR17AqhIiIiLyGgQURERF5DQMLIiIi8hoGFkREROQ1DCyIiIjIaxhYEBERkdcwsCAiIiKvYWBBREREXsPAgoiIiLyGgQURERF5DQMLIiIi8hoGFkREROQ1DCyIiIjIaxhYEBERkdcwsCAiIiKvYWBBREREXsPAgoiIiLyGgQURERF5DQMLIiIi8hoGFkREROQ1DCyIiIjIaxhYEBERkdcwsCAiIiIvAf4fPG+FN6RTFLoAAAAASUVORK5CYII=;imageBorder=#000000;" vertex="1" parent="Hab7gQNjuxkPKOEClwCh-28">
          <mxGeometry y="310" width="465.31" height="210" as="geometry" />
        </mxCell>
        <mxCell id="Hab7gQNjuxkPKOEClwCh-22" value="Reference FlyTiger package" style="text;html=1;strokeColor=none;fillColor=none;align=center;verticalAlign=middle;whiteSpace=wrap;rounded=0;fontSize=14;fontColor=#3333FF;fontStyle=1" vertex="1" parent="Hab7gQNjuxkPKOEClwCh-28">
          <mxGeometry width="190" height="20" as="geometry" />
        </mxCell>
        <mxCell id="Hab7gQNjuxkPKOEClwCh-25" value="Use FlyTiger Attribute" style="text;html=1;strokeColor=none;fillColor=none;align=center;verticalAlign=middle;whiteSpace=wrap;rounded=0;fontSize=14;fontColor=#3333FF;fontStyle=1" vertex="1" parent="Hab7gQNjuxkPKOEClwCh-28">
          <mxGeometry y="280" width="160" height="20" as="geometry" />
        </mxCell>
        <mxCell id="Hab7gQNjuxkPKOEClwCh-26" value="" style="shape=cross;whiteSpace=wrap;html=1;fontSize=14;fillColor=#ffe6cc;strokeColor=#d79b00;size=0.2571428571428571;" vertex="1" parent="Hab7gQNjuxkPKOEClwCh-28">
          <mxGeometry x="204" y="220" width="70" height="70" as="geometry" />
        </mxCell>
      </root>
    </mxGraphModel>
  </diagram>
</mxfile>
